<svg width="140" height="140" viewBox="0 0 140 140" fill="none" xmlns="http://www.w3.org/2000/svg">
<g clip-path="url(#clip0_405_1343)">
<path d="M139.53 70.12C139.53 53.74 139.64 37.36 139.43 20.98C139.39 17.76 138.68 14.27 137.27 11.39C133.34 3.33003 126.33 2.61718e-05 117.56 2.61718e-05C85.7201 2.61718e-05 53.8801 -0.0199738 22.0501 0.0400262C19.6601 0.0400262 17.1701 0.200026 14.9101 0.900026C5.6401 3.73003 0.0501026 11.3 0.0301026 21C-0.00989735 53.59 0.00010265 86.19 0.0401026 118.79C0.0401026 123.27 1.2901 127.45 3.9101 131.2C8.5401 137.83 15.2401 139.66 22.8301 139.66C54.1701 139.64 85.5101 139.67 116.85 139.62C119.49 139.62 122.21 139.44 124.75 138.79C133.6 136.53 139.51 128.64 139.53 119.26C139.57 102.88 139.54 86.5 139.54 70.12H139.53Z" fill="white"/>
<path d="M139.53 70.12C139.53 86.5 139.56 102.88 139.52 119.26C139.5 128.64 133.59 136.52 124.74 138.79C122.2 139.44 119.48 139.61 116.84 139.62C85.5001 139.67 54.1601 139.64 22.8201 139.66C15.2301 139.66 8.5301 137.83 3.9001 131.2C1.2901 127.45 0.0501026 123.26 0.0401026 118.79C0.00010265 86.19 -0.00989735 53.59 0.0301026 21C0.0501026 11.3 5.6401 3.73003 14.9101 0.890026C17.1701 0.200026 19.6601 0.0400262 22.0401 0.0400262C53.8801 -0.0199738 85.7201 2.61718e-05 117.56 2.61718e-05C126.34 2.61718e-05 133.35 3.33003 137.28 11.39C138.69 14.27 139.39 17.76 139.44 20.98C139.65 37.36 139.54 53.74 139.54 70.12H139.53ZM119.66 55.77C118.77 56.19 118.3 56.35 117.9 56.61C104.86 65.03 91.8001 73.41 78.8201 81.91C72.8001 85.85 66.9801 85.93 60.9501 81.99C48.7201 74 36.4401 66.09 24.1701 58.16C22.9001 57.34 21.5501 56.64 19.8001 55.63C19.8001 57.19 19.8001 58.17 19.8001 59.15C19.8001 70.46 19.8001 81.76 19.8001 93.07C19.8001 101.2 23.4101 104.83 31.4601 104.83C57.0601 104.83 82.6601 104.83 108.26 104.83C116.22 104.83 119.8 101.27 119.82 93.23C119.85 81.76 119.83 70.28 119.82 58.81C119.82 57.92 119.73 57.02 119.66 55.76V55.77ZM69.9901 34.84C56.9401 34.84 43.9001 34.82 30.8501 34.85C25.5201 34.87 21.6901 37.6 20.3401 42C19.9201 43.37 20.2601 44.09 21.4501 44.84C26.7801 48.21 32.0601 51.67 37.3501 55.09C47.1101 61.39 56.8901 67.66 66.6101 74.02C68.9101 75.53 70.9101 75.73 73.1701 73.96C75.0601 72.49 77.1801 71.32 79.2001 70.01C92.1701 61.63 105.12 53.24 118.11 44.9C119.38 44.09 119.69 43.35 119.22 41.87C117.84 37.52 114.05 34.87 108.63 34.85C95.7501 34.82 82.8701 34.85 69.9901 34.85V34.84Z" fill="black"/>
<path d="M119.66 55.7701C119.73 57.0301 119.82 57.9201 119.82 58.8201C119.82 70.2901 119.85 81.7701 119.82 93.2401C119.8 101.27 116.21 104.84 108.26 104.84C82.6601 104.84 57.06 104.84 31.46 104.84C23.41 104.84 19.81 101.2 19.8 93.0801C19.8 81.7701 19.8 70.4701 19.8 59.1601C19.8 58.1801 19.8 57.2001 19.8 55.6401C21.55 56.6501 22.9 57.3501 24.17 58.1701C36.4401 66.1001 48.7201 74.0101 60.9501 82.0001C66.9801 85.9401 72.8 85.8601 78.82 81.9201C91.8 73.4201 104.86 65.0401 117.9 56.6201C118.3 56.3601 118.78 56.2001 119.66 55.7801V55.7701Z" fill="white"/>
<path d="M69.9902 34.8401C82.8702 34.8401 95.7502 34.8201 108.63 34.8401C114.05 34.8501 117.85 37.5101 119.22 41.8601C119.69 43.3501 119.38 44.0801 118.11 44.8901C105.12 53.2301 92.1602 61.6201 79.2002 70.0001C77.1802 71.3101 75.0602 72.4801 73.1702 73.9501C70.9002 75.7201 68.9102 75.5201 66.6102 74.0101C56.8902 67.6501 47.1102 61.3801 37.3502 55.0801C32.0502 51.6601 26.7802 48.1901 21.4502 44.8301C20.2602 44.0801 19.9202 43.3601 20.3402 41.9901C21.6902 37.5901 25.5302 34.8601 30.8502 34.8401C43.9002 34.8001 56.9402 34.8301 69.9902 34.8301V34.8401Z" fill="white"/>
</g>
<defs>
<clipPath id="clip0_405_1343">
<rect width="139.56" height="139.66" fill="white"/>
</clipPath>
</defs>
</svg>
