<svg width="667" height="665" viewBox="0 0 667 665" fill="none" xmlns="http://www.w3.org/2000/svg">
<path d="M111.07 0.170258H0V111.261H111.07V0.170258Z" fill="#B7B7B8"/>
<path d="M111.07 0.170258H0V55.7255H111.07V0.170258Z" fill="#DC4F3B"/>
<path d="M83.438 55.5953C83.4981 71.1692 70.9288 83.8386 55.3549 83.8987C39.781 83.9588 27.1116 71.3895 27.0515 55.8156L83.428 55.5953H83.438Z" fill="#1B1C1C"/>
<path d="M83.438 55.5953C83.3779 40.0214 70.7084 27.4521 55.1346 27.5122C39.5607 27.5723 26.9914 40.2517 27.0515 55.8156L83.428 55.5953H83.438Z" fill="white"/>
<path d="M111.08 110.95L221.87 110.95V0.160248L111.08 0.160248L111.08 110.95Z" fill="#DC4F3B"/>
<path d="M111.11 2.65408C141.467 2.65408 166.085 26.9413 166.085 56.8973C166.085 86.8532 141.477 111.14 111.11 111.14" fill="white"/>
<path d="M110.73 28.3134C126.264 28.2533 138.893 40.7926 138.963 56.3164C139.023 71.8502 126.484 84.4796 110.96 84.5497" fill="#1B1C1C"/>
<path d="M222.211 111.14C192.255 111.14 167.968 86.8532 167.968 56.8973C167.968 26.9413 192.245 2.65408 222.211 2.65408" fill="#1B1C1C"/>
<path d="M222.011 111.261H111.221V222.051H222.011V111.261Z" fill="#DC4F3B"/>
<path d="M111.151 193.897C126.684 193.837 139.214 181.198 139.153 165.664C139.093 150.13 126.454 137.601 110.92 137.661" fill="white"/>
<path d="M166.505 111.261C166.505 141.908 191.353 166.756 222 166.756V111.261H166.505Z" fill="white"/>
<path d="M222.011 166.545C191.363 166.545 166.515 191.394 166.515 222.041H222.011V166.545Z" fill="white"/>
<path d="M555.322 111.1H444.532V221.89H555.322V111.1Z" fill="white"/>
<path d="M475.84 141.878C497.824 119.904 526.928 109.718 554.851 111.521V111.541L445.463 220.859H445.443C443.651 192.936 453.856 163.851 475.84 141.878Z" fill="#1B1C1C"/>
<path d="M445.463 220.859L554.851 111.541C556.644 139.454 546.438 168.549 524.454 190.522C502.471 212.496 473.366 222.672 445.463 220.859Z" fill="#DC4F3B"/>
<path d="M555.322 221.9H666.112V111.11L555.322 111.11V221.9Z" fill="#DC4F3B"/>
<path d="M634.804 141.878C612.82 119.904 583.715 109.718 555.792 111.521V111.541L665.18 220.859H665.2C666.993 192.936 656.787 163.851 634.804 141.878Z" fill="white"/>
<path d="M665.18 220.859L555.793 111.541C554 139.454 564.205 168.549 586.189 190.522C608.173 212.496 637.278 222.672 665.18 220.859Z" fill="#B7B7B8"/>
<path d="M555.322 111.1L666.112 111.1V0.310493L555.322 0.310493V111.1Z" fill="#B7B7B8"/>
<path d="M634.804 80.3332C612.82 102.307 583.715 112.493 555.792 110.69V110.67L665.18 1.35208H665.2C666.993 29.2749 656.787 58.3595 634.804 80.3332Z" fill="white"/>
<path d="M665.18 1.35209L555.793 110.67C554 82.757 564.205 53.6623 586.189 31.6886C608.173 9.71492 637.278 -0.46069 665.18 1.35209Z" fill="#1B1C1C"/>
<path d="M555.322 0.320496H444.532V111.11H555.322V0.320496Z" fill="#1B1C1C"/>
<path d="M475.84 80.3332C497.824 102.307 526.928 112.493 554.851 110.69V110.67L445.463 1.35208H445.443C443.651 29.2749 453.856 58.3595 475.84 80.3332Z" fill="white"/>
<path d="M445.463 1.35209L554.851 110.67C556.644 82.757 546.438 53.6623 524.454 31.6886C502.471 9.71492 473.376 -0.46069 445.463 1.35209Z" fill="#B7B7B8"/>
<path d="M666.292 220.859H444.352V442.789H666.292V220.859Z" fill="#1B1C1C"/>
<path d="M641.694 235.301C669.797 257.585 674.525 298.428 652.24 326.531C629.956 354.634 589.114 359.361 561.01 337.077" fill="white"/>
<path d="M641.694 235.301C613.591 213.017 572.739 217.744 550.464 245.847C528.18 273.95 532.907 314.803 561.011 337.077" fill="#DC4F3B"/>
<path d="M470.151 428.347C441.537 406.724 435.869 366.001 457.492 337.377C479.115 308.764 519.837 303.095 548.461 324.718" fill="white"/>
<path d="M470.151 428.347C498.765 449.97 539.498 444.301 561.121 415.688C582.744 387.074 577.075 346.341 548.461 324.718" fill="#DC4F3B"/>
<path d="M555.322 553.9H444.532V664.69H555.322V553.9Z" fill="white"/>
<path d="M475.84 584.677C497.824 562.703 526.928 552.517 554.851 554.32V554.34L445.463 663.658H445.443C443.651 635.735 453.856 606.651 475.84 584.677Z" fill="#1B1C1C"/>
<path d="M445.463 663.658L554.851 554.34C556.644 582.253 546.438 611.348 524.454 633.321C502.471 655.295 473.366 665.471 445.463 663.658Z" fill="#DC4F3B"/>
<path d="M555.322 664.69H666.112V553.9H555.322V664.69Z" fill="#DC4F3B"/>
<path d="M634.804 584.677C612.82 562.703 583.715 552.517 555.792 554.32V554.34L665.18 663.658H665.2C666.993 635.735 656.787 606.651 634.804 584.677Z" fill="white"/>
<path d="M665.18 663.658L555.793 554.34C554 582.253 564.205 611.348 586.189 633.321C608.173 655.295 637.278 665.471 665.18 663.658Z" fill="#B7B7B8"/>
<path d="M555.322 553.9H666.112V443.11H555.322V553.9Z" fill="#B7B7B8"/>
<path d="M634.804 523.122C612.82 545.096 583.715 555.282 555.792 553.479V553.459L665.18 444.141H665.2C666.993 472.064 656.787 501.149 634.804 523.122Z" fill="white"/>
<path d="M665.18 444.141L555.793 553.459C554 525.546 564.205 496.451 586.189 474.478C608.173 452.504 637.278 442.328 665.18 444.141Z" fill="#1B1C1C"/>
<path d="M555.322 443.11H444.532V553.9H555.322V443.11Z" fill="#1B1C1C"/>
<path d="M475.84 523.122C497.824 545.096 526.928 555.282 554.851 553.479V553.459L445.463 444.141H445.443C443.651 472.064 453.856 501.149 475.84 523.122Z" fill="white"/>
<path d="M445.463 444.141L554.851 553.459C556.644 525.546 546.438 496.451 524.454 474.478C502.471 452.504 473.366 442.328 445.463 444.141Z" fill="#B7B7B8"/>
<path d="M110.95 553.9V664.69H221.74V553.9H110.95Z" fill="white"/>
<path d="M141.717 633.381C119.744 611.398 109.558 582.293 111.361 554.37H111.381L220.699 663.758V663.778C192.776 665.571 163.691 655.365 141.717 633.381Z" fill="#1B1C1C"/>
<path d="M220.709 663.758L111.391 554.37C139.304 552.578 168.398 562.783 190.372 584.767C212.346 606.751 222.521 635.855 220.709 663.758Z" fill="#DC4F3B"/>
<path d="M221.74 553.9V443.11H110.95V553.9H221.74Z" fill="#DC4F3B"/>
<path d="M141.717 474.418C119.744 496.401 109.558 525.506 111.361 553.429H111.381L220.699 444.041V444.021C192.776 442.228 163.691 452.434 141.717 474.418Z" fill="white"/>
<path d="M220.709 444.041L111.391 553.429C139.304 555.222 168.398 545.016 190.372 523.032C212.346 501.049 222.521 471.944 220.709 444.041Z" fill="#B7B7B8"/>
<path d="M110.95 664.279V553.489H0.160263V664.279H110.95Z" fill="#B7B7B8"/>
<path d="M80.173 584.797C102.147 606.781 112.332 635.885 110.53 663.808H110.51L1.19189 554.42V554.4C29.1147 552.608 58.1993 562.813 80.173 584.797Z" fill="white"/>
<path d="M1.19175 554.42L110.509 663.808C82.5966 665.601 53.502 655.395 31.5283 633.412C9.55458 611.428 -0.621029 582.323 1.19175 554.42Z" fill="#1B1C1C"/>
<path d="M333.181 220.969H222.391V331.759H333.181V220.969Z" fill="#B7B7B8"/>
<path d="M333.181 276.364H222.391V331.959H333.181V276.364Z" fill="#DC4F3B"/>
<path d="M249.953 276.474C249.893 260.94 262.432 248.311 277.956 248.241C293.49 248.181 306.119 260.72 306.19 276.244L249.953 276.464V276.474Z" fill="#1B1C1C"/>
<path d="M249.953 276.474C250.013 292.008 262.653 304.537 278.187 304.477C293.721 304.417 306.25 291.778 306.19 276.244" fill="white"/>
<path d="M444.251 331.649H333.181V442.739H444.251V331.649Z" fill="#B7B7B8"/>
<path d="M444.251 387.194H333.181V442.749H444.251V387.194Z" fill="#DC4F3B"/>
<path d="M360.813 387.304C360.753 371.73 373.323 359.061 388.897 359.001C404.47 358.941 417.14 371.51 417.2 387.084L360.823 387.304H360.813Z" fill="#1B1C1C"/>
<path d="M360.813 387.304C360.873 402.878 373.543 415.447 389.117 415.387C404.691 415.327 417.26 402.648 417.2 387.084L360.823 387.304H360.813Z" fill="white"/>
<path d="M333.181 331.959H222.391V442.749H333.181V331.959Z" fill="#DC4F3B"/>
<path d="M444.251 220.859H333.461V331.649H444.251V220.859Z" fill="#DC4F3B"/>
<path d="M333.141 440.255C302.784 440.255 278.167 415.968 278.167 386.012C278.167 356.056 302.774 331.769 333.141 331.769" fill="white"/>
<path d="M333.521 414.596C317.988 414.656 305.358 402.117 305.288 386.593C305.228 371.059 317.767 358.43 333.291 358.36" fill="#1B1C1C"/>
<path d="M222.041 331.759C251.996 331.759 276.284 356.046 276.284 386.002C276.284 415.958 251.996 440.245 222.041 440.245" fill="#1B1C1C"/>
<path d="M333.401 303.506C348.935 303.445 361.464 290.806 361.404 275.272C361.344 259.738 348.705 247.209 333.171 247.269" fill="white"/>
<path d="M388.756 220.859C388.756 251.506 413.604 276.354 444.251 276.354V220.859H388.756Z" fill="white"/>
<path d="M444.251 276.154C413.604 276.154 388.756 301.002 388.756 331.649H444.251V276.154Z" fill="white"/>
<path d="M333.331 111.11H222.541V221.9H333.331V111.11Z" fill="#DC4F3B"/>
<path d="M444.121 111.11H333.341V221.9H444.121V111.11Z" fill="#DC4F3B"/>
<path d="M444.121 0.310486H333.341V111.1H444.121V0.310486Z" fill="#DC4F3B"/>
<path d="M333.331 0.310486H222.541V111.1H333.331V0.310486Z" fill="#DC4F3B"/>
<path d="M222.541 23.5862V0.310486H444.111V221.89H436.039C398.752 220.739 363.778 210.383 333.321 192.996C299.139 173.506 270.645 145.163 250.955 111.1C235.782 84.8602 225.836 55.2147 222.531 23.5862H222.541Z" fill="#1B1C1C"/>
<path d="M332.891 0.310491H444.111V110.449C443.751 110.449 443.39 110.449 443.029 110.449C385.531 110.449 338.319 66.3818 333.331 10.1656C333.041 6.91061 332.891 3.62558 332.891 0.300476V0.310491Z" fill="white"/>
<path d="M332.891 553.9V664.69H443.68V553.9H332.891Z" fill="#DC4F3B"/>
<path d="M443.68 443.12H332.891V553.9H443.68V443.12Z" fill="#DC4F3B"/>
<path d="M332.891 443.12H222.101V553.9H332.891V443.12Z" fill="#DC4F3B"/>
<path d="M332.891 553.9H222.101V664.69H332.891V553.9Z" fill="#DC4F3B"/>
<path d="M245.376 664.69H222.101V443.12H443.68V451.192C442.529 488.479 432.173 523.453 414.786 553.91C395.296 588.092 366.953 616.586 332.891 636.276C306.65 651.449 277.005 661.395 245.376 664.7V664.69Z" fill="#1B1C1C"/>
<path d="M222.101 554.34V443.12H332.24C332.24 443.48 332.24 443.841 332.24 444.201C332.24 501.7 288.172 548.912 231.956 553.9C228.701 554.19 225.416 554.34 222.091 554.34H222.101Z" fill="white"/>
</svg>
