<svg width="764" height="381" viewBox="0 0 764 381" fill="none" xmlns="http://www.w3.org/2000/svg">
<g clip-path="url(#clip0_53_1626)">
<g clip-path="url(#clip1_53_1626)">
<path d="M381.341 316.542V253.245H444.638V316.542H381.341Z" fill="#B7B7B8"/>
<path d="M412.989 316.542V253.245H444.752V316.542H412.989Z" fill="#F16925"/>
<path d="M413.058 268.992C404.183 268.958 396.968 276.122 396.928 284.991C396.894 293.866 404.058 301.081 412.927 301.121L413.053 268.992H413.058Z" fill="#1B1C1C"/>
<path d="M413.058 268.992C421.933 269.026 429.092 276.247 429.057 285.122C429.023 293.997 421.802 301.156 412.927 301.121" fill="white"/>
<path d="M508.045 380H444.576V316.542H508.045V380Z" fill="#B7B7B8"/>
<path d="M508.051 380H476.311V316.542H508.051V380Z" fill="#F16925"/>
<path d="M476.38 332.329C467.482 332.295 460.243 339.476 460.209 348.374C460.175 357.272 467.356 364.51 476.254 364.545L476.38 332.335V332.329Z" fill="#1B1C1C"/>
<path d="M476.38 332.329C485.278 332.364 492.459 339.602 492.424 348.5C492.39 357.398 485.146 364.579 476.254 364.545L476.38 332.335V332.329Z" fill="white"/>
<path d="M444.747 316.542V253.245H508.045V316.542H444.747Z" fill="#F16925"/>
<path d="M381.278 380V316.702H444.576V380H381.278Z" fill="#F16925"/>
<path d="M506.626 316.519C506.626 299.176 492.75 285.111 475.635 285.111C458.521 285.111 444.645 299.17 444.645 316.519" fill="white"/>
<path d="M491.966 316.737C492.001 307.862 484.837 300.646 475.967 300.606C467.092 300.572 459.877 307.736 459.837 316.605" fill="#1B1C1C"/>
<path d="M444.639 253.045C444.639 270.159 458.515 284.035 475.629 284.035C492.744 284.035 506.62 270.159 506.62 253.045" fill="#1B1C1C"/>
<path d="M428.497 316.668C428.462 325.543 421.241 332.701 412.366 332.667C403.491 332.633 396.333 325.411 396.367 316.537" fill="white"/>
<path d="M381.278 348.294C398.788 348.294 412.984 362.49 412.984 380H381.278V348.294Z" fill="white"/>
<path d="M412.87 380C412.87 362.49 427.067 348.294 444.576 348.294V380H412.87Z" fill="white"/>
<path d="M64.4069 379.903H0.949219V316.434H64.4069V379.903Z" fill="#B7B7B8"/>
<path d="M64.4069 379.903H0.949219V348.162H64.4069V379.903Z" fill="#F16925"/>
<path d="M48.6195 348.237C48.6539 339.339 41.4727 332.101 32.5749 332.066C23.677 332.032 16.4386 339.213 16.4043 348.111L48.6138 348.237H48.6195Z" fill="#1B1C1C"/>
<path d="M48.6197 348.237C48.5853 357.135 41.3469 364.316 32.4491 364.281C23.5513 364.247 16.3701 357.003 16.4044 348.111L48.6139 348.237H48.6197Z" fill="white"/>
<path d="M64.4124 316.611H127.71L127.71 379.908H64.4124V316.611Z" fill="#F16925"/>
<path d="M127.791 316.434H64.4932V253.136H127.791V316.434Z" fill="#F16925"/>
<path d="M64.4297 378.484C81.7733 378.484 95.8381 364.608 95.8381 347.493C95.8381 330.378 81.779 316.502 64.4297 316.502" fill="white"/>
<path d="M64.2119 363.824C73.0868 363.858 80.3024 356.694 80.3424 347.825C80.3768 338.95 73.2127 331.734 64.3435 331.694" fill="#1B1C1C"/>
<path d="M127.905 316.502C110.79 316.502 96.9141 330.378 96.9141 347.493C96.9141 364.608 110.784 378.484 127.905 378.484" fill="#1B1C1C"/>
<path d="M64.4529 269.221C73.3278 269.255 80.4861 276.476 80.4518 285.351C80.4175 294.226 73.1962 301.385 64.3213 301.35" fill="white"/>
<path d="M96.0781 316.434C96.0781 298.924 110.275 284.728 127.784 284.728V316.434H96.0781Z" fill="white"/>
<path d="M127.79 284.848C110.28 284.848 96.084 270.651 96.084 253.142H127.79V284.848Z" fill="white"/>
<path d="M444.666 190.319H507.964V253.617H444.666V190.319Z" fill="#F16925"/>
<path d="M444.661 253.617H381.369V190.319H444.661V253.617Z" fill="#F16925"/>
<path d="M444.661 190.313H381.369V127.016H444.661V190.313Z" fill="#F16925"/>
<path d="M507.959 190.313H444.661V127.016H507.959V190.313Z" fill="#F16925"/>
<path d="M507.958 140.314V127.016H381.369V253.611H385.981C407.284 252.953 427.266 247.036 444.667 237.103C464.196 225.968 480.475 209.774 491.725 190.313C500.394 175.322 506.076 158.384 507.964 140.314H507.958Z" fill="#1B1C1C"/>
<path d="M444.913 127.016H381.369V189.942C381.575 189.942 381.781 189.942 381.987 189.942C414.837 189.942 441.811 164.764 444.661 132.646C444.827 130.787 444.913 128.91 444.913 127.01V127.016Z" fill="white"/>
<path d="M507.988 63.5239V126.821H444.691V63.5239L507.988 63.5239Z" fill="#B7B7B8"/>
<path d="M476.34 63.5239V126.821H444.577V63.5239H476.34Z" fill="#F16925"/>
<path d="M476.271 111.074C485.145 111.109 492.361 103.945 492.401 95.0754C492.435 86.2005 485.271 78.9849 476.402 78.9449L476.276 111.074H476.271Z" fill="#1B1C1C"/>
<path d="M476.271 111.074C467.396 111.04 460.237 103.819 460.272 94.9438C460.306 86.0688 467.527 78.9105 476.402 78.9449" fill="white"/>
<path d="M444.753 63.5239H381.284V0.0661888H444.753V63.5239Z" fill="#B7B7B8"/>
<path d="M413.025 63.5239H381.284V0.0661888H413.025V63.5239Z" fill="#F16925"/>
<path d="M412.956 47.7368C421.854 47.7711 429.092 40.5899 429.127 31.6921C429.161 22.7942 421.98 15.5559 413.082 15.5215L412.956 47.731V47.7368Z" fill="#1B1C1C"/>
<path d="M412.956 47.7367C404.058 47.7024 396.877 40.464 396.911 31.5662C396.946 22.6683 404.19 15.4872 413.082 15.5215L412.956 47.731V47.7367Z" fill="white"/>
<path d="M444.576 63.5239V126.821H381.279V63.5239L444.576 63.5239Z" fill="#F16925"/>
<path d="M508.051 0.0604668V63.358L444.753 63.358V0.0604668L508.051 0.0604668Z" fill="#F16925"/>
<path d="M382.703 63.5468C382.703 80.8904 396.579 94.9552 413.694 94.9552C430.809 94.9552 444.685 80.8961 444.685 63.5468" fill="white"/>
<path d="M397.363 63.3294C397.329 72.2043 404.493 79.4198 413.362 79.4599C422.237 79.4942 429.453 72.3302 429.493 63.461" fill="#1B1C1C"/>
<path d="M444.69 127.016C444.69 109.901 430.814 96.0252 413.7 96.0252C396.585 96.0252 382.709 109.901 382.709 127.016" fill="#1B1C1C"/>
<path d="M460.832 63.398C460.866 54.5231 468.088 47.3648 476.963 47.3991C485.837 47.4335 492.996 54.6547 492.961 63.5296" fill="white"/>
<path d="M508.051 31.7722C490.541 31.7722 476.345 17.5757 476.345 0.0661959H508.051V31.7722Z" fill="white"/>
<path d="M476.459 0.0661959C476.459 17.5757 462.262 31.7722 444.753 31.7722V0.0661959H476.459Z" fill="white"/>
<path d="M318.22 316.525H254.923V253.228H318.22V316.525Z" fill="white"/>
<path d="M272.81 298.941C285.37 311.495 301.999 317.315 317.952 316.285V316.273L255.455 253.817H255.444C254.42 269.77 260.25 286.387 272.81 298.941Z" fill="#1B1C1C"/>
<path d="M255.455 253.817L317.951 316.273C318.976 300.326 313.145 283.703 300.585 271.149C288.025 258.595 271.397 252.781 255.455 253.817Z" fill="#F16925"/>
<path d="M318.22 253.222H381.518V316.519H318.22V253.222Z" fill="#F16925"/>
<path d="M363.631 298.941C351.071 311.495 334.442 317.315 318.489 316.285V316.273L380.986 253.817H380.997C382.021 269.77 376.191 286.387 363.631 298.941Z" fill="white"/>
<path d="M380.985 253.817L318.489 316.273C317.465 300.326 323.295 283.703 335.855 271.149C348.415 258.595 365.044 252.781 380.985 253.817Z" fill="#B7B7B8"/>
<path d="M318.22 316.525H381.518V379.823H318.22V316.525Z" fill="#B7B7B8"/>
<path d="M363.631 334.103C351.071 321.549 334.442 315.73 318.489 316.76V316.771L380.986 379.228H380.997C382.021 363.274 376.191 346.658 363.631 334.103Z" fill="white"/>
<path d="M380.985 379.228L318.489 316.771C317.465 332.719 323.295 349.341 335.855 361.895C348.415 374.45 365.044 380.263 380.985 379.228Z" fill="#1B1C1C"/>
<path d="M318.22 379.817H254.923V316.519H318.22V379.817Z" fill="#1B1C1C"/>
<path d="M272.81 334.103C285.37 321.549 301.999 315.73 317.952 316.76V316.771L255.455 379.228H255.444C254.42 363.274 260.25 346.658 272.81 334.103Z" fill="white"/>
<path d="M255.455 379.228L317.951 316.771C318.976 332.719 313.145 349.341 300.585 361.895C288.025 374.45 271.402 380.263 255.455 379.228Z" fill="#B7B7B8"/>
<path d="M381.621 253.817H254.82V127.022H381.621V253.817Z" fill="#1B1C1C"/>
<path d="M367.568 245.566C383.624 232.834 386.325 209.5 373.593 193.443C360.861 177.387 337.527 174.687 321.471 187.418" fill="white"/>
<path d="M367.568 245.566C351.512 258.297 328.172 255.597 315.446 239.54C302.714 223.484 305.415 200.144 321.471 187.418" fill="#F16925"/>
<path d="M269.56 135.273C253.212 147.627 249.973 170.893 262.327 187.246C274.681 203.594 297.947 206.833 314.301 194.479" fill="white"/>
<path d="M269.561 135.273C285.908 122.919 309.18 126.158 321.534 142.506C333.888 158.854 330.649 182.125 314.301 194.479" fill="#F16925"/>
<path d="M318.22 63.5411H254.923V0.243572H318.22V63.5411Z" fill="white"/>
<path d="M272.81 45.9571C285.37 58.5113 301.999 64.3307 317.952 63.3007V63.2893L255.455 0.832885H255.444C254.42 16.786 260.25 33.4029 272.81 45.9571Z" fill="#1B1C1C"/>
<path d="M255.455 0.832927L317.951 63.2893C318.976 47.3419 313.145 30.7193 300.585 18.1651C288.025 5.61088 271.397 -0.202767 255.455 0.832927Z" fill="#F16925"/>
<path d="M318.22 0.243561L381.518 0.243561V63.5411L318.22 63.5411V0.243561Z" fill="#F16925"/>
<path d="M363.631 45.9571C351.071 58.5113 334.442 64.3307 318.489 63.3007V63.2893L380.986 0.832885H380.997C382.021 16.786 376.191 33.4029 363.631 45.9571Z" fill="white"/>
<path d="M380.985 0.832927L318.489 63.2893C317.465 47.3419 323.295 30.7193 335.855 18.1651C348.415 5.61088 365.044 -0.202767 380.985 0.832927Z" fill="#B7B7B8"/>
<path d="M318.22 63.5411L381.518 63.5411V126.839H318.22V63.5411Z" fill="#B7B7B8"/>
<path d="M363.631 81.125C351.071 68.5708 334.442 62.7514 318.489 63.7814V63.7928L380.986 126.249H380.997C382.021 110.296 376.191 93.6792 363.631 81.125Z" fill="white"/>
<path d="M380.985 126.249L318.489 63.7928C317.465 79.7402 323.295 96.3628 335.855 108.917C348.415 121.471 365.044 127.285 380.985 126.249Z" fill="#1B1C1C"/>
<path d="M318.22 126.839H254.923V63.5411H318.22V126.839Z" fill="#1B1C1C"/>
<path d="M272.81 81.125C285.37 68.5708 301.999 62.7514 317.952 63.7814V63.7928L255.455 126.249H255.444C254.42 110.296 260.25 93.6792 272.81 81.125Z" fill="white"/>
<path d="M255.455 126.249L317.951 63.7928C318.976 79.7402 313.145 96.3628 300.585 108.917C288.025 121.471 271.397 127.285 255.455 126.249Z" fill="#B7B7B8"/>
<path d="M64.3379 63.5411V0.243591L127.635 0.243591V63.5411L64.3379 63.5411Z" fill="white"/>
<path d="M81.9168 18.1308C69.3626 30.6907 63.5433 47.319 64.5732 63.2722H64.5847L127.041 0.775753V0.764298C111.088 -0.259952 94.471 5.57085 81.9168 18.1308Z" fill="#1B1C1C"/>
<path d="M127.046 0.775727L64.5898 63.2721C80.5372 64.2964 97.1599 58.4656 109.714 45.9057C122.268 33.3457 128.082 16.7174 127.046 0.775727Z" fill="#F16925"/>
<path d="M127.636 63.5411V126.839H64.3382V63.5411L127.636 63.5411Z" fill="#F16925"/>
<path d="M81.9168 108.951C69.3626 96.3915 63.5433 79.7631 64.5732 63.81H64.5847L127.041 126.306V126.318C111.088 127.342 94.471 121.511 81.9168 108.951Z" fill="white"/>
<path d="M127.046 126.306L64.5898 63.81C80.5372 62.7858 97.1599 68.6166 109.714 81.1765C122.268 93.7365 128.082 110.365 127.046 126.306Z" fill="#B7B7B8"/>
<path d="M64.3379 0.478191V63.7757L1.04039 63.7757L1.04039 0.478191L64.3379 0.478191Z" fill="#B7B7B8"/>
<path d="M46.7541 45.8885C59.3083 33.3285 65.1277 16.7002 64.0977 0.747121H64.0862L1.62988 63.2435V63.255C17.583 64.2792 34.1999 58.4484 46.7541 45.8885Z" fill="white"/>
<path d="M1.6302 63.2435L64.0866 0.747097C48.1392 -0.277153 31.5166 5.55362 18.9623 18.1136C6.40812 30.6735 0.594505 47.3018 1.6302 63.2435Z" fill="#1B1C1C"/>
<path d="M191.305 253.754H128.008V190.456H191.305V253.754Z" fill="#B7B7B8"/>
<path d="M191.305 222.105H128.008V190.342H191.305V222.105Z" fill="#F16925"/>
<path d="M143.755 222.042C143.721 230.917 150.885 238.133 159.754 238.173C168.629 238.207 175.844 231.043 175.884 222.174L143.755 222.048V222.042Z" fill="#1B1C1C"/>
<path d="M143.755 222.042C143.789 213.167 151.01 206.009 159.885 206.043C168.76 206.078 175.919 213.299 175.884 222.174" fill="white"/>
<path d="M254.763 190.519H191.306V127.05H254.763V190.519Z" fill="#B7B7B8"/>
<path d="M254.763 158.785H191.306V127.045H254.763V158.785Z" fill="#F16925"/>
<path d="M207.093 158.722C207.059 167.62 214.24 174.858 223.138 174.893C232.035 174.927 239.274 167.746 239.308 158.848L207.099 158.722H207.093Z" fill="#1B1C1C"/>
<path d="M207.093 158.722C207.127 149.824 214.366 142.643 223.263 142.677C232.161 142.712 239.342 149.956 239.308 158.848L207.098 158.722H207.093Z" fill="white"/>
<path d="M191.305 190.342H128.008V127.045H191.305V190.342Z" fill="#F16925"/>
<path d="M254.763 253.817H191.466V190.519H254.763V253.817Z" fill="#F16925"/>
<path d="M191.282 128.469C173.939 128.469 159.874 142.345 159.874 159.46C159.874 176.575 173.933 190.451 191.282 190.451" fill="white"/>
<path d="M191.5 143.129C182.625 143.095 175.409 150.259 175.369 159.128C175.335 168.003 182.499 175.219 191.368 175.259" fill="#1B1C1C"/>
<path d="M127.808 190.457C144.922 190.457 158.798 176.581 158.798 159.466C158.798 142.351 144.922 128.475 127.808 128.475" fill="#1B1C1C"/>
<path d="M191.431 206.598C200.306 206.633 207.465 213.854 207.43 222.729C207.396 231.604 200.175 238.762 191.3 238.728" fill="white"/>
<path d="M223.058 253.817C223.058 236.307 237.254 222.111 254.764 222.111V253.817H223.058Z" fill="white"/>
<path d="M254.764 222.225C237.254 222.225 223.058 208.029 223.058 190.519H254.764V222.225Z" fill="white"/>
<path d="M191.391 316.519H128.094V253.222H191.391V316.519Z" fill="#F16925"/>
<path d="M254.688 316.519H191.396V253.222H254.688V316.519Z" fill="#F16925"/>
<path d="M254.688 379.823H191.396V316.525H254.688V379.823Z" fill="#F16925"/>
<path d="M191.391 379.823H128.094V316.525H191.391V379.823Z" fill="#F16925"/>
<path d="M128.094 366.525V379.823H254.683V253.228H250.071C228.768 253.886 208.786 259.802 191.385 269.736C171.856 280.871 155.577 297.064 144.327 316.525C135.658 331.517 129.976 348.454 128.088 366.525H128.094Z" fill="#1B1C1C"/>
<path d="M191.14 379.823H254.683V316.897C254.477 316.897 254.271 316.897 254.065 316.897C221.215 316.897 194.241 342.074 191.391 374.192C191.225 376.052 191.14 377.929 191.14 379.828V379.823Z" fill="white"/>
<path d="M191.139 63.5411V0.243561L254.436 0.243561V63.5411L191.139 63.5411Z" fill="#F16925"/>
<path d="M254.437 126.833H191.14V63.541H254.437V126.833Z" fill="#F16925"/>
<path d="M191.139 126.833H127.842V63.541H191.139V126.833Z" fill="#F16925"/>
<path d="M191.139 63.541H127.842V0.243542H191.139V63.541Z" fill="#F16925"/>
<path d="M141.14 0.24354H127.842V126.833H254.437V122.221C253.779 100.918 247.862 80.9361 237.929 63.5353C226.794 44.0059 210.6 27.7266 191.139 16.477C176.147 7.80811 159.21 2.12609 141.14 0.237812V0.24354Z" fill="#1B1C1C"/>
<path d="M127.842 63.2893V126.833H190.767C190.767 126.627 190.767 126.421 190.767 126.215C190.767 93.3645 165.59 66.3906 133.472 63.541C131.613 63.3751 129.736 63.2893 127.836 63.2893H127.842Z" fill="white"/>
</g>
<g clip-path="url(#clip2_53_1626)">
<path d="M635.394 62.1369L635.394 126.112L571.419 126.112L571.419 62.1369L635.394 62.1369Z" fill="#B7B7B8"/>
<path d="M603.406 62.1369L603.406 126.112L571.303 126.112L571.303 62.1369L603.406 62.1369Z" fill="#F16925"/>
<path d="M603.336 110.196C612.306 110.231 619.599 102.99 619.64 94.026C619.674 85.0561 612.434 77.7634 603.469 77.7229L603.342 110.196L603.336 110.196Z" fill="#1B1C1C"/>
<path d="M603.337 110.196C594.367 110.161 587.132 102.863 587.167 93.893C587.201 84.9231 594.5 77.6882 603.47 77.7229" fill="white"/>
<path d="M507.334 -2.00001L571.482 -2L571.482 62.1369L507.334 62.1369L507.334 -2.00001Z" fill="#B7B7B8"/>
<path d="M507.328 -2L539.408 -2L539.408 62.1369L507.328 62.1369L507.328 -2Z" fill="#F16925"/>
<path d="M539.339 46.1807C548.332 46.2154 555.648 38.9574 555.682 29.9643C555.717 20.9713 548.459 13.6554 539.466 13.6207L539.339 46.1749L539.339 46.1807Z" fill="#1B1C1C"/>
<path d="M539.339 46.1807C530.346 46.146 523.088 38.8301 523.122 29.8371C523.157 20.844 530.479 13.586 539.466 13.6207L539.339 46.1749L539.339 46.1807Z" fill="white"/>
<path d="M571.309 62.1369L571.309 126.112L507.334 126.112L507.334 62.1369L571.309 62.1369Z" fill="#F16925"/>
<path d="M635.457 -1.99999L635.457 61.9749L571.482 61.9749L571.482 -2L635.457 -1.99999Z" fill="#F16925"/>
<path d="M508.768 62.16C508.768 79.6892 522.793 93.9046 540.091 93.9046C557.389 93.9046 571.413 79.695 571.413 62.16" fill="white"/>
<path d="M523.584 61.9402C523.55 70.9102 530.79 78.2029 539.754 78.2434C548.724 78.2781 556.017 71.0374 556.058 62.0733" fill="#1B1C1C"/>
<path d="M571.418 126.314C571.418 109.016 557.393 94.9919 540.096 94.9918C522.798 94.9918 508.773 109.016 508.773 126.314" fill="#1B1C1C"/>
<path d="M587.734 62.0096C587.768 53.0397 595.067 45.8048 604.037 45.8395C613.007 45.8742 620.242 53.1727 620.207 62.1427" fill="white"/>
<path d="M635.457 30.0453C617.76 30.0453 603.412 15.6969 603.412 -2L635.457 -2L635.457 30.0453Z" fill="white"/>
<path d="M603.527 -2C603.527 15.6969 589.179 30.0453 571.482 30.0453L571.482 -2L603.527 -2Z" fill="white"/>
<path d="M571.39 189.711L507.415 189.711L507.415 125.736L571.39 125.736L571.39 189.711Z" fill="#F16925"/>
<path d="M571.396 125.736L635.365 125.736L635.365 189.711L571.396 189.711L571.396 125.736Z" fill="#F16925"/>
<path d="M571.396 189.717L635.365 189.717L635.365 253.692L571.396 253.692L571.396 189.717Z" fill="#F16925"/>
<path d="M507.422 189.717L571.396 189.717L571.396 253.692L507.422 253.692L507.422 189.717Z" fill="#F16925"/>
<path d="M507.421 240.251L507.421 253.691L635.365 253.691L635.365 125.742L630.704 125.742C609.173 126.407 588.977 132.387 571.39 142.426C551.652 153.681 535.198 170.048 523.828 189.717C515.067 204.869 509.324 221.987 507.415 240.251L507.421 240.251Z" fill="#1B1C1C"/>
<path d="M571.142 253.692L635.365 253.692L635.365 190.093C635.157 190.093 634.949 190.093 634.741 190.093C601.539 190.093 574.276 215.539 571.396 248.001C571.228 249.88 571.142 251.777 571.142 253.697L571.142 253.692Z" fill="white"/>
<path d="M507.392 317.863L507.392 253.888L571.367 253.888L571.367 317.863L507.392 317.863Z" fill="#B7B7B8"/>
<path d="M539.379 317.863L539.379 253.888L571.482 253.888L571.482 317.863L539.379 317.863Z" fill="#F16925"/>
<path d="M539.448 269.804C530.478 269.769 523.186 277.01 523.145 285.974C523.11 294.944 530.351 302.237 539.315 302.277L539.442 269.804L539.448 269.804Z" fill="#1B1C1C"/>
<path d="M539.449 269.804C548.419 269.839 555.654 277.137 555.619 286.107C555.584 295.077 548.286 302.312 539.316 302.277" fill="white"/>
<path d="M571.303 317.863L635.451 317.863L635.451 382L571.303 382L571.303 317.863Z" fill="#B7B7B8"/>
<path d="M603.371 317.863L635.451 317.863L635.451 382L603.371 382L603.371 317.863Z" fill="#F16925"/>
<path d="M603.44 333.819C594.447 333.785 587.132 341.043 587.097 350.036C587.062 359.029 594.32 366.345 603.313 366.379L603.44 333.825L603.44 333.819Z" fill="#1B1C1C"/>
<path d="M603.441 333.819C612.434 333.854 619.692 341.17 619.657 350.163C619.622 359.156 612.301 366.414 603.313 366.379L603.441 333.825L603.441 333.819Z" fill="white"/>
<path d="M571.482 317.863L571.482 253.888L635.457 253.888L635.457 317.863L571.482 317.863Z" fill="#F16925"/>
<path d="M507.328 382.006L507.328 318.031L571.303 318.031L571.303 382.006L507.328 382.006Z" fill="#F16925"/>
<path d="M634.017 317.84C634.017 300.311 619.992 286.095 602.694 286.095C585.396 286.095 571.372 300.305 571.372 317.84" fill="white"/>
<path d="M619.2 318.06C619.235 309.09 611.994 301.797 603.03 301.757C594.06 301.722 586.767 308.963 586.727 317.927" fill="#1B1C1C"/>
<path d="M571.367 253.692C571.367 270.989 585.391 285.014 602.689 285.014C619.987 285.014 634.012 270.989 634.012 253.692" fill="#1B1C1C"/>
<path d="M555.052 317.99C555.017 326.96 547.719 334.195 538.749 334.161C529.779 334.126 522.544 326.827 522.579 317.857" fill="white"/>
<path d="M507.328 349.955C525.025 349.955 539.373 364.303 539.373 382L507.328 382L507.328 349.955Z" fill="white"/>
<path d="M539.257 382C539.257 364.303 553.606 349.955 571.303 349.955L571.303 382L539.257 382Z" fill="white"/>
<path d="M699.189 62.1542L763.164 62.1542L763.164 126.129L699.189 126.129L699.189 62.1542Z" fill="white"/>
<path d="M745.086 79.9263C732.391 67.2377 715.585 61.3561 699.461 62.3971L699.461 62.4087L762.626 125.533L762.638 125.533C763.673 109.41 757.78 92.6149 745.086 79.9263Z" fill="#1B1C1C"/>
<path d="M762.626 125.533L699.461 62.4087C698.425 78.5268 704.319 95.3273 717.013 108.016C729.707 120.704 746.514 126.58 762.626 125.533Z" fill="#F16925"/>
<path d="M699.189 126.135L635.214 126.135L635.214 62.16L699.189 62.16L699.189 126.135Z" fill="#F16925"/>
<path d="M653.292 79.9263C665.987 67.2377 682.793 61.3561 698.917 62.3971L698.917 62.4087L635.752 125.533L635.74 125.533C634.705 109.41 640.598 92.6149 653.292 79.9263Z" fill="white"/>
<path d="M635.752 125.533L698.917 62.4087C699.952 78.5268 694.059 95.3273 681.365 108.016C668.67 120.704 651.864 126.58 635.752 125.533Z" fill="#B7B7B8"/>
<path d="M699.189 62.1542L635.214 62.1542L635.214 -1.82071L699.189 -1.8207L699.189 62.1542Z" fill="#B7B7B8"/>
<path d="M653.292 44.3879C665.987 57.0765 682.793 62.9581 698.917 61.9171L698.917 61.9056L635.752 -1.21924L635.74 -1.21924C634.705 14.9046 640.598 31.6993 653.292 44.3879Z" fill="white"/>
<path d="M635.752 -1.21926L698.917 61.9055C699.952 45.7875 694.059 28.987 681.365 16.2984C668.67 3.60981 651.864 -2.26603 635.752 -1.21926Z" fill="#1B1C1C"/>
<path d="M699.189 -1.81501L763.164 -1.815L763.164 62.1599L699.189 62.1599L699.189 -1.81501Z" fill="#1B1C1C"/>
<path d="M745.086 44.3879C732.391 57.0765 715.585 62.9581 699.461 61.9171L699.461 61.9056L762.626 -1.21924L762.638 -1.21924C763.673 14.9046 757.78 31.6993 745.086 44.3879Z" fill="white"/>
<path d="M762.626 -1.21925L699.461 61.9055C698.425 45.7875 704.319 28.987 717.013 16.2984C729.707 3.60981 746.508 -2.26603 762.626 -1.21925Z" fill="#B7B7B8"/>
<path d="M635.11 125.533L763.269 125.534L763.269 253.686L635.11 253.686L635.11 125.533Z" fill="#1B1C1C"/>
<path d="M649.314 133.873C633.086 146.741 630.356 170.325 643.224 186.553C656.092 202.781 679.676 205.511 695.904 192.643" fill="white"/>
<path d="M649.314 133.873C665.542 121.005 689.133 123.735 701.995 139.963C714.862 156.191 712.133 179.781 695.905 192.643" fill="#F16925"/>
<path d="M748.371 245.346C764.894 232.86 768.167 209.345 755.681 192.816C743.195 176.294 719.68 173.02 703.151 185.506" fill="white"/>
<path d="M748.371 245.346C731.848 257.832 708.327 254.559 695.841 238.036C683.355 221.513 686.628 197.993 703.151 185.506" fill="#F16925"/>
<path d="M699.189 317.846L763.164 317.846L763.164 381.821L699.189 381.821L699.189 317.846Z" fill="white"/>
<path d="M745.086 335.618C732.391 322.929 715.585 317.048 699.461 318.089L699.461 318.1L762.626 381.225L762.638 381.225C763.673 365.101 757.78 348.307 745.086 335.618Z" fill="#1B1C1C"/>
<path d="M762.626 381.225L699.461 318.1C698.425 334.218 704.319 351.019 717.013 363.707C729.707 376.396 746.514 382.272 762.626 381.225Z" fill="#F16925"/>
<path d="M699.189 381.821L635.214 381.821L635.214 317.846L699.189 317.846L699.189 381.821Z" fill="#F16925"/>
<path d="M653.292 335.618C665.987 322.929 682.793 317.048 698.917 318.089L698.917 318.1L635.752 381.225L635.74 381.225C634.705 365.101 640.598 348.307 653.292 335.618Z" fill="white"/>
<path d="M635.752 381.225L698.917 318.1C699.952 334.218 694.059 351.019 681.365 363.707C668.67 376.396 651.864 382.272 635.752 381.225Z" fill="#B7B7B8"/>
<path d="M699.189 317.846L635.214 317.846L635.214 253.871L699.189 253.871L699.189 317.846Z" fill="#B7B7B8"/>
<path d="M653.292 300.074C665.987 312.762 682.793 318.644 698.917 317.603L698.917 317.591L635.752 254.467L635.74 254.467C634.705 270.59 640.598 287.385 653.292 300.074Z" fill="white"/>
<path d="M635.752 254.467L698.917 317.591C699.952 301.473 694.059 284.673 681.365 271.984C668.67 259.296 651.864 253.42 635.752 254.467Z" fill="#1B1C1C"/>
<path d="M699.189 253.871L763.164 253.871L763.164 317.846L699.189 317.846L699.189 253.871Z" fill="#1B1C1C"/>
<path d="M745.086 300.074C732.391 312.762 715.585 318.644 699.461 317.603L699.461 317.591L762.626 254.467L762.638 254.467C763.673 270.59 757.78 287.385 745.086 300.074Z" fill="white"/>
<path d="M762.626 254.467L699.461 317.591C698.425 301.473 704.319 284.673 717.013 271.984C729.707 259.296 746.514 253.42 762.626 254.467Z" fill="#B7B7B8"/>
<path d="M763.326 189.508L827.463 189.508L827.463 253.657L763.326 253.657L763.326 189.508Z" fill="#B7B7B8"/>
<path d="M763.326 221.583L827.463 221.583L827.463 253.663L763.326 253.663L763.326 221.583Z" fill="#F16925"/>
<path d="M763.327 125.534L827.302 125.534L827.302 189.508L763.327 189.508L763.327 125.534Z" fill="#F16925"/>
<path d="M795.372 125.534C795.372 143.23 781.024 157.579 763.327 157.579L763.327 125.534L795.372 125.534Z" fill="white"/>
<path d="M763.327 157.463C781.024 157.463 795.372 171.812 795.372 189.508L763.327 189.508L763.327 157.463Z" fill="white"/>
<path d="M763.402 62.16L827.371 62.16L827.371 126.135L763.402 126.135L763.402 62.16Z" fill="#F16925"/>
<path d="M763.402 -1.82071L827.371 -1.82071L827.371 62.1542L763.402 62.1542L763.402 -1.82071Z" fill="#F16925"/>
<path d="M891.352 11.6196L891.352 -1.82077L763.408 -1.82078L763.408 126.129L768.069 126.129C789.6 125.464 809.795 119.484 827.382 109.444C847.121 98.19 863.574 81.8232 874.944 62.1542C883.706 47.0019 889.449 29.8833 891.357 11.6196L891.352 11.6196Z" fill="#1B1C1C"/>
<path d="M827.631 -1.82069L763.407 -1.8207L763.407 61.7783C763.615 61.7783 763.824 61.7783 764.032 61.7783C797.234 61.7783 824.496 36.3318 827.376 3.87008C827.544 1.99051 827.631 0.0935808 827.631 -1.82648L827.631 -1.82069Z" fill="white"/>
<path d="M827.631 317.846L827.631 381.821L763.656 381.821L763.656 317.846L827.631 317.846Z" fill="#F16925"/>
<path d="M763.656 253.877L827.631 253.877L827.631 317.846L763.656 317.846L763.656 253.877Z" fill="#F16925"/>
<path d="M878.165 381.821L891.605 381.821L891.605 253.877L763.656 253.877L763.656 258.538C764.321 280.069 770.301 300.265 780.34 317.852C791.595 337.59 807.961 354.044 827.631 365.414C842.783 374.175 859.901 379.918 878.165 381.827L878.165 381.821Z" fill="#1B1C1C"/>
</g>
</g>
<defs>
<clipPath id="clip0_53_1626">
<rect width="764" height="381" fill="white"/>
</clipPath>
<clipPath id="clip1_53_1626">
<rect width="507.101" height="379.934" fill="white" transform="matrix(1 0 0 -1 0.949219 380)"/>
</clipPath>
<clipPath id="clip2_53_1626">
<rect width="512.528" height="384" fill="white" transform="matrix(-1 -8.74228e-08 -8.74228e-08 1 1019.86 -1.99997)"/>
</clipPath>
</defs>
</svg>
