<svg width="764" height="381" viewBox="0 0 764 381" fill="none" xmlns="http://www.w3.org/2000/svg">
<g clip-path="url(#clip0_53_1940)">
<g clip-path="url(#clip1_53_1940)">
<path d="M381.816 317.727V254.193H445.351V317.727H381.816Z" fill="#B7B7B8"/>
<path d="M413.584 317.727V254.193H445.466V317.727H413.584Z" fill="#90D8CA"/>
<path d="M413.653 269.999C404.745 269.964 397.502 277.155 397.462 286.058C397.428 294.966 404.618 302.208 413.521 302.248L413.647 269.999H413.653Z" fill="#1B1C1C"/>
<path d="M413.653 269.999C422.561 270.033 429.746 277.282 429.711 286.19C429.677 295.098 422.429 302.283 413.521 302.248" fill="white"/>
<path d="M508.994 381.422H445.287V317.727H508.994V381.422Z" fill="#B7B7B8"/>
<path d="M509 381.422H477.141V317.727H509V381.422Z" fill="#90D8CA"/>
<path d="M477.21 333.573C468.279 333.539 461.013 340.747 460.979 349.678C460.944 358.609 468.152 365.875 477.083 365.909L477.21 333.579V333.573Z" fill="#1B1C1C"/>
<path d="M477.209 333.573C486.14 333.608 493.349 340.873 493.314 349.805C493.28 358.736 486.008 365.944 477.083 365.909L477.209 333.579V333.573Z" fill="white"/>
<path d="M445.46 317.727V254.193H508.994V317.727H445.46Z" fill="#90D8CA"/>
<path d="M381.753 381.422V317.888H445.287V381.422H381.753Z" fill="#90D8CA"/>
<path d="M507.57 317.704C507.57 300.296 493.642 286.178 476.463 286.178C459.284 286.178 445.356 300.29 445.356 317.704" fill="white"/>
<path d="M492.855 317.922C492.89 309.014 485.699 301.772 476.796 301.732C467.888 301.697 460.646 308.888 460.605 317.79" fill="#1B1C1C"/>
<path d="M445.351 253.992C445.351 271.17 459.279 285.098 476.457 285.098C493.636 285.098 507.564 271.17 507.564 253.992" fill="#1B1C1C"/>
<path d="M429.148 317.854C429.114 326.762 421.866 333.947 412.957 333.912C404.049 333.878 396.864 326.63 396.899 317.721" fill="white"/>
<path d="M381.753 349.598C399.328 349.598 413.578 363.847 413.578 381.422H381.753V349.598Z" fill="white"/>
<path d="M413.463 381.422C413.463 363.847 427.712 349.598 445.288 349.598V381.422H413.463Z" fill="white"/>
<path d="M63.6953 381.325H0V317.618H63.6953V381.325Z" fill="#B7B7B8"/>
<path d="M63.6953 381.325H0V349.466H63.6953V381.325Z" fill="#90D8CA"/>
<path d="M47.8485 349.54C47.883 340.609 40.6749 333.344 31.7438 333.309C22.8127 333.275 15.5472 340.483 15.5127 349.414L47.8428 349.54H47.8485Z" fill="#1B1C1C"/>
<path d="M47.8487 349.54C47.8142 358.471 40.5487 365.68 31.6176 365.645C22.6864 365.611 15.4784 358.339 15.5128 349.414L47.8429 349.54H47.8487Z" fill="white"/>
<path d="M63.7009 317.796H127.235L127.235 381.331H63.7009L63.7009 317.796Z" fill="#90D8CA"/>
<path d="M127.316 317.618H63.7812V254.084H127.316V317.618Z" fill="#90D8CA"/>
<path d="M63.7188 379.9C81.1273 379.9 95.2448 365.972 95.2448 348.794C95.2448 331.615 81.133 317.687 63.7188 317.687" fill="white"/>
<path d="M63.5 365.186C72.4082 365.22 79.6507 358.029 79.6909 349.127C79.7254 340.219 72.5345 332.976 63.6321 332.936" fill="#1B1C1C"/>
<path d="M127.431 317.687C110.252 317.687 96.3242 331.615 96.3242 348.794C96.3242 365.972 110.246 379.9 127.431 379.9" fill="#1B1C1C"/>
<path d="M63.7415 270.229C72.6496 270.263 79.8347 277.511 79.8003 286.419C79.7658 295.328 72.5175 302.513 63.6094 302.478" fill="white"/>
<path d="M95.4854 317.618C95.4854 300.043 109.735 285.793 127.31 285.793V317.618H95.4854Z" fill="white"/>
<path d="M127.316 285.914C109.741 285.914 95.4912 271.664 95.4912 254.089H127.316V285.914Z" fill="white"/>
<path d="M445.38 191.032H508.914V254.566H445.38V191.032Z" fill="#90D8CA"/>
<path d="M445.373 254.566H381.845V191.032H445.373V254.566Z" fill="#90D8CA"/>
<path d="M445.373 191.026H381.845V127.491H445.373V191.026Z" fill="#90D8CA"/>
<path d="M508.908 191.026H445.373V127.491H508.908V191.026Z" fill="#90D8CA"/>
<path d="M508.908 140.839V127.491H381.845V254.56H386.474C407.857 253.9 427.913 247.961 445.379 237.99C464.982 226.814 481.322 210.559 492.614 191.026C501.315 175.978 507.018 158.977 508.914 140.839H508.908Z" fill="#1B1C1C"/>
<path d="M445.626 127.491H381.845V190.652C382.051 190.652 382.258 190.652 382.465 190.652C415.438 190.652 442.513 165.381 445.373 133.143C445.54 131.276 445.626 129.392 445.626 127.486V127.491Z" fill="white"/>
<path d="M508.937 63.7615V127.296H445.402V63.7615L508.937 63.7615Z" fill="#B7B7B8"/>
<path d="M477.169 63.7615V127.296H445.287V63.7615H477.169Z" fill="#90D8CA"/>
<path d="M477.101 111.49C486.009 111.524 493.251 104.334 493.291 95.4311C493.326 86.5229 486.135 79.2804 477.233 79.2402L477.106 111.49H477.101Z" fill="#1B1C1C"/>
<path d="M477.1 111.49C468.192 111.455 461.007 104.207 461.041 95.299C461.076 86.3908 468.324 79.2057 477.232 79.2402" fill="white"/>
<path d="M445.466 63.7615H381.759V0.0661812H445.466V63.7615Z" fill="#B7B7B8"/>
<path d="M413.618 63.7615H381.759V0.0661812H413.618V63.7615Z" fill="#90D8CA"/>
<path d="M413.549 47.9152C422.48 47.9497 429.745 40.7416 429.78 31.8105C429.814 22.8793 422.606 15.6138 413.675 15.5794L413.549 47.9095V47.9152Z" fill="#1B1C1C"/>
<path d="M413.549 47.9152C404.618 47.8807 397.41 40.6152 397.444 31.6841C397.479 22.753 404.75 15.5449 413.676 15.5793L413.549 47.9094V47.9152Z" fill="white"/>
<path d="M445.287 63.7615V127.296H381.753V63.7615L445.287 63.7615Z" fill="#90D8CA"/>
<path d="M509 0.0604439V63.5949L445.466 63.5949V0.0604439L509 0.0604439Z" fill="#90D8CA"/>
<path d="M383.183 63.7845C383.183 81.193 397.111 95.3105 414.289 95.3105C431.468 95.3105 445.396 81.1987 445.396 63.7845" fill="white"/>
<path d="M397.898 63.5662C397.863 72.4744 405.054 79.7169 413.956 79.7571C422.865 79.7916 430.107 72.6007 430.147 63.6983" fill="#1B1C1C"/>
<path d="M445.402 127.491C445.402 110.312 431.474 96.3845 414.295 96.3845C397.116 96.3845 383.188 110.312 383.188 127.491" fill="#1B1C1C"/>
<path d="M461.604 63.6352C461.639 54.727 468.887 47.5419 477.795 47.5763C486.704 47.6108 493.889 54.8591 493.854 63.7672" fill="white"/>
<path d="M508.999 31.8909C491.424 31.8909 477.175 17.6413 477.175 0.0662006H508.999V31.8909Z" fill="white"/>
<path d="M477.291 0.0662006C477.291 17.6413 463.041 31.8909 445.466 31.8909V0.0662006H477.291Z" fill="white"/>
<path d="M318.459 317.71H254.925V254.175H318.459V317.71Z" fill="white"/>
<path d="M272.879 300.06C285.486 312.661 302.176 318.503 318.189 317.469V317.457L255.459 254.767H255.447C254.419 270.78 260.272 287.459 272.879 300.06Z" fill="#1B1C1C"/>
<path d="M255.459 254.767L318.189 317.457C319.217 301.45 313.365 284.765 300.758 272.164C288.151 259.563 271.46 253.727 255.459 254.767Z" fill="#90D8CA"/>
<path d="M318.46 254.17H381.994V317.704H318.46V254.17Z" fill="#90D8CA"/>
<path d="M364.04 300.06C351.433 312.661 334.742 318.503 318.729 317.469V317.457L381.46 254.767H381.471C382.499 270.78 376.647 287.459 364.04 300.06Z" fill="white"/>
<path d="M381.46 254.767L318.73 317.457C317.701 301.45 323.554 284.765 336.161 272.164C348.768 259.563 365.459 253.727 381.46 254.767Z" fill="#B7B7B8"/>
<path d="M318.46 317.71H381.994V381.244H318.46V317.71Z" fill="#B7B7B8"/>
<path d="M364.04 335.354C351.433 322.753 334.742 316.912 318.729 317.945V317.957L381.46 380.647H381.471C382.499 364.634 376.647 347.955 364.04 335.354Z" fill="white"/>
<path d="M381.46 380.647L318.73 317.957C317.701 333.964 323.554 350.649 336.161 363.25C348.768 375.851 365.459 381.687 381.46 380.647Z" fill="#1B1C1C"/>
<path d="M318.459 381.239H254.925V317.704H318.459V381.239Z" fill="#1B1C1C"/>
<path d="M272.879 335.354C285.486 322.753 302.176 316.912 318.189 317.945V317.957L255.459 380.647H255.447C254.419 364.634 260.272 347.955 272.879 335.354Z" fill="white"/>
<path d="M255.459 380.647L318.189 317.957C319.217 333.964 313.365 350.649 300.758 363.25C288.151 375.851 271.466 381.687 255.459 380.647Z" fill="#B7B7B8"/>
<path d="M382.097 254.767H254.821V127.497H382.097V254.767Z" fill="#1B1C1C"/>
<path d="M367.991 246.485C384.107 233.706 386.818 210.284 374.039 194.167C361.26 178.051 337.838 175.34 321.722 188.12" fill="white"/>
<path d="M367.991 246.485C351.874 259.264 328.447 256.553 315.673 240.437C302.894 224.321 305.605 200.893 321.721 188.12" fill="#90D8CA"/>
<path d="M269.616 135.779C253.207 148.179 249.956 171.532 262.356 187.947C274.757 204.356 298.11 207.607 314.525 195.207" fill="white"/>
<path d="M269.616 135.779C286.025 123.379 309.384 126.63 321.784 143.039C334.185 159.448 330.934 182.807 314.525 195.207" fill="#90D8CA"/>
<path d="M318.459 63.7787H254.925V0.244251H318.459V63.7787Z" fill="white"/>
<path d="M272.879 46.129C285.486 58.7302 302.176 64.5714 318.189 63.5375V63.526L255.459 0.835811H255.447C254.419 16.8487 260.272 33.5278 272.879 46.129Z" fill="#1B1C1C"/>
<path d="M255.459 0.835813L318.189 63.526C319.217 47.5189 313.365 30.8341 300.758 18.2329C288.151 5.63165 271.46 -0.203759 255.459 0.835813Z" fill="#90D8CA"/>
<path d="M318.46 0.244263L381.994 0.244263V63.7788L318.46 63.7788V0.244263Z" fill="#90D8CA"/>
<path d="M364.04 46.129C351.433 58.7302 334.742 64.5714 318.729 63.5375V63.526L381.46 0.835811H381.471C382.499 16.8487 376.647 33.5278 364.04 46.129Z" fill="white"/>
<path d="M381.46 0.835813L318.73 63.526C317.701 47.5189 323.554 30.8341 336.161 18.2329C348.768 5.63165 365.459 -0.203759 381.46 0.835813Z" fill="#B7B7B8"/>
<path d="M318.46 63.7787L381.994 63.7787V127.313H318.46V63.7787Z" fill="#B7B7B8"/>
<path d="M364.04 81.4285C351.433 68.8272 334.742 62.9861 318.729 64.0199V64.0314L381.46 126.722H381.471C382.499 110.709 376.647 94.0297 364.04 81.4285Z" fill="white"/>
<path d="M381.46 126.722L318.73 64.0315C317.701 80.0386 323.554 96.7234 336.161 109.325C348.768 121.926 365.459 127.761 381.46 126.722Z" fill="#1B1C1C"/>
<path d="M318.459 127.313H254.925V63.7787H318.459V127.313Z" fill="#1B1C1C"/>
<path d="M272.879 81.4285C285.486 68.8272 302.176 62.9861 318.189 64.0199V64.0314L255.459 126.722H255.447C254.419 110.709 260.272 94.0297 272.879 81.4285Z" fill="white"/>
<path d="M255.459 126.722L318.189 64.0315C319.217 80.0386 313.365 96.7234 300.758 109.325C288.151 121.926 271.46 127.761 255.459 126.722Z" fill="#B7B7B8"/>
<path d="M63.626 63.7788L63.626 0.244263L127.16 0.244263V63.7788L63.626 63.7788Z" fill="white"/>
<path d="M81.2703 18.1984C68.6691 30.8054 62.8279 47.4959 63.8618 63.5088H63.8732L126.563 0.778397V0.766898C110.551 -0.261186 93.8715 5.59145 81.2703 18.1984Z" fill="#1B1C1C"/>
<path d="M126.569 0.778375L63.8789 63.5088C79.886 64.5368 96.5709 58.6842 109.172 46.0773C121.773 33.4703 127.609 16.7797 126.569 0.778375Z" fill="#90D8CA"/>
<path d="M127.161 63.7787V127.313H63.6266L63.6266 63.7787L127.161 63.7787Z" fill="#90D8CA"/>
<path d="M81.2703 109.359C68.6691 96.7521 62.8279 80.0615 63.8618 64.0487H63.8732L126.563 126.779V126.791C110.551 127.819 93.8715 121.966 81.2703 109.359Z" fill="white"/>
<path d="M126.569 126.779L63.8789 64.0487C79.886 63.0206 96.5709 68.8732 109.172 81.4802C121.773 94.0871 127.609 110.778 126.569 126.779Z" fill="#B7B7B8"/>
<path d="M63.626 0.479725L63.626 64.0142H0.0914803L0.0914803 0.479725L63.626 0.479725Z" fill="#B7B7B8"/>
<path d="M45.9768 46.06C58.578 33.4531 64.4191 16.7625 63.3853 0.749658H63.3738L0.683594 63.4801V63.4916C16.6964 64.5196 33.3755 58.667 45.9768 46.06Z" fill="white"/>
<path d="M0.683373 63.48L63.3736 0.749656C47.3665 -0.278429 30.6816 5.57417 18.0804 18.1811C5.47919 30.7881 -0.356199 47.4787 0.683373 63.48Z" fill="#1B1C1C"/>
<path d="M191.069 254.704H127.534V191.169H191.069V254.704Z" fill="#B7B7B8"/>
<path d="M191.069 222.937H127.534V191.054H191.069V222.937Z" fill="#90D8CA"/>
<path d="M143.34 222.873C143.306 231.782 150.496 239.024 159.399 239.064C168.307 239.099 175.549 231.908 175.59 223.006L143.34 222.879V222.873Z" fill="#1B1C1C"/>
<path d="M143.34 222.873C143.374 213.965 150.623 206.78 159.531 206.815C168.439 206.849 175.624 214.097 175.59 223.006" fill="white"/>
<path d="M254.764 191.233H191.068V127.526H254.764V191.233Z" fill="#B7B7B8"/>
<path d="M254.764 159.379H191.068V127.52H254.764V159.379Z" fill="#90D8CA"/>
<path d="M206.914 159.316C206.88 168.247 214.088 175.513 223.019 175.547C231.95 175.582 239.216 168.373 239.25 159.442L206.92 159.316H206.914Z" fill="#1B1C1C"/>
<path d="M206.915 159.316C206.95 150.385 214.215 143.177 223.146 143.211C232.077 143.246 239.285 150.517 239.251 159.442L206.921 159.316H206.915Z" fill="white"/>
<path d="M191.069 191.054H127.534V127.52H191.069V191.054Z" fill="#90D8CA"/>
<path d="M254.764 254.767H191.229V191.233H254.764V254.767Z" fill="#90D8CA"/>
<path d="M191.046 128.95C173.637 128.95 159.52 142.878 159.52 160.057C159.52 177.236 173.631 191.164 191.046 191.164" fill="white"/>
<path d="M191.264 143.665C182.356 143.63 175.114 150.821 175.073 159.724C175.039 168.632 182.23 175.874 191.132 175.915" fill="#1B1C1C"/>
<path d="M127.333 191.169C144.512 191.169 158.44 177.241 158.44 160.063C158.44 142.884 144.512 128.956 127.333 128.956" fill="#1B1C1C"/>
<path d="M191.195 207.372C200.103 207.406 207.288 214.654 207.253 223.563C207.219 232.471 199.971 239.656 191.062 239.621" fill="white"/>
<path d="M222.939 254.767C222.939 237.192 237.189 222.942 254.764 222.942V254.767H222.939Z" fill="white"/>
<path d="M254.764 223.057C237.189 223.057 222.939 208.808 222.939 191.233H254.764V223.057Z" fill="white"/>
<path d="M191.155 317.704H127.62V254.17H191.155V317.704Z" fill="#90D8CA"/>
<path d="M254.689 317.704H191.16V254.17H254.689V317.704Z" fill="#90D8CA"/>
<path d="M254.689 381.244H191.16V317.71H254.689V381.244Z" fill="#90D8CA"/>
<path d="M191.155 381.244H127.62V317.71H191.155V381.244Z" fill="#90D8CA"/>
<path d="M127.62 367.897V381.244H254.683V254.175H250.054C228.671 254.836 208.615 260.775 191.149 270.745C171.546 281.922 155.206 298.176 143.914 317.71C135.213 332.758 129.51 349.759 127.614 367.897H127.62Z" fill="#1B1C1C"/>
<path d="M190.901 381.244H254.683V318.083C254.476 318.083 254.269 318.083 254.063 318.083C221.089 318.083 194.014 343.355 191.154 375.593C190.988 377.459 190.901 379.343 190.901 381.25V381.244Z" fill="white"/>
<path d="M190.901 63.7787V0.244232L254.436 0.244232V63.7787L190.901 63.7787Z" fill="#90D8CA"/>
<path d="M254.436 127.307H190.901V63.7787H254.436V127.307Z" fill="#90D8CA"/>
<path d="M190.902 127.307H127.367V63.7787H190.902V127.307Z" fill="#90D8CA"/>
<path d="M190.902 63.7787H127.367V0.244221H190.902V63.7787Z" fill="#90D8CA"/>
<path d="M140.715 0.244223H127.367V127.307H254.436V122.678C253.776 101.295 247.837 81.2389 237.866 63.773C226.689 44.1704 210.435 27.8302 190.902 16.5385C175.854 7.83712 158.853 2.13383 140.715 0.238474V0.244223Z" fill="#1B1C1C"/>
<path d="M127.367 63.526V127.307H190.528C190.528 127.101 190.528 126.894 190.528 126.687C190.528 93.7138 165.257 66.639 133.019 63.7787C131.152 63.6122 129.268 63.526 127.361 63.526H127.367Z" fill="white"/>
</g>
<g clip-path="url(#clip2_53_1940)">
<path d="M636.275 63.6953L636.275 127.23L572.741 127.23L572.741 63.6953L636.275 63.6953Z" fill="#B7B7B8"/>
<path d="M604.508 63.6953L604.508 127.23L572.626 127.23L572.626 63.6953L604.508 63.6953Z" fill="#90D8CA"/>
<path d="M604.439 111.424C613.347 111.458 620.59 104.267 620.63 95.3649C620.664 86.4568 613.473 79.2142 604.571 79.174L604.445 111.424L604.439 111.424Z" fill="#1B1C1C"/>
<path d="M604.439 111.424C595.531 111.389 588.346 104.141 588.38 95.2328C588.415 86.3247 595.663 79.1396 604.571 79.174" fill="white"/>
<path d="M509.098 -5.56943e-06L572.805 0L572.805 63.6953L509.098 63.6953L509.098 -5.56943e-06Z" fill="#B7B7B8"/>
<path d="M509.092 -2.78521e-06L540.951 0L540.951 63.6953L509.092 63.6953L509.092 -2.78521e-06Z" fill="#90D8CA"/>
<path d="M540.882 47.849C549.813 47.8835 557.079 40.6754 557.113 31.7443C557.148 22.8131 549.94 15.5476 541.008 15.5132L540.882 47.8433L540.882 47.849Z" fill="#1B1C1C"/>
<path d="M540.882 47.849C531.951 47.8145 524.743 40.549 524.778 31.6179C524.812 22.6868 532.083 15.4787 541.009 15.5132L540.882 47.8433L540.882 47.849Z" fill="white"/>
<path d="M572.632 63.6953L572.632 127.23L509.097 127.23L509.097 63.6953L572.632 63.6953Z" fill="#90D8CA"/>
<path d="M636.339 1.90735e-05L636.339 63.5345L572.804 63.5345L572.804 1.35191e-05L636.339 1.90735e-05Z" fill="#90D8CA"/>
<path d="M510.522 63.7183C510.522 81.1268 524.45 95.2443 541.629 95.2443C558.807 95.2443 572.735 81.1326 572.735 63.7183" fill="white"/>
<path d="M525.237 63.5C525.202 72.4082 532.393 79.6507 541.295 79.6909C550.204 79.7254 557.446 72.5345 557.486 63.6321" fill="#1B1C1C"/>
<path d="M572.741 127.431C572.741 110.252 558.813 96.3241 541.634 96.3241C524.456 96.3241 510.528 110.252 510.528 127.431" fill="#1B1C1C"/>
<path d="M588.944 63.569C588.978 54.6608 596.226 47.4757 605.134 47.5102C614.043 47.5446 621.228 54.7929 621.193 63.7011" fill="white"/>
<path d="M636.339 31.8247C618.764 31.8247 604.514 17.5751 604.514 -2.7822e-06L636.339 0L636.339 31.8247Z" fill="white"/>
<path d="M604.629 0C604.629 17.5751 590.379 31.8247 572.804 31.8247L572.804 -2.7822e-06L604.629 0Z" fill="white"/>
<path d="M572.712 190.391L509.178 190.391L509.178 126.856L572.712 126.856L572.712 190.391Z" fill="#90D8CA"/>
<path d="M572.718 126.856L636.247 126.856L636.247 190.391L572.718 190.391L572.718 126.856Z" fill="#90D8CA"/>
<path d="M572.718 190.397L636.247 190.397L636.247 253.931L572.718 253.931L572.718 190.397Z" fill="#90D8CA"/>
<path d="M509.184 190.397L572.719 190.397L572.719 253.931L509.184 253.931L509.184 190.397Z" fill="#90D8CA"/>
<path d="M509.184 240.583L509.184 253.931L636.247 253.931L636.247 126.862L631.618 126.862C610.235 127.523 590.179 133.461 572.713 143.432C553.11 154.609 536.77 170.863 525.478 190.397C516.777 205.445 511.073 222.445 509.178 240.583L509.184 240.583Z" fill="#1B1C1C"/>
<path d="M572.466 253.931L636.247 253.931L636.247 190.77C636.04 190.77 635.834 190.77 635.627 190.77C602.653 190.77 575.579 216.041 572.718 248.28C572.552 250.146 572.466 252.03 572.466 253.937L572.466 253.931Z" fill="white"/>
<path d="M509.155 317.661L509.155 254.126L572.69 254.126L572.69 317.661L509.155 317.661Z" fill="#B7B7B8"/>
<path d="M540.923 317.661L540.923 254.126L572.805 254.126L572.805 317.661L540.923 317.661Z" fill="#90D8CA"/>
<path d="M540.991 269.933C532.083 269.898 524.841 277.089 524.8 285.991C524.766 294.9 531.957 302.142 540.859 302.182L540.985 269.933L540.991 269.933Z" fill="#1B1C1C"/>
<path d="M540.992 269.933C549.9 269.967 557.085 277.215 557.051 286.123C557.016 295.032 549.768 302.217 540.86 302.182" fill="white"/>
<path d="M572.626 317.661L636.333 317.661L636.333 381.356L572.626 381.356L572.626 317.661Z" fill="#B7B7B8"/>
<path d="M604.474 317.661L636.333 317.661L636.333 381.356L604.474 381.356L604.474 317.661Z" fill="#90D8CA"/>
<path d="M604.543 333.507C595.612 333.473 588.346 340.681 588.312 349.612C588.277 358.543 595.485 365.809 604.417 365.843L604.543 333.513L604.543 333.507Z" fill="#1B1C1C"/>
<path d="M604.543 333.507C613.474 333.542 620.682 340.807 620.647 349.738C620.613 358.67 613.342 365.878 604.416 365.843L604.543 333.513L604.543 333.507Z" fill="white"/>
<path d="M572.805 317.661L572.805 254.126L636.339 254.126L636.339 317.661L572.805 317.661Z" fill="#90D8CA"/>
<path d="M509.092 381.362L509.092 317.828L572.626 317.828L572.626 381.362L509.092 381.362Z" fill="#90D8CA"/>
<path d="M634.909 317.638C634.909 300.229 620.981 286.112 603.802 286.112C586.624 286.112 572.696 300.224 572.696 317.638" fill="white"/>
<path d="M620.194 317.856C620.229 308.948 613.038 301.706 604.135 301.665C595.227 301.631 587.985 308.822 587.945 317.724" fill="#1B1C1C"/>
<path d="M572.69 253.931C572.69 271.11 586.618 285.038 603.797 285.038C620.975 285.038 634.903 271.11 634.903 253.931" fill="#1B1C1C"/>
<path d="M556.487 317.787C556.453 326.695 549.205 333.881 540.296 333.846C531.388 333.812 524.203 326.563 524.238 317.655" fill="white"/>
<path d="M509.092 349.532C526.667 349.532 540.917 363.781 540.917 381.356L509.092 381.356L509.092 349.532Z" fill="white"/>
<path d="M540.801 381.356C540.801 363.781 555.051 349.532 572.626 349.532L572.626 381.356L540.801 381.356Z" fill="white"/>
<path d="M699.633 63.7125L763.167 63.7126L763.167 127.247L699.633 127.247L699.633 63.7125Z" fill="white"/>
<path d="M745.213 81.3623C732.606 68.7611 715.915 62.92 699.903 63.9538L699.903 63.9653L762.633 126.656L762.644 126.656C763.673 110.643 757.82 93.9635 745.213 81.3623Z" fill="#1B1C1C"/>
<path d="M762.633 126.655L699.902 63.9653C698.874 79.9724 704.727 96.6572 717.334 109.258C729.941 121.86 746.631 127.695 762.633 126.655Z" fill="#90D8CA"/>
<path d="M699.632 127.253L636.098 127.253L636.098 63.7183L699.632 63.7183L699.632 127.253Z" fill="#90D8CA"/>
<path d="M654.052 81.3623C666.659 68.7611 683.349 62.9199 699.362 63.9538L699.362 63.9653L636.632 126.655L636.62 126.655C635.592 110.643 641.445 93.9635 654.052 81.3623Z" fill="white"/>
<path d="M636.632 126.655L699.362 63.9653C700.39 79.9724 694.538 96.6572 681.931 109.258C669.324 121.86 652.633 127.695 636.632 126.655Z" fill="#B7B7B8"/>
<path d="M699.632 63.7126L636.098 63.7126L636.098 0.178062L699.632 0.178068L699.632 63.7126Z" fill="#B7B7B8"/>
<path d="M654.052 46.0686C666.659 58.6698 683.349 64.5109 699.362 63.4771L699.362 63.4656L636.632 0.775385L636.62 0.775385C635.592 16.7882 641.445 33.4673 654.052 46.0686Z" fill="white"/>
<path d="M636.632 0.775378L699.362 63.4656C700.39 47.4585 694.538 30.7736 681.931 18.1724C669.324 5.5712 652.633 -0.264192 636.632 0.775378Z" fill="#1B1C1C"/>
<path d="M699.633 0.183771L763.167 0.183777L763.167 63.7183L699.633 63.7183L699.633 0.183771Z" fill="#1B1C1C"/>
<path d="M745.213 46.0686C732.606 58.6698 715.915 64.5109 699.903 63.4771L699.903 63.4656L762.633 0.775391L762.645 0.775391C763.673 16.7882 757.82 33.4673 745.213 46.0686Z" fill="white"/>
<path d="M762.633 0.775384L699.902 63.4656C698.874 47.4585 704.727 30.7736 717.334 18.1724C729.941 5.5712 746.626 -0.26419 762.633 0.775384Z" fill="#B7B7B8"/>
<path d="M635.995 126.655L763.271 126.655L763.27 253.925L635.995 253.925L635.995 126.655Z" fill="#1B1C1C"/>
<path d="M650.101 134.938C633.984 147.717 631.273 171.139 644.053 187.255C656.832 203.371 680.254 206.082 696.37 193.303" fill="white"/>
<path d="M650.101 134.938C666.217 122.158 689.645 124.869 702.419 140.985C715.198 157.102 712.487 180.529 696.371 193.303" fill="#90D8CA"/>
<path d="M748.476 245.643C764.885 233.243 768.136 209.89 755.735 193.475C743.335 177.066 719.982 173.815 703.567 186.215" fill="white"/>
<path d="M748.476 245.643C732.066 258.044 708.708 254.793 696.307 238.384C683.907 221.974 687.158 198.616 703.567 186.215" fill="#90D8CA"/>
<path d="M699.633 317.644L763.167 317.644L763.167 381.178L699.633 381.178L699.633 317.644Z" fill="white"/>
<path d="M745.213 335.294C732.606 322.692 715.915 316.851 699.903 317.885L699.903 317.896L762.633 380.587L762.644 380.587C763.673 364.574 757.82 347.895 745.213 335.294Z" fill="#1B1C1C"/>
<path d="M762.633 380.587L699.902 317.896C698.874 333.904 704.727 350.588 717.334 363.19C729.941 375.791 746.631 381.626 762.633 380.587Z" fill="#90D8CA"/>
<path d="M699.632 381.178L636.098 381.178L636.098 317.644L699.632 317.644L699.632 381.178Z" fill="#90D8CA"/>
<path d="M654.052 335.294C666.659 322.692 683.349 316.851 699.362 317.885L699.362 317.896L636.632 380.587L636.62 380.587C635.592 364.574 641.445 347.895 654.052 335.294Z" fill="white"/>
<path d="M636.632 380.587L699.362 317.896C700.39 333.904 694.538 350.588 681.931 363.19C669.324 375.791 652.633 381.626 636.632 380.587Z" fill="#B7B7B8"/>
<path d="M699.632 317.644L636.098 317.644L636.098 254.109L699.632 254.109L699.632 317.644Z" fill="#B7B7B8"/>
<path d="M654.052 299.994C666.659 312.595 683.349 318.436 699.362 317.403L699.362 317.391L636.632 254.701L636.62 254.701C635.592 270.714 641.445 287.393 654.052 299.994Z" fill="white"/>
<path d="M636.632 254.701L699.362 317.391C700.39 301.384 694.538 284.699 681.931 272.098C669.324 259.497 652.633 253.661 636.632 254.701Z" fill="#1B1C1C"/>
<path d="M699.633 254.109L763.167 254.109L763.167 317.644L699.633 317.644L699.633 254.109Z" fill="#1B1C1C"/>
<path d="M745.213 299.994C732.606 312.595 715.915 318.436 699.903 317.403L699.903 317.391L762.633 254.701L762.645 254.701C763.673 270.714 757.82 287.393 745.213 299.994Z" fill="white"/>
<path d="M762.633 254.701L699.902 317.391C698.874 301.384 704.727 284.699 717.334 272.098C729.941 259.497 746.631 253.661 762.633 254.701Z" fill="#B7B7B8"/>
<path d="M763.328 190.19L827.023 190.19L827.023 253.897L763.328 253.897L763.328 190.19Z" fill="#B7B7B8"/>
<path d="M763.328 222.043L827.023 222.043L827.023 253.903L763.328 253.903L763.328 222.043Z" fill="#90D8CA"/>
<path d="M763.328 126.655L826.862 126.655L826.862 190.19L763.328 190.19L763.328 126.655Z" fill="#90D8CA"/>
<path d="M795.152 126.655C795.152 144.231 780.903 158.48 763.328 158.48L763.328 126.655L795.152 126.655Z" fill="white"/>
<path d="M763.328 158.365C780.903 158.365 795.152 172.615 795.152 190.19L763.328 190.19L763.328 158.365Z" fill="white"/>
<path d="M763.403 63.7183L826.932 63.7183L826.932 127.253L763.403 127.253L763.403 63.7183Z" fill="#90D8CA"/>
<path d="M763.403 0.178065L826.932 0.17807L826.932 63.7126L763.403 63.7126L763.403 0.178065Z" fill="#90D8CA"/>
<path d="M890.472 13.5259L890.472 0.17804L763.409 0.178028L763.409 127.247L768.038 127.247C789.421 126.587 809.477 120.648 826.943 110.677C846.546 99.5002 862.886 83.2461 874.178 63.7125C882.879 48.6646 888.582 31.6639 890.478 13.5259L890.472 13.5259Z" fill="#1B1C1C"/>
<path d="M827.19 0.178076L763.409 0.178071L763.409 63.3392C763.616 63.3392 763.822 63.3392 764.029 63.3392C797.003 63.3392 824.077 38.0679 826.938 5.82967C827.104 3.96304 827.19 2.07917 827.19 0.172333L827.19 0.178076Z" fill="white"/>
<path d="M827.19 317.644L827.19 381.178L763.656 381.178L763.656 317.644L827.19 317.644Z" fill="#90D8CA"/>
<path d="M763.656 254.115L827.19 254.115L827.19 317.644L763.656 317.644L763.656 254.115Z" fill="#90D8CA"/>
<path d="M877.377 381.178L890.725 381.178L890.725 254.115L763.656 254.115L763.656 258.744C764.316 280.127 770.255 300.184 780.226 317.65C791.402 337.252 807.656 353.592 827.19 364.884C842.238 373.585 859.239 379.289 877.377 381.184L877.377 381.178Z" fill="#1B1C1C"/>
</g>
</g>
<defs>
<clipPath id="clip0_53_1940">
<rect width="764" height="381" fill="white"/>
</clipPath>
<clipPath id="clip1_53_1940">
<rect width="509" height="381.356" fill="white" transform="matrix(1 0 0 -1 0 381.422)"/>
</clipPath>
<clipPath id="clip2_53_1940">
<rect width="509" height="381.356" fill="white" transform="matrix(-1 -8.74228e-08 -8.74228e-08 1 1018.09 3.05176e-05)"/>
</clipPath>
</defs>
</svg>
