<svg width="158" height="72" viewBox="0 0 158 72" fill="none" xmlns="http://www.w3.org/2000/svg">
<g clip-path="url(#clip0_61_2773)">
<path d="M28.987 43.3161C27.1155 45.0386 25.3283 46.8015 23.3981 48.3807C22.9503 48.748 21.9742 48.6672 21.299 48.524C18.5026 47.9327 15.8788 49.3871 15.1118 52.0608C14.3265 54.8007 15.732 57.5221 18.3632 58.3705C21.0421 59.2336 23.9559 57.9739 24.7008 55.2708C25.0568 53.9816 24.8182 52.3767 24.3852 51.0728C24.0586 50.0959 24.0109 49.5817 24.7595 48.8839C26.187 47.5507 27.4971 46.089 28.9357 44.7705C29.288 44.4473 30.121 44.1755 30.4476 44.3665C34.6274 46.7978 38.4843 46.2469 42.2751 43.1398C48.4072 49.0565 54.543 54.9769 61.0237 61.2316C58.6641 63.0826 56.6091 64.9851 54.2861 66.4652C37.31 77.285 14.9283 71.7613 5.21824 54.1102C-0.297358 44.0763 -0.899193 33.4622 3.86778 22.8921C5.30264 19.7078 7.40906 16.8027 9.40172 13.9049C10.6017 12.1567 11.0678 12.2338 12.5063 13.736C17.7026 19.1606 22.888 24.5925 28.0366 30.0612C28.3595 30.4028 28.6458 31.2585 28.4549 31.5413C25.8604 35.3756 26.2274 39.1145 28.987 43.3161Z" fill="white"/>
<path d="M42.3377 30.9647C40.0404 28.9447 37.7945 27.931 35.1634 28.144C34.1395 28.2248 32.8808 28.2138 32.1689 28.7904C30.1285 30.4358 29.0643 29.2789 27.7248 27.8319C23.7468 23.5311 19.6734 19.3185 15.6147 15.0949C14.4808 13.9159 13.2661 12.8215 12.0918 11.6903C23.7615 -0.503171 46.9725 -1.49113 60.3524 12.7994C54.3744 18.83 48.3854 24.868 42.3377 30.9684V30.9647Z" fill="white"/>
<path d="M91.743 38.1228C92.5834 38.9308 93.3614 39.6764 94.11 40.3999C91.8347 43.4776 87.3834 44.3628 83.8825 42.6109C80.488 40.9104 78.9907 37.0908 80.2127 33.2565C81.2953 29.8629 84.9393 27.6886 88.7779 28.1514C92.3118 28.5774 95.0054 31.5156 95.2182 35.0451C95.31 36.5582 94.954 37.2707 93.2366 37.1863C90.5614 37.0541 87.8714 37.1606 85.1889 37.1753C85.0788 37.1753 84.9687 37.2487 84.8549 37.2928C85.5155 39.6764 87.6182 39.9702 91.7357 38.1265L91.743 38.1228ZM84.8549 33.8037H90.2714C89.0604 31.6405 86.4256 31.6331 84.8549 33.8037Z" fill="white"/>
<path d="M130.327 37.1569C131.513 39.1732 133.333 39.7792 135.377 39.1071C137.092 38.5415 138.556 39.0324 139.77 40.5799C137.887 43.2316 133.792 44.2636 130.386 42.9414C126.962 41.6156 125.226 38.4827 125.74 34.5566C126.184 31.1593 128.926 28.5627 132.504 28.1514C137.032 27.6299 140.882 30.8141 141.065 35.1259C141.127 36.5839 140.746 37.2377 139.157 37.1826C136.316 37.0834 133.469 37.1532 130.331 37.1532L130.327 37.1569ZM130.691 33.8H136.247C134.676 31.6111 131.96 31.6662 130.691 33.8Z" fill="white"/>
<path d="M158.001 35.9669C157.916 40.3962 154.415 43.6503 149.861 43.5364C145.314 43.4226 141.898 40.0143 141.964 35.6621C142.03 31.3834 145.678 28.0081 150.169 28.0706C154.661 28.133 158.085 31.5817 158.001 35.9669ZM149.971 39.1769C151.975 39.1842 153.303 37.8914 153.344 35.9008C153.384 33.8294 152.008 32.4007 149.986 32.4117C148.078 32.4228 146.716 33.8368 146.712 35.8053C146.712 37.8143 148.019 39.1695 149.971 39.1806V39.1769Z" fill="white"/>
<path d="M110.859 43.1287C109.574 43.1287 108.404 43.2683 107.299 43.0589C106.859 42.9745 106.283 42.1334 106.257 41.6119C106.151 39.5442 106.231 37.4691 106.25 35.394C106.268 33.4548 105.567 32.4815 104.081 32.4081C102.485 32.3309 101.468 33.4621 101.442 35.416C101.417 37.4287 101.376 39.445 101.457 41.454C101.508 42.7468 101.017 43.2169 99.758 43.1397C96.7011 42.9451 96.7268 43.9147 96.7671 40.0951C96.8038 36.7419 96.8112 33.385 96.7451 30.0318C96.7231 28.9226 97.0681 28.3717 98.1836 28.5517C99.3066 28.7317 100.408 29.0659 101.53 29.2201C101.883 29.2679 102.297 28.9814 102.668 28.8051C106.708 26.899 110.661 29.1797 110.896 33.6531C111.039 36.3893 110.965 39.1402 110.98 41.8837C110.98 42.1812 110.925 42.4787 110.863 43.1251L110.859 43.1287Z" fill="white"/>
<path d="M120.76 38.6039C119.765 38.1779 119.204 37.9024 118.62 37.6931C117.589 37.3185 116.51 37.0651 115.515 36.6133C114.026 35.9375 113.075 34.7513 113.013 33.0728C112.95 31.3687 113.648 29.9951 115.149 29.0879C117.501 27.6666 119.882 27.74 122.301 28.908C123.578 29.525 124.132 30.2779 122.943 31.5156C122.528 31.949 122.198 32.4631 121.952 32.7863C120.444 32.5807 119.097 32.3934 117.747 32.2097C117.692 32.4668 117.633 32.7239 117.578 32.9847C118.495 33.3115 119.409 33.6494 120.33 33.9616C123.772 35.1222 125.185 36.7823 124.822 39.265C124.462 41.7404 122.286 43.316 118.983 43.496C116.855 43.6099 114.859 43.2573 113.093 41.9535C112.132 41.2446 111.769 40.5909 112.862 39.6433C113.446 39.1402 113.853 38.4313 114.337 37.8216C116.396 39.1769 118.198 40.0326 120.756 38.6076L120.76 38.6039Z" fill="white"/>
<path d="M79.4721 31.0969C78.584 31.9269 77.6702 32.7863 76.7565 33.6384C73.5968 32.0077 72.1253 32.0004 70.8445 33.598C69.8574 34.8284 69.8831 36.8117 70.8959 38.0126C72.184 39.5368 73.8867 39.5074 76.8299 37.8106C77.6335 38.7068 78.4739 39.647 79.3289 40.5982C77.7766 42.9892 74.3675 44.1093 71.1161 43.2426C67.8427 42.3721 65.4941 39.4009 65.3877 36C65.2812 32.5146 67.3803 29.6939 70.8776 28.4048C73.4464 27.4536 77.6886 28.2726 79.4684 31.0969H79.4721Z" fill="white"/>
<path d="M0.000322281 5.85073C-0.0327052 2.7987 2.47739 0.0845571 5.40583 8.45518e-05C8.42601 -0.084388 11.1233 2.59302 11.1453 5.70015C11.1673 8.73749 8.65353 11.3414 5.64069 11.4039C2.67188 11.4663 0.0333498 8.86603 0.000322281 5.85073Z" fill="white"/>
</g>
<defs>
<clipPath id="clip0_61_2773">
<rect width="158" height="72" fill="white"/>
</clipPath>
</defs>
</svg>
