<svg width="53" height="31" viewBox="0 0 53 31" fill="none" xmlns="http://www.w3.org/2000/svg">
<path d="M26.7816 1.71162L18.7653 8.0414C17.432 9.09098 17.1753 10.9802 18.1856 12.3285C19.2539 13.7656 21.3325 14.0482 22.7652 12.9583L30.9884 6.72539C31.5681 6.28941 32.3963 6.38629 32.8517 6.95145C33.3072 7.51661 33.1995 8.32398 32.6198 8.76803L30.8891 10.076L42.4 20.4103V5.16716H42.342L42.0191 4.96532L36.0069 1.21105C34.7398 0.419832 33.2575 0 31.7503 0C29.945 0 28.1894 0.605527 26.7816 1.71162ZM28.6697 11.7553L24.3883 15.0009C21.7797 16.987 17.9952 16.4703 16.0408 13.8545C14.2023 11.392 14.6661 7.95259 17.0925 6.03912L23.9825 0.605527C23.0219 0.209916 21.9867 0.00807357 20.935 0.00807357C19.3781 -1.23315e-07 17.8627 0.452127 16.5625 1.29179L10.6 5.16716V23.2522H12.9353L20.5044 29.9857C22.1275 31.4309 24.6367 31.3179 26.1191 29.7354C26.5745 29.2429 26.8809 28.6697 27.0383 28.0722L28.4461 29.3317C30.0609 30.7769 32.5784 30.672 34.0608 29.0976C34.4334 28.702 34.7067 28.2418 34.8806 27.7654C36.4872 28.815 38.6734 28.597 40.0233 27.1599C41.5056 25.5855 41.398 23.1311 39.7831 21.6859L28.6697 11.7553ZM1.325 5.16716C0.59625 5.16716 0 5.74847 0 6.45895V23.2522C0 24.6813 1.18422 25.8358 2.65 25.8358H5.3C6.76578 25.8358 7.95 24.6813 7.95 23.2522V5.16716H1.325ZM3.975 20.6687C4.32641 20.6687 4.66343 20.8048 4.91192 21.047C5.1604 21.2893 5.3 21.6178 5.3 21.9604C5.3 22.303 5.1604 22.6316 4.91192 22.8739C4.66343 23.1161 4.32641 23.2522 3.975 23.2522C3.62359 23.2522 3.28657 23.1161 3.03808 22.8739C2.7896 22.6316 2.65 22.303 2.65 21.9604C2.65 21.6178 2.7896 21.2893 3.03808 21.047C3.28657 20.8048 3.62359 20.6687 3.975 20.6687ZM45.05 5.16716V23.2522C45.05 24.6813 46.2342 25.8358 47.7 25.8358H50.35C51.8158 25.8358 53 24.6813 53 23.2522V6.45895C53 5.74847 52.4038 5.16716 51.675 5.16716H45.05ZM47.7 21.9604C47.7 21.6178 47.8396 21.2893 48.0881 21.047C48.3366 20.8048 48.6736 20.6687 49.025 20.6687C49.3764 20.6687 49.7134 20.8048 49.9619 21.047C50.2104 21.2893 50.35 21.6178 50.35 21.9604C50.35 22.303 50.2104 22.6316 49.9619 22.8739C49.7134 23.1161 49.3764 23.2522 49.025 23.2522C48.6736 23.2522 48.3366 23.1161 48.0881 22.8739C47.8396 22.6316 47.7 22.303 47.7 21.9604Z" fill="#FB5425"/>
</svg>
