<svg width="317" height="65" viewBox="0 0 317 65" fill="none" xmlns="http://www.w3.org/2000/svg">
<path d="M47.5861 3.06558C47.9291 3.2195 48.3697 3.43985 48.7002 3.58159C51.0043 4.57706 51.4881 6.75737 50.6057 8.19688C49.829 9.46365 48.8308 10.2653 46.5721 9.74712C46.3654 9.69951 45.3138 9.15914 45.0901 9.10377C27.2294 -0.0127584 7.72216 13.4267 6.6865 31.5933C5.89726 45.4348 17.846 57.3218 32.2352 58.0394C37.577 58.3572 40.4921 57.4569 41.5482 57.2465C43.6808 56.8235 45.1639 58.6727 45.3797 59.9251C45.5625 60.9815 45.2377 61.7843 44.729 62.4409C44.0022 63.2736 43.5207 63.4707 42.9983 63.618C32.1352 66.6665 18.1719 65.0055 8.35696 54.2391C-1.36488 43.5723 -2.76621 27.1685 5.00354 15.1586C10.3056 6.96444 18.893 1.86857 27.2397 0.625056C34.4212 -0.444611 39.7687 -0.442396 47.5861 3.06558V3.06558Z" fill="white"/>
<path d="M59.2418 12.519C59.5677 14.2619 58.3822 15.9328 56.5936 16.2495C54.8062 16.5673 53.0937 15.4113 52.7678 13.6673C52.4419 11.9243 53.6274 10.2534 55.4148 9.93672C57.2023 9.61892 58.9159 10.775 59.2407 12.519H59.2418Z" fill="white"/>
<path d="M51.9982 55.8892C50.3891 54.3434 51.293 51.8984 51.7166 51.4666C52.951 50.2064 54.0287 49.0847 56.1817 46.477C58.9492 42.9325 57.415 39.8951 55.5174 38.1157C53.0452 35.7981 49.1865 35.9653 46.1692 38.2862C45.581 38.7391 44.8485 39.7589 44.208 40.3923C40.1539 44.403 31.813 47.7438 24.929 41.8108C21.881 39.1831 20.331 35.8678 20.7591 30.8295C21.1781 25.8975 25.8454 20.9855 31.0078 20.1827C31.6233 20.0875 32.8498 19.928 33.3778 19.928C35.1187 19.928 36.7347 21.2424 36.6756 23.2057C36.6211 25.0361 35.5468 26.2796 33.3574 26.4512C33.2768 26.4578 33.0792 26.4844 32.9963 26.49C30.4446 26.6705 28.1348 28.3702 27.3478 31.2935C27.0719 32.32 27.1707 35.5688 29.6258 37.4203C33.1382 40.0679 37.5205 38.1112 39.9745 35.3418C45.4186 29.1996 54.0128 28.3048 59.3183 32.7109C63.2236 35.9531 66.6883 42.597 61.929 49.5166C59.4489 53.1785 57.9079 54.577 56.9585 55.5459C55.7241 56.806 53.4586 57.2977 51.9948 55.8914L51.9982 55.8892Z" fill="white"/>
<path d="M128.94 47.8678V34.9166L116.889 17.2594L119.657 17.2505L125.943 26.48C127.549 28.8696 128.99 30.9679 130.1 32.5558C131.175 30.9558 133.161 28.0856 134.534 26.0603L140.457 17.297L143.208 17.2926L131.242 34.9166V47.8678H128.94V47.8678Z" fill="white"/>
<path d="M188.417 37.6628L194.382 37.0981C194.741 39.0503 195.469 40.4842 196.567 41.3989C197.665 42.3146 199.145 42.7719 201.01 42.7719C202.983 42.7719 204.471 42.3645 205.473 41.5506C206.473 40.7356 206.974 39.7833 206.974 38.6926C206.974 37.9928 206.763 37.397 206.342 36.9054C205.921 36.4137 205.185 35.9863 204.137 35.6231C203.419 35.3806 201.783 34.9499 199.229 34.3309C195.943 33.5358 193.637 32.5603 192.312 31.4031C190.447 29.7743 189.516 27.7889 189.516 25.4458C189.516 23.9387 189.955 22.528 190.831 21.2147C191.708 19.9026 192.971 18.9026 194.621 18.2161C196.271 17.5296 198.261 17.1863 200.596 17.1863C204.406 17.1863 207.275 18.0013 209.201 19.6302C211.127 21.259 212.137 23.4338 212.235 26.1522L206.105 26.4147C205.843 24.8932 205.279 23.7992 204.418 23.1326C203.554 22.466 202.26 22.1327 200.534 22.1327C198.808 22.1327 197.359 22.4892 196.351 23.2035C195.702 23.6608 195.378 24.2731 195.378 25.0405C195.378 25.7403 195.681 26.3394 196.289 26.8377C197.062 27.4711 198.939 28.1299 201.922 28.8164C204.904 29.503 207.109 30.2128 208.539 30.9469C209.968 31.68 211.086 32.6832 211.893 33.9555C212.701 35.2278 213.105 36.7991 213.105 38.6704C213.105 40.3669 212.622 41.9559 211.656 43.4363C210.689 44.9179 209.322 46.0175 207.555 46.7372C205.788 47.457 203.586 47.818 200.948 47.818C197.11 47.818 194.163 46.9532 192.105 45.2224C190.048 43.4928 188.82 40.9714 188.419 37.6595L188.417 37.6628Z" fill="white"/>
<path d="M261.655 47.2953V17.6901H282.468V22.6985H267.785V29.7056H280.46V34.714H267.785V47.2953H261.655Z" fill="white"/>
<path d="M293.883 47.2953V17.6901H316.394V22.6985H300.012V29.2616H315.255V34.2489H300.012V42.3057H316.974V47.2931H293.882L293.883 47.2953Z" fill="white"/>
<path d="M246.155 43.67L238.053 23.8191L229.925 43.8106C229.502 44.8603 229.184 45.59 228.973 46.002C228.762 46.4128 228.411 46.7826 227.923 47.1126C227.434 47.4426 226.768 47.6076 225.922 47.6065C225.304 47.6065 224.73 47.4791 224.201 47.2233C223.673 46.9675 223.258 46.6276 222.957 46.2035C222.656 45.7794 222.506 45.352 222.506 44.9212C222.506 44.6245 222.555 44.3056 222.652 43.9623C222.75 43.619 222.872 43.2824 223.018 42.9524C223.165 42.6224 223.311 42.2825 223.457 41.9326L232.123 22.5878C232.432 21.847 232.742 21.1438 233.051 20.4772C233.36 19.8106 233.719 19.2249 234.125 18.7199C234.532 18.215 235.074 17.8009 235.748 17.4786C236.424 17.1553 237.249 16.9936 238.226 16.9947C239.203 16.9947 240.028 17.1531 240.703 17.4698C241.378 17.7865 241.923 18.2039 242.338 18.7221C242.754 19.2404 243.115 19.8295 243.424 20.4894C243.732 21.1494 244.042 21.8492 244.35 22.59L252.866 41.7742C253.013 42.1241 253.162 42.4674 253.317 42.804C253.471 43.1407 253.602 43.5039 253.707 43.8947C253.813 44.2845 253.865 44.6145 253.865 44.8836C253.865 45.5701 253.533 46.1957 252.865 46.7616C252.197 47.3274 251.36 47.6098 250.351 47.6098C249.114 47.6098 248.24 47.2964 247.727 46.6697C247.215 46.044 246.691 45.0441 246.154 43.6711L246.155 43.67Z" fill="white"/>
<path d="M170.246 31.6135C173.27 30.2891 174.673 27.6858 174.673 24.819C174.673 20.6156 171.589 17.1719 164.995 17.2283C164.893 17.2283 164.79 17.2339 164.688 17.2383V17.2228H152.641V47.8334H164.618C164.664 47.8334 164.707 47.839 164.754 47.8401C172.12 47.9342 176.242 44.2103 176.293 39.2938C176.329 35.7604 174.455 32.7773 170.247 31.6135H170.246ZM154.841 19.4175H164.488V19.4286C164.57 19.4253 164.652 19.4219 164.734 19.4219C170.013 19.381 172.483 21.868 172.483 24.902C172.483 27.9361 170.089 30.5604 164.706 30.4652C164.637 30.4641 164.551 30.4652 164.481 30.4608H154.841V19.4175V19.4175ZM164.668 45.6897C164.556 45.6886 164.453 45.6786 164.344 45.6753H154.848V32.7928H164.811C165.084 32.7928 165.281 32.7906 165.511 32.7894C171.537 32.754 174.132 35.5444 174.092 39.0956C174.05 42.8893 170.683 45.7605 164.668 45.6886V45.6897Z" fill="white"/>
<path d="M107.992 39.4766L107.664 39.4112C105.352 43.1285 101.163 45.6133 96.3783 45.6133C89.0935 45.6133 83.1883 39.8553 83.1883 32.7518C83.1883 25.6484 89.0935 19.8915 96.3783 19.8915C101.171 19.8915 105.361 22.3874 107.671 26.1157L109.948 25.0516C107.224 20.4994 102.172 17.4344 96.3783 17.4344C87.7012 17.4344 80.6685 24.2931 80.6685 32.753C80.6685 41.2128 87.7023 48.0716 96.3783 48.0716C102.194 48.0716 107.261 44.9844 109.977 40.4056L107.992 39.4777V39.4766Z" fill="white"/>
</svg>
