<svg width="41" height="31" viewBox="0 0 41 31" fill="none" xmlns="http://www.w3.org/2000/svg">
<path d="M3.84375 0C1.72168 0 0 1.72252 0 3.84564C0 5.05541 0.568555 6.19307 1.5375 6.92214L18.9625 19.9973C19.8754 20.6783 21.1246 20.6783 22.0375 19.9973L39.4625 6.92214C40.4314 6.19307 41 5.05541 41 3.84564C41 1.72252 39.2783 0 37.1562 0H3.84375ZM0 8.97315V25.6376C0 28.4657 2.29824 30.7651 5.125 30.7651H35.875C38.7018 30.7651 41 28.4657 41 25.6376V8.97315L23.575 22.0483C21.7492 23.4183 19.2508 23.4183 17.425 22.0483L0 8.97315Z" fill="#F6F5F4"/>
</svg>
