<svg width="140" height="140" viewBox="0 0 140 140" fill="none" xmlns="http://www.w3.org/2000/svg">
<g clip-path="url(#clip0_405_1350)">
<path d="M139.53 70.12C139.53 53.74 139.64 37.36 139.43 20.98C139.39 17.76 138.68 14.27 137.27 11.39C133.34 3.33003 126.33 2.61718e-05 117.56 2.61718e-05C85.7201 2.61718e-05 53.8801 -0.0199738 22.0501 0.0400262C19.6601 0.0400262 17.1701 0.200026 14.9101 0.900026C5.6401 3.73003 0.0501026 11.3 0.0301026 21C-0.00989735 53.59 0.00010265 86.19 0.0401026 118.79C0.0401026 123.27 1.2901 127.45 3.9101 131.2C8.5401 137.83 15.2401 139.66 22.8301 139.66C54.1701 139.64 85.5101 139.67 116.85 139.62C119.49 139.62 122.21 139.44 124.75 138.79C133.6 136.53 139.51 128.64 139.53 119.26C139.57 102.88 139.54 86.5 139.54 70.12H139.53Z" fill="white"/>
<path d="M139.53 70.12C139.53 86.5 139.56 102.88 139.52 119.26C139.5 128.64 133.59 136.52 124.74 138.79C122.2 139.44 119.48 139.61 116.84 139.62C85.5001 139.67 54.1601 139.64 22.8201 139.66C15.2301 139.66 8.5301 137.83 3.9001 131.2C1.2901 127.45 0.0501026 123.26 0.0401026 118.79C0.00010265 86.19 -0.00989735 53.59 0.0301026 21C0.0501026 11.3 5.6401 3.73003 14.9101 0.890026C17.1701 0.200026 19.6601 0.0400262 22.0401 0.0400262C53.8801 -0.0199738 85.7201 2.61718e-05 117.56 2.61718e-05C126.34 2.61718e-05 133.35 3.33003 137.28 11.39C138.69 14.27 139.39 17.76 139.44 20.98C139.65 37.36 139.54 53.74 139.54 70.12H139.53ZM119.66 55.77C118.77 56.19 118.3 56.35 117.9 56.61C104.86 65.03 91.8001 73.41 78.8201 81.91C72.8001 85.85 66.9801 85.93 60.9501 81.99C48.7201 74 36.4401 66.09 24.1701 58.16C22.9001 57.34 21.5501 56.64 19.8001 55.63C19.8001 57.19 19.8001 58.17 19.8001 59.15C19.8001 70.46 19.8001 81.76 19.8001 93.07C19.8001 101.2 23.4101 104.83 31.4601 104.83C57.0601 104.83 82.6601 104.83 108.26 104.83C116.22 104.83 119.8 101.27 119.82 93.23C119.85 81.76 119.83 70.28 119.82 58.81C119.82 57.92 119.73 57.02 119.66 55.76V55.77ZM69.9901 34.84C56.9401 34.84 43.9001 34.82 30.8501 34.85C25.5201 34.87 21.6901 37.6 20.3401 42C19.9201 43.37 20.2601 44.09 21.4501 44.84C26.7801 48.21 32.0601 51.67 37.3501 55.09C47.1101 61.39 56.8901 67.66 66.6101 74.02C68.9101 75.53 70.9101 75.73 73.1701 73.96C75.0601 72.49 77.1801 71.32 79.2001 70.01C92.1701 61.63 105.12 53.24 118.11 44.9C119.38 44.09 119.69 43.35 119.22 41.87C117.84 37.52 114.05 34.87 108.63 34.85C95.7501 34.82 82.8701 34.85 69.9901 34.85V34.84Z" fill="white"/>
<path d="M119.66 55.7699C119.73 57.0299 119.82 57.9199 119.82 58.8199C119.82 70.2899 119.85 81.7699 119.82 93.2399C119.8 101.27 116.21 104.84 108.26 104.84C82.6601 104.84 57.06 104.84 31.46 104.84C23.41 104.84 19.81 101.2 19.8 93.0799C19.8 81.7699 19.8 70.4699 19.8 59.1599C19.8 58.1799 19.8 57.1999 19.8 55.6399C21.55 56.6499 22.9 57.3499 24.17 58.1699C36.4401 66.0999 48.7201 74.0099 60.9501 81.9999C66.9801 85.9399 72.8 85.8599 78.82 81.9199C91.8 73.4199 104.86 65.0399 117.9 56.6199C118.3 56.3599 118.78 56.1999 119.66 55.7799V55.7699Z" fill="black"/>
<path d="M69.9899 34.8399C82.8699 34.8399 95.7499 34.8199 108.63 34.8399C114.05 34.8499 117.85 37.5099 119.22 41.8599C119.69 43.3499 119.38 44.0799 118.11 44.8899C105.12 53.2299 92.1599 61.6199 79.1999 69.9999C77.1799 71.3099 75.0599 72.4799 73.1699 73.9499C70.8999 75.7199 68.91 75.5199 66.61 74.0099C56.89 67.6499 47.1099 61.3799 37.3499 55.0799C32.0499 51.6599 26.78 48.1899 21.45 44.8299C20.26 44.0799 19.9199 43.3599 20.3399 41.9899C21.6899 37.5899 25.5299 34.8599 30.8499 34.8399C43.9 34.7999 56.9399 34.8299 69.9899 34.8299V34.8399Z" fill="black"/>
</g>
<defs>
<clipPath id="clip0_405_1350">
<rect width="139.56" height="139.66" fill="white"/>
</clipPath>
</defs>
</svg>
