<svg width="46" height="40" viewBox="0 0 46 40" fill="none" xmlns="http://www.w3.org/2000/svg">
<path d="M4.27656 23.5925L20.5113 39.0042C21.1852 39.6437 22.0746 40 23 40C23.9254 40 24.8148 39.6437 25.4887 39.0042L41.7234 23.5925C44.4547 21.0072 46 17.3803 46 13.5891V13.0592C46 6.67345 41.4629 1.22865 35.2727 0.178062C31.1758 -0.516241 27.007 0.844958 24.0781 3.82315L23 4.91942L21.9219 3.82315C18.993 0.844958 14.8242 -0.516241 10.7273 0.178062C4.53711 1.22865 0 6.67345 0 13.0592V13.5891C0 17.3803 1.54531 21.0072 4.27656 23.5925Z" fill="#FB5425"/>
</svg>
