<svg width="46" height="46" viewBox="0 0 46 46" fill="none" xmlns="http://www.w3.org/2000/svg">
<path d="M0 23C0 16.9 2.42321 11.0499 6.73654 6.73654C11.0499 2.42321 16.9 0 23 0C29.1 0 34.9501 2.42321 39.2635 6.73654C43.5768 11.0499 46 16.9 46 23C46 29.1 43.5768 34.9501 39.2635 39.2635C34.9501 43.5768 29.1 46 23 46C16.9 46 11.0499 43.5768 6.73654 39.2635C2.42321 34.9501 0 29.1 0 23ZM28.75 31.625C28.75 29.2082 27.2676 27.1418 25.1562 26.2973V7.90625C25.1562 6.71133 24.1949 5.75 23 5.75C21.8051 5.75 20.8438 6.71133 20.8438 7.90625V26.2973C18.7324 27.1508 17.25 29.2172 17.25 31.625C17.25 34.7965 19.8285 37.375 23 37.375C26.1715 37.375 28.75 34.7965 28.75 31.625ZM12.9375 15.8125C13.7 15.8125 14.4313 15.5096 14.9704 14.9704C15.5096 14.4313 15.8125 13.7 15.8125 12.9375C15.8125 12.175 15.5096 11.4437 14.9704 10.9046C14.4313 10.3654 13.7 10.0625 12.9375 10.0625C12.175 10.0625 11.4437 10.3654 10.9046 10.9046C10.3654 11.4437 10.0625 12.175 10.0625 12.9375C10.0625 13.7 10.3654 14.4313 10.9046 14.9704C11.4437 15.5096 12.175 15.8125 12.9375 15.8125ZM11.5 23C11.5 22.2375 11.1971 21.5062 10.6579 20.9671C10.1188 20.4279 9.3875 20.125 8.625 20.125C7.8625 20.125 7.13124 20.4279 6.59207 20.9671C6.0529 21.5062 5.75 22.2375 5.75 23C5.75 23.7625 6.0529 24.4938 6.59207 25.0329C7.13124 25.5721 7.8625 25.875 8.625 25.875C9.3875 25.875 10.1188 25.5721 10.6579 25.0329C11.1971 24.4938 11.5 23.7625 11.5 23ZM37.375 25.875C38.1375 25.875 38.8688 25.5721 39.4079 25.0329C39.9471 24.4938 40.25 23.7625 40.25 23C40.25 22.2375 39.9471 21.5062 39.4079 20.9671C38.8688 20.4279 38.1375 20.125 37.375 20.125C36.6125 20.125 35.8812 20.4279 35.3421 20.9671C34.8029 21.5062 34.5 22.2375 34.5 23C34.5 23.7625 34.8029 24.4938 35.3421 25.0329C35.8812 25.5721 36.6125 25.875 37.375 25.875ZM35.9375 12.9375C35.9375 12.175 35.6346 11.4437 35.0954 10.9046C34.5563 10.3654 33.825 10.0625 33.0625 10.0625C32.3 10.0625 31.5687 10.3654 31.0296 10.9046C30.4904 11.4437 30.1875 12.175 30.1875 12.9375C30.1875 13.7 30.4904 14.4313 31.0296 14.9704C31.5687 15.5096 32.3 15.8125 33.0625 15.8125C33.825 15.8125 34.5563 15.5096 35.0954 14.9704C35.6346 14.4313 35.9375 13.7 35.9375 12.9375Z" fill="#FB5425"/>
</svg>
