<svg width="45" height="44" viewBox="0 0 45 44" fill="none" xmlns="http://www.w3.org/2000/svg">
<path d="M36.5643 17.8724C36.5643 21.8163 35.2547 25.4596 33.0485 28.4154L44.176 39.3021C45.2747 40.3761 45.2747 42.1204 44.176 43.1945C43.0773 44.2685 41.293 44.2685 40.1943 43.1945L29.0669 32.3078C26.0433 34.4731 22.3165 35.7448 18.2821 35.7448C8.18302 35.7448 0 27.7452 0 17.8724C0 7.99961 8.18302 0 18.2821 0C28.3813 0 36.5643 7.99961 36.5643 17.8724ZM18.2821 30.2456C19.9443 30.2456 21.5901 29.9255 23.1257 29.3037C24.6613 28.6819 26.0566 27.7705 27.2319 26.6215C28.4072 25.4726 29.3395 24.1086 29.9756 22.6074C30.6116 21.1062 30.939 19.4973 30.939 17.8724C30.939 16.2475 30.6116 14.6386 29.9756 13.1374C29.3395 11.6362 28.4072 10.2722 27.2319 9.12322C26.0566 7.97426 24.6613 7.06286 23.1257 6.44105C21.5901 5.81924 19.9443 5.49919 18.2821 5.49919C16.62 5.49919 14.9742 5.81924 13.4386 6.44105C11.903 7.06286 10.5077 7.97426 9.33239 9.12322C8.15709 10.2722 7.22479 11.6362 6.58872 13.1374C5.95265 14.6386 5.62527 16.2475 5.62527 17.8724C5.62527 19.4973 5.95265 21.1062 6.58872 22.6074C7.22479 24.1086 8.15709 25.4726 9.33239 26.6215C10.5077 27.7705 11.903 28.6819 13.4386 29.3037C14.9742 29.9255 16.62 30.2456 18.2821 30.2456Z" fill="#FB5425"/>
</svg>
