<svg width="140" height="161" viewBox="0 0 140 161" fill="none" xmlns="http://www.w3.org/2000/svg">
<rect x="17" y="26" width="112" height="109" fill="black"/>
<path d="M37.75 105.499C35.9062 105.373 33.8125 105.247 31.4375 105.09C30.4062 106.379 29.375 107.732 29.375 109.335C29.375 115.153 49.8438 115.153 49.8438 108.864C49.8438 106.254 47.5312 106.128 37.7188 105.499H37.75ZM40.1875 68.425C30.0938 68.425 29.6562 82.4182 39.9688 82.4182C50.125 82.4182 49.875 68.425 40.1875 68.425ZM120 10.0625H20C8.96875 10.0625 0 19.0873 0 30.1875V130.812C0 141.913 8.96875 150.938 20 150.938H120C131.031 150.938 140 141.913 140 130.812V30.1875C140 19.0873 131.031 10.0625 120 10.0625ZM76.2188 54.1488C71.6875 54.1488 69.0625 51.5074 69.0625 46.9479C69.0625 42.3883 71.6875 39.9355 76.2188 39.9355C80.8125 39.9355 83.4375 42.3883 83.4375 46.9479C83.4375 51.5074 80.8125 54.1488 76.2188 54.1488ZM46.75 61.3184H62.2188V68.1105L54.9062 68.6766C56.3438 70.5004 57.8438 73.0789 57.8438 76.758C57.8438 92.0719 39.9688 91.6002 34.6562 90.0908L32.0312 94.3045C33.5938 94.3988 35.0938 94.4932 36.5 94.5561C54.0938 95.5623 61.6562 96.0025 61.6562 106.663C61.6562 115.845 53.625 121.033 39.8125 121.033C25.4375 121.033 19.9688 117.385 19.9688 111.065C19.9688 107.48 21.5625 105.562 24.3438 102.921C21.7188 101.82 20.8438 99.8074 20.8438 97.6377C20.8438 94.6189 23.1562 92.5121 28.0312 88.0154L28.0938 87.9525C24.2188 86.0344 21.2812 81.8836 21.2812 75.9719C21.2812 59.7461 38.9688 59.2115 46.7812 61.2555L46.75 61.3184ZM84.5312 95.3107L88.5938 95.8768V102.197H65.9688V95.8768C66.8125 95.751 67.5312 95.6566 68.125 95.5938C71.2188 95.2164 71.2812 95.185 71.2812 93.707V70.2174C71.2812 68.8338 71 68.7395 68.125 67.7646C67.5312 67.5445 66.8125 67.3244 65.9688 67.01L66.8438 60.5322H83.2812V93.707C83.2812 94.9963 83.3438 95.1535 84.5625 95.3107H84.5312ZM117.844 92.0404L120 99.0527C116.594 100.751 111.594 102.26 107.062 102.26C97.625 102.26 94.0312 98.4238 94.0312 89.399V68.4564C94.0312 68.2049 94.0312 68.0162 93.9688 67.8904C93.7188 67.5131 92.6562 67.6703 87.8438 67.6703V60.5637C94.8125 59.7775 97.5938 56.2557 98.4688 47.5453H106.031C106.031 58.0166 105.844 59.4945 106.25 59.6832C106.344 59.7146 106.469 59.6832 106.656 59.6832H117.844V67.6703H106.031V86.7576C106.031 86.8205 106.031 86.9148 106.031 87.0406C105.969 89.0217 105.75 96.6 117.875 92.0404H117.844Z" fill="white"/>
</svg>
