<svg width="140" height="160" viewBox="0 0 140 160" fill="none" xmlns="http://www.w3.org/2000/svg">
<path d="M140 30C140 18.9688 131.031 10 120 10H20C8.96875 10 0 18.9688 0 30V130C0 141.031 8.96875 150 20 150H120C131.031 150 140 141.031 140 130V30ZM83.0625 127.406C83.0625 126.844 83.0625 125.531 83.0937 123.781C83.125 120.219 83.125 114.781 83.125 110.125C83.125 105.25 81.5 102.156 79.5937 100.531C91.1562 99.25 103.344 97.6563 103.344 77.6875C103.344 72 101.313 69.1563 98 65.5C98.5313 64.1563 100.312 58.625 97.4687 51.4375C93.125 50.0938 83.1875 57.0312 83.1875 57.0312C79.0625 55.875 74.5938 55.2812 70.1875 55.2812C65.7813 55.2812 61.3125 55.875 57.1875 57.0312C57.1875 57.0312 47.25 50.0938 42.9063 51.4375C40.0625 58.5938 41.8125 64.125 42.375 65.5C39.0625 69.1563 37.5 72 37.5 77.6875C37.5 97.5625 49.1563 99.25 60.7188 100.531C59.2188 101.875 57.875 104.187 57.4062 107.5C54.4375 108.844 46.8437 111.156 42.3125 103.156C39.4687 98.2188 34.3438 97.8125 34.3438 97.8125C29.2813 97.75 34 101 34 101C37.375 102.563 39.75 108.562 39.75 108.562C42.7812 117.844 57.2813 114.719 57.2813 114.719C57.2813 117.531 57.3125 121.5 57.3125 124.281C57.3125 125.781 57.3438 126.969 57.3438 127.406C57.3438 128.75 56.4062 130.375 53.75 129.906C33.125 123 18.6875 103.375 18.6875 80.4375C18.6875 51.75 40.625 29.9688 69.3125 29.9688C98 29.9688 121.25 51.75 121.25 80.4375C121.281 103.375 107.281 123.031 86.6562 129.906C84.0312 130.375 83.0625 128.75 83.0625 127.406ZM54.7813 110.281C54.7188 109.812 55.125 109.406 55.7188 109.281C56.3125 109.219 56.875 109.469 56.9375 109.875C57.0312 110.281 56.625 110.688 56 110.813C55.4062 110.938 54.8438 110.687 54.7813 110.281ZM51.9375 111.281C51.25 111.344 50.7812 111 50.7812 110.531C50.7812 110.125 51.25 109.781 51.875 109.781C52.4687 109.719 53.0312 110.063 53.0312 110.531C53.0312 110.938 52.5625 111.281 51.9375 111.281ZM47.4687 110.594C46.875 110.469 46.4688 110 46.5938 109.594C46.7188 109.188 47.3437 109 47.875 109.125C48.5 109.313 48.9062 109.781 48.75 110.188C48.625 110.594 48 110.781 47.4687 110.594ZM43.5625 108.313C43.0937 107.906 42.9688 107.312 43.2812 107.031C43.5625 106.687 44.1563 106.75 44.625 107.219C45.0313 107.625 45.1875 108.25 44.9062 108.5C44.625 108.844 44.0312 108.781 43.5625 108.313ZM40.9062 105.188C40.5625 104.719 40.5625 104.188 40.9062 103.969C41.25 103.688 41.7813 103.906 42.0625 104.375C42.4063 104.844 42.4063 105.406 42.0625 105.656C41.7813 105.844 41.25 105.656 40.9062 105.188ZM38.9375 102.437C38.5937 102.031 38.5312 101.562 38.8125 101.344C39.0937 101.062 39.5625 101.219 39.9062 101.531C40.25 101.937 40.3125 102.406 40.0313 102.625C39.75 102.906 39.2812 102.75 38.9375 102.437ZM37.0625 100.437C36.6562 100.25 36.4687 99.9062 36.5937 99.625C36.7187 99.4375 37.0625 99.3437 37.4688 99.5C37.875 99.7187 38.0625 100.062 37.9375 100.312C37.8125 100.594 37.4062 100.656 37.0625 100.437Z" fill="black"/>
</svg>
