<svg width="37" height="37" viewBox="0 0 37 37" fill="none" xmlns="http://www.w3.org/2000/svg">
<path d="M16.0554 14.7868C15.5743 15.1017 15.1614 15.5062 14.8401 15.9772C14.5187 16.4483 14.2953 16.9767 14.1826 17.5323C13.9549 18.6544 14.1918 19.8191 14.8413 20.7702C15.4907 21.7213 16.4995 22.3808 17.6457 22.6037C18.7918 22.8266 19.9815 22.5946 20.9529 21.9588C21.9243 21.3229 22.598 20.3354 22.8257 19.2133C23.0534 18.0912 22.8164 16.9265 22.167 15.9754C21.5175 15.0244 20.5087 14.3648 19.3626 14.1419C18.2165 13.919 17.0268 14.151 16.0554 14.7868ZM27.8078 9.25628C27.3783 8.83582 26.858 8.50431 26.2882 8.286C24.7933 7.71192 21.531 7.73618 19.425 7.76044C19.0864 7.76044 18.7725 7.76852 18.5 7.76852C18.2275 7.76852 17.9054 7.76852 17.5585 7.76044C15.4525 7.73618 12.2067 7.70384 10.7118 8.286C10.142 8.50431 9.62991 8.83582 9.19219 9.25628C8.75446 9.67673 8.42411 10.1861 8.20112 10.744C7.61473 12.2075 7.64777 15.4094 7.66429 17.4713C7.66429 17.8028 7.67254 18.11 7.67254 18.3688C7.67254 18.6275 7.67254 18.9348 7.66429 19.2663C7.64777 21.3281 7.61473 24.53 8.20112 25.9935C8.42411 26.5514 8.76272 27.0527 9.19219 27.4813C9.62165 27.9098 10.142 28.2332 10.7118 28.4515C12.2067 29.0256 15.469 29.0013 17.575 28.9771C17.9136 28.9771 18.2275 28.969 18.5 28.969C18.7725 28.969 19.0946 28.969 19.4415 28.9771C21.5475 29.0013 24.7933 29.0337 26.2882 28.4515C26.858 28.2332 27.3701 27.9017 27.8078 27.4813C28.2455 27.0608 28.5759 26.5514 28.7989 25.9935C29.3935 24.5381 29.3605 21.3524 29.3357 19.2824C29.3357 18.9428 29.3275 18.6275 29.3275 18.3607C29.3275 18.0939 29.3275 17.7866 29.3357 17.4389C29.3605 15.3771 29.3935 12.1914 28.7989 10.7279C28.5759 10.17 28.2373 9.66864 27.8078 9.24011V9.25628ZM22.2661 12.8544C23.7599 13.8322 24.7958 15.351 25.1459 17.0766C25.4959 18.8022 25.1314 20.5933 24.1326 22.0558C23.638 22.78 23.0026 23.4017 22.2626 23.8854C21.5226 24.3692 20.6926 24.7055 19.8198 24.8752C18.0572 25.2178 16.2278 24.861 14.7339 23.8832C13.2401 22.9064 12.2037 21.3886 11.8529 19.6638C11.5021 17.9389 11.8656 16.1483 12.8633 14.6858C13.861 13.2233 15.4113 12.2087 17.1731 11.8652C18.9349 11.5218 20.764 11.8776 22.2578 12.8544H22.2661ZM24.6777 12.7493C24.4216 12.5795 24.2152 12.3369 24.0913 12.0539C23.9674 11.7709 23.9426 11.4636 24.0004 11.1564C24.0583 10.8491 24.2152 10.5823 24.4299 10.364C24.6446 10.1457 24.9337 10.0002 25.2393 9.94355C25.5449 9.88695 25.867 9.91121 26.156 10.0325C26.4451 10.1538 26.6929 10.3478 26.8663 10.5985C27.0397 10.8491 27.1306 11.1483 27.1306 11.4556C27.1306 11.6577 27.0893 11.8598 27.015 12.0458C26.9406 12.2318 26.8167 12.4016 26.6763 12.5471C26.5359 12.6927 26.3542 12.8059 26.1643 12.8867C25.9743 12.9676 25.7679 13.008 25.5614 13.008C25.2475 13.008 24.942 12.9191 24.6859 12.7493H24.6777ZM37 5.43178C37 2.57756 34.6297 0.256989 31.7143 0.256989H5.28571C2.37031 0.256989 0 2.57756 0 5.43178V31.3057C0 34.16 2.37031 36.4805 5.28571 36.4805H31.7143C34.6297 36.4805 37 34.16 37 31.3057V5.43178ZM29.4844 29.1226C27.94 30.6346 26.0652 31.1117 23.9509 31.2168C21.7705 31.3381 15.2295 31.3381 13.0491 31.2168C10.9348 31.1117 9.06004 30.6346 7.51562 29.1226C5.97121 27.6106 5.48393 25.7752 5.38482 23.7053C5.26094 21.5707 5.26094 15.1669 5.38482 13.0323C5.49219 10.9623 5.97121 9.12691 7.51562 7.6149C9.06004 6.10289 10.9431 5.62584 13.0491 5.52881C15.2295 5.40752 21.7705 5.40752 23.9509 5.52881C26.0652 5.63392 27.94 6.10289 29.4844 7.6149C31.0288 9.12691 31.5161 10.9623 31.6152 13.0323C31.7391 15.1588 31.7391 21.5545 31.6152 23.6972C31.5078 25.7671 31.0288 27.6025 29.4844 29.1145V29.1226Z" fill="black"/>
</svg>
