<svg width="37" height="37" viewBox="0 0 37 37" fill="none" xmlns="http://www.w3.org/2000/svg">
<path d="M34.3571 0.256989H2.6346C1.18103 0.256989 0 1.4294 0 2.86864V33.8689C0 35.3081 1.18103 36.4805 2.6346 36.4805H34.3571C35.8107 36.4805 37 35.3081 37 33.8689V2.86864C37 1.4294 35.8107 0.256989 34.3571 0.256989ZM11.1826 31.3057H5.69866V14.0187H11.1908V31.3057H11.1826ZM8.44062 11.6577C6.68147 11.6577 5.26094 10.2589 5.26094 8.54474C5.26094 6.83059 6.68147 5.43178 8.44062 5.43178C10.1915 5.43178 11.6203 6.83059 11.6203 8.54474C11.6203 10.267 10.1998 11.6577 8.44062 11.6577ZM31.7391 31.3057H26.2551V22.8967C26.2551 20.8915 26.2138 18.3122 23.4058 18.3122C20.5482 18.3122 20.1105 20.4953 20.1105 22.7512V31.3057H14.6266V14.0187H19.8875V16.3797H19.9618C20.6969 15.0213 22.4891 13.5902 25.1567 13.5902C30.7067 13.5902 31.7391 17.1721 31.7391 21.8294V31.3057Z" fill="black"/>
</svg>
