<svg width="41" height="31" viewBox="0 0 41 31" fill="none" xmlns="http://www.w3.org/2000/svg">
<path d="M3.84375 0.216461C1.72168 0.216461 0 1.91571 0 4.01014C0 5.20357 0.568555 6.32587 1.5375 7.04509L18.9625 19.9436C19.8754 20.6154 21.1246 20.6154 22.0375 19.9436L39.4625 7.04509C40.4314 6.32587 41 5.20357 41 4.01014C41 1.91571 39.2783 0.216461 37.1562 0.216461H3.84375ZM0 9.06839V25.5077C0 28.2976 2.29824 30.5659 5.125 30.5659H35.875C38.7018 30.5659 41 28.2976 41 25.5077V9.06839L23.575 21.9669C21.7492 23.3184 19.2508 23.3184 17.425 21.9669L0 9.06839Z" fill="black"/>
</svg>
