<svg width="34" height="43" viewBox="0 0 34 43" fill="none" xmlns="http://www.w3.org/2000/svg">
<path d="M33.9913 21.4838L32.8948 34.695C32.6143 38.1132 27.4633 37.6429 27.7438 34.2834L28.5938 23.995L25.1003 24.1882C25.9588 25.9267 26.4433 27.8752 26.4433 29.9413C26.4433 33.4016 25.0748 36.5511 22.8478 38.8859L19.5074 35.5852C24.4288 30.2353 20.6208 21.5426 13.2174 21.5426C11.0159 21.5426 9.00993 22.3741 7.50545 23.7263L4.16497 20.4256C6.03496 18.6871 8.42344 17.4777 11.0839 17.0493L17.4844 9.85166L13.8634 7.76878L9.47743 11.6322C6.92745 13.883 3.47647 10.0784 6.03496 7.81918L11.8149 2.72117C12.6479 1.98209 13.8634 1.86451 14.8324 2.41882C14.8324 2.41882 26.6728 9.21336 26.6898 9.23016C28.0668 10.0784 28.4493 12.2537 27.2083 13.6479L22.2443 19.233L31.2628 18.7375C32.8353 18.6451 34.1188 19.9469 33.9913 21.4838ZM28.4748 8.54986C30.8633 8.54986 32.8013 6.63496 32.8013 4.27493C32.8013 1.9149 30.8633 0 28.4748 0C26.0863 0 24.1483 1.9149 24.1483 4.27493C24.1483 6.63496 26.0863 8.54986 28.4748 8.54986ZM13.2259 38.34C6.37495 38.34 2.39698 30.7308 6.19646 25.2297L2.82198 21.8954C1.05399 24.1042 0 26.901 0 29.9329C0 40.91 12.8094 46.8479 21.3688 40.2213L17.9944 36.887C16.6344 37.8025 14.9939 38.34 13.2259 38.34Z" fill="#FB5425"/>
</svg>
