<svg width="1495" height="79" viewBox="0 0 1495 79" fill="none" xmlns="http://www.w3.org/2000/svg">
<rect x="646" width="198" height="79" rx="5" fill="#C5CED8"/>
<path d="M700.468 33.148H705.166C707.254 33.148 708.82 33.724 709.9 34.876C710.926 35.956 711.448 37.522 711.448 39.574C711.448 41.608 710.926 43.174 709.9 44.272C708.82 45.424 707.254 46 705.166 46H700.468V33.148ZM702.574 34.948V44.2H704.77C706.372 44.2 707.542 43.822 708.28 43.084C709 42.328 709.36 41.158 709.36 39.574C709.36 37.954 709 36.766 708.28 36.046C707.542 35.308 706.372 34.948 704.77 34.948H702.574ZM717.473 36.442C718.841 36.442 719.867 36.784 720.515 37.468C721.091 38.062 721.379 38.926 721.379 40.06V46H719.471V44.776C719.111 45.244 718.661 45.586 718.139 45.838C717.545 46.108 716.843 46.252 716.033 46.252C715.061 46.252 714.305 46 713.747 45.514C713.171 45.01 712.883 44.38 712.883 43.606C712.883 42.562 713.279 41.752 714.107 41.194C714.863 40.654 715.925 40.366 717.293 40.33L719.327 40.276V39.916C719.327 38.692 718.661 38.098 717.329 38.098C716.753 38.098 716.303 38.188 715.961 38.404C715.565 38.638 715.295 38.998 715.187 39.484L713.153 39.322C713.351 38.296 713.855 37.54 714.665 37.072C715.349 36.64 716.285 36.442 717.473 36.442ZM719.327 41.752L717.437 41.806C715.799 41.842 714.989 42.418 714.989 43.534C714.989 43.858 715.115 44.128 715.403 44.344C715.691 44.56 716.051 44.686 716.501 44.686C717.293 44.686 717.959 44.452 718.499 44.002C719.039 43.534 719.327 42.94 719.327 42.22V41.752ZM727.054 36.442C729.502 36.442 730.852 37.414 731.068 39.394H729.07C728.926 38.926 728.71 38.584 728.422 38.404C728.116 38.206 727.648 38.116 727.018 38.116C726.478 38.116 726.064 38.188 725.794 38.35C725.47 38.512 725.326 38.764 725.326 39.124C725.326 39.412 725.56 39.682 726.064 39.898C726.37 40.024 726.982 40.204 727.918 40.438C728.962 40.69 729.754 40.978 730.258 41.32C730.996 41.788 731.374 42.454 731.374 43.282C731.374 45.262 729.97 46.252 727.18 46.252C724.588 46.252 723.202 45.154 723.004 42.976H725.002C725.11 43.57 725.326 43.984 725.632 44.236C725.938 44.452 726.424 44.578 727.108 44.578C728.548 44.578 729.268 44.182 729.268 43.426C729.268 42.994 728.998 42.652 728.458 42.4C728.17 42.256 727.558 42.094 726.622 41.878C725.524 41.626 724.75 41.356 724.3 41.068C723.58 40.618 723.22 39.988 723.22 39.178C723.22 38.314 723.562 37.648 724.282 37.18C724.984 36.676 725.902 36.442 727.054 36.442ZM733.001 32.896H735.053V37.936C735.395 37.414 735.827 37.036 736.331 36.784C736.781 36.55 737.303 36.442 737.897 36.442C739.031 36.442 739.877 36.766 740.435 37.432C740.957 38.062 741.227 38.998 741.227 40.24V46H739.175V40.6C739.175 39.808 739.013 39.196 738.707 38.782C738.347 38.332 737.825 38.116 737.123 38.116C736.475 38.116 735.971 38.368 735.611 38.872C735.233 39.376 735.053 40.006 735.053 40.798V46H733.001V32.896ZM743.39 32.896H745.442V37.972C746.198 36.946 747.134 36.442 748.214 36.442C749.546 36.442 750.59 36.928 751.364 37.9C752.066 38.8 752.426 39.934 752.426 41.302C752.426 42.724 752.066 43.894 751.346 44.794C750.554 45.766 749.474 46.252 748.106 46.252C746.882 46.252 745.946 45.838 745.298 45.01V46H743.39V32.896ZM747.728 38.098C747.062 38.098 746.522 38.368 746.09 38.908C745.604 39.484 745.37 40.276 745.37 41.266V41.41C745.37 42.31 745.55 43.066 745.946 43.642C746.378 44.272 746.99 44.596 747.8 44.596C748.7 44.596 749.366 44.272 749.798 43.624C750.14 43.084 750.32 42.31 750.32 41.302C750.32 40.294 750.122 39.538 749.762 39.016C749.33 38.404 748.646 38.098 747.728 38.098ZM758.538 36.442C759.942 36.442 761.076 36.892 761.94 37.828C762.786 38.746 763.218 39.916 763.218 41.356C763.218 42.778 762.786 43.948 761.958 44.848C761.094 45.784 759.942 46.252 758.538 46.252C757.116 46.252 755.982 45.784 755.118 44.848C754.272 43.948 753.858 42.778 753.858 41.356C753.858 39.916 754.272 38.746 755.136 37.828C755.982 36.892 757.116 36.442 758.538 36.442ZM758.538 38.116C757.674 38.116 757.026 38.44 756.558 39.124C756.162 39.7 755.964 40.456 755.964 41.356C755.964 42.256 756.162 42.994 756.558 43.57C757.026 44.236 757.674 44.578 758.538 44.578C759.384 44.578 760.05 44.236 760.518 43.57C760.914 42.976 761.13 42.238 761.13 41.356C761.13 40.456 760.914 39.7 760.518 39.124C760.05 38.44 759.384 38.116 758.538 38.116ZM769.241 36.442C770.609 36.442 771.635 36.784 772.283 37.468C772.859 38.062 773.147 38.926 773.147 40.06V46H771.239V44.776C770.879 45.244 770.429 45.586 769.907 45.838C769.313 46.108 768.611 46.252 767.801 46.252C766.829 46.252 766.073 46 765.515 45.514C764.939 45.01 764.651 44.38 764.651 43.606C764.651 42.562 765.047 41.752 765.875 41.194C766.631 40.654 767.693 40.366 769.061 40.33L771.095 40.276V39.916C771.095 38.692 770.429 38.098 769.097 38.098C768.521 38.098 768.071 38.188 767.729 38.404C767.333 38.638 767.063 38.998 766.955 39.484L764.921 39.322C765.119 38.296 765.623 37.54 766.433 37.072C767.117 36.64 768.053 36.442 769.241 36.442ZM771.095 41.752L769.205 41.806C767.567 41.842 766.757 42.418 766.757 43.534C766.757 43.858 766.883 44.128 767.171 44.344C767.459 44.56 767.819 44.686 768.269 44.686C769.061 44.686 769.727 44.452 770.267 44.002C770.807 43.534 771.095 42.94 771.095 42.22V41.752ZM779.703 36.442C780.153 36.442 780.549 36.514 780.873 36.676V38.728C780.405 38.584 779.973 38.53 779.541 38.53C779.001 38.53 778.515 38.728 778.083 39.16C777.579 39.646 777.345 40.276 777.345 41.068V46H775.311V36.694H777.345V38.026C777.597 37.558 777.885 37.198 778.227 36.946C778.641 36.604 779.127 36.442 779.703 36.442ZM788.668 32.896H790.72V46H788.812V45.01C788.164 45.838 787.228 46.252 786.004 46.252C784.618 46.252 783.538 45.766 782.764 44.794C782.044 43.894 781.684 42.724 781.684 41.302C781.684 39.934 782.026 38.8 782.746 37.9C783.502 36.928 784.564 36.442 785.896 36.442C786.976 36.442 787.894 36.946 788.668 37.972V32.896ZM786.382 38.098C785.446 38.098 784.78 38.404 784.348 39.016C783.97 39.538 783.79 40.294 783.79 41.302C783.79 42.31 783.952 43.084 784.312 43.624C784.726 44.272 785.392 44.596 786.31 44.596C787.102 44.596 787.732 44.272 788.164 43.642C788.542 43.066 788.74 42.31 788.74 41.41V41.266C788.74 40.276 788.488 39.484 788.02 38.908C787.588 38.368 787.03 38.098 786.382 38.098Z" fill="#505B67"/>
<rect x="328" width="198" height="79" rx="5" fill="#C5CED8"/>
<path d="M389.64 20.148H395.364C396.678 20.148 397.722 20.436 398.478 21.03C399.27 21.678 399.684 22.614 399.684 23.838C399.684 24.504 399.504 25.098 399.144 25.62C398.748 26.196 398.19 26.574 397.506 26.754V26.79C398.622 27.042 399.252 27.78 399.396 29.04L399.612 31.11C399.684 31.902 399.954 32.532 400.386 33H398.1C397.794 32.604 397.614 32.046 397.542 31.326L397.38 29.742C397.308 29.04 397.092 28.536 396.732 28.23C396.354 27.906 395.796 27.762 395.076 27.762H391.746V33H389.64V20.148ZM391.746 21.948V25.962H395.076C395.904 25.962 396.534 25.782 396.966 25.44C397.362 25.08 397.56 24.576 397.56 23.928C397.56 23.226 397.362 22.722 396.966 22.416C396.57 22.092 395.94 21.948 395.076 21.948H391.746ZM405.971 23.442C407.501 23.442 408.671 23.946 409.481 24.99C410.219 25.926 410.597 27.24 410.597 28.914H403.631C403.703 29.778 403.937 30.444 404.333 30.894C404.729 31.344 405.305 31.578 406.043 31.578C406.673 31.578 407.177 31.434 407.573 31.146C407.879 30.912 408.149 30.534 408.401 30.012H410.453C410.237 30.876 409.805 31.614 409.157 32.19C408.329 32.892 407.303 33.252 406.061 33.252C404.675 33.252 403.577 32.82 402.767 31.974C401.903 31.092 401.471 29.886 401.471 28.338C401.471 26.952 401.867 25.8 402.695 24.864C403.487 23.91 404.585 23.442 405.971 23.442ZM406.025 25.116C405.341 25.116 404.819 25.296 404.423 25.692C404.045 26.07 403.793 26.628 403.667 27.366H408.455C408.275 25.854 407.465 25.116 406.025 25.116ZM415.734 23.442C418.182 23.442 419.532 24.414 419.748 26.394H417.75C417.606 25.926 417.39 25.584 417.102 25.404C416.796 25.206 416.328 25.116 415.698 25.116C415.158 25.116 414.744 25.188 414.474 25.35C414.15 25.512 414.006 25.764 414.006 26.124C414.006 26.412 414.24 26.682 414.744 26.898C415.05 27.024 415.662 27.204 416.598 27.438C417.642 27.69 418.434 27.978 418.938 28.32C419.676 28.788 420.054 29.454 420.054 30.282C420.054 32.262 418.65 33.252 415.86 33.252C413.268 33.252 411.882 32.154 411.684 29.976H413.682C413.79 30.57 414.006 30.984 414.312 31.236C414.618 31.452 415.104 31.578 415.788 31.578C417.228 31.578 417.948 31.182 417.948 30.426C417.948 29.994 417.678 29.652 417.138 29.4C416.85 29.256 416.238 29.094 415.302 28.878C414.204 28.626 413.43 28.356 412.98 28.068C412.26 27.618 411.9 26.988 411.9 26.178C411.9 25.314 412.242 24.648 412.962 24.18C413.664 23.676 414.582 23.442 415.734 23.442ZM421.681 23.694H423.733V29.364C423.733 30.12 423.877 30.66 424.201 31.02C424.525 31.362 425.029 31.542 425.749 31.542C426.199 31.542 426.631 31.344 427.045 30.966C427.459 30.57 427.765 30.048 427.945 29.382V23.694H429.997V33H427.945V31.794C427.153 32.766 426.181 33.252 425.029 33.252C422.797 33.252 421.681 31.992 421.681 29.49V23.694ZM432.337 19.896H434.389V33H432.337V19.896ZM439.643 20.688V23.694H441.713V25.386H439.643V30.642C439.643 30.858 439.679 31.02 439.787 31.146C439.895 31.254 440.039 31.308 440.255 31.308H441.479V33H439.913C439.103 33 438.509 32.784 438.131 32.352C437.771 31.956 437.591 31.398 437.591 30.642V25.386H435.917V23.694H437.591V21.534L439.643 20.688ZM446.759 23.442C449.207 23.442 450.557 24.414 450.773 26.394H448.775C448.631 25.926 448.415 25.584 448.127 25.404C447.821 25.206 447.353 25.116 446.723 25.116C446.183 25.116 445.769 25.188 445.499 25.35C445.175 25.512 445.031 25.764 445.031 26.124C445.031 26.412 445.265 26.682 445.769 26.898C446.075 27.024 446.687 27.204 447.623 27.438C448.667 27.69 449.459 27.978 449.963 28.32C450.701 28.788 451.079 29.454 451.079 30.282C451.079 32.262 449.675 33.252 446.885 33.252C444.293 33.252 442.907 32.154 442.709 29.976H444.707C444.815 30.57 445.031 30.984 445.337 31.236C445.643 31.452 446.129 31.578 446.813 31.578C448.253 31.578 448.973 31.182 448.973 30.426C448.973 29.994 448.703 29.652 448.163 29.4C447.875 29.256 447.263 29.094 446.327 28.878C445.229 28.626 444.455 28.356 444.005 28.068C443.285 27.618 442.925 26.988 442.925 26.178C442.925 25.314 443.267 24.648 443.987 24.18C444.689 23.676 445.607 23.442 446.759 23.442ZM464.37 18.24H466.134L459.888 34.8H458.106L464.37 18.24ZM387.311 45.148H396.077V46.948H389.417V50.512H395.699V52.312H389.417V58H387.311V45.148ZM401.567 48.442C403.097 48.442 404.267 48.946 405.077 49.99C405.815 50.926 406.193 52.24 406.193 53.914H399.227C399.299 54.778 399.533 55.444 399.929 55.894C400.325 56.344 400.901 56.578 401.639 56.578C402.269 56.578 402.773 56.434 403.169 56.146C403.475 55.912 403.745 55.534 403.997 55.012H406.049C405.833 55.876 405.401 56.614 404.753 57.19C403.925 57.892 402.899 58.252 401.657 58.252C400.271 58.252 399.173 57.82 398.363 56.974C397.499 56.092 397.067 54.886 397.067 53.338C397.067 51.952 397.463 50.8 398.291 49.864C399.083 48.91 400.181 48.442 401.567 48.442ZM401.621 50.116C400.937 50.116 400.415 50.296 400.019 50.692C399.641 51.07 399.389 51.628 399.263 52.366H404.051C403.871 50.854 403.061 50.116 401.621 50.116ZM411.78 48.442C413.31 48.442 414.48 48.946 415.29 49.99C416.028 50.926 416.406 52.24 416.406 53.914H409.44C409.512 54.778 409.746 55.444 410.142 55.894C410.538 56.344 411.114 56.578 411.852 56.578C412.482 56.578 412.986 56.434 413.382 56.146C413.688 55.912 413.958 55.534 414.21 55.012H416.262C416.046 55.876 415.614 56.614 414.966 57.19C414.138 57.892 413.112 58.252 411.87 58.252C410.484 58.252 409.386 57.82 408.576 56.974C407.712 56.092 407.28 54.886 407.28 53.338C407.28 51.952 407.676 50.8 408.504 49.864C409.296 48.91 410.394 48.442 411.78 48.442ZM411.834 50.116C411.15 50.116 410.628 50.296 410.232 50.692C409.854 51.07 409.602 51.628 409.476 52.366H414.264C414.084 50.854 413.274 50.116 411.834 50.116ZM424.657 44.896H426.709V58H424.801V57.01C424.153 57.838 423.217 58.252 421.993 58.252C420.607 58.252 419.527 57.766 418.753 56.794C418.033 55.894 417.673 54.724 417.673 53.302C417.673 51.934 418.015 50.8 418.735 49.9C419.491 48.928 420.553 48.442 421.885 48.442C422.965 48.442 423.883 48.946 424.657 49.972V44.896ZM422.371 50.098C421.435 50.098 420.769 50.404 420.337 51.016C419.959 51.538 419.779 52.294 419.779 53.302C419.779 54.31 419.941 55.084 420.301 55.624C420.715 56.272 421.381 56.596 422.299 56.596C423.091 56.596 423.721 56.272 424.153 55.642C424.531 55.066 424.729 54.31 424.729 53.41V53.266C424.729 52.276 424.477 51.484 424.009 50.908C423.577 50.368 423.019 50.098 422.371 50.098ZM428.861 44.896H430.913V49.972C431.669 48.946 432.605 48.442 433.685 48.442C435.017 48.442 436.061 48.928 436.835 49.9C437.537 50.8 437.897 51.934 437.897 53.302C437.897 54.724 437.537 55.894 436.817 56.794C436.025 57.766 434.945 58.252 433.577 58.252C432.353 58.252 431.417 57.838 430.769 57.01V58H428.861V44.896ZM433.199 50.098C432.533 50.098 431.993 50.368 431.561 50.908C431.075 51.484 430.841 52.276 430.841 53.266V53.41C430.841 54.31 431.021 55.066 431.417 55.642C431.849 56.272 432.461 56.596 433.271 56.596C434.171 56.596 434.837 56.272 435.269 55.624C435.611 55.084 435.791 54.31 435.791 53.302C435.791 52.294 435.593 51.538 435.233 51.016C434.801 50.404 434.117 50.098 433.199 50.098ZM443.919 48.442C445.287 48.442 446.313 48.784 446.961 49.468C447.537 50.062 447.825 50.926 447.825 52.06V58H445.917V56.776C445.557 57.244 445.107 57.586 444.585 57.838C443.991 58.108 443.289 58.252 442.479 58.252C441.507 58.252 440.751 58 440.193 57.514C439.617 57.01 439.329 56.38 439.329 55.606C439.329 54.562 439.725 53.752 440.553 53.194C441.309 52.654 442.371 52.366 443.739 52.33L445.773 52.276V51.916C445.773 50.692 445.107 50.098 443.775 50.098C443.199 50.098 442.749 50.188 442.407 50.404C442.011 50.638 441.741 50.998 441.633 51.484L439.599 51.322C439.797 50.296 440.301 49.54 441.111 49.072C441.795 48.64 442.731 48.442 443.919 48.442ZM445.773 53.752L443.883 53.806C442.245 53.842 441.435 54.418 441.435 55.534C441.435 55.858 441.561 56.128 441.849 56.344C442.137 56.56 442.497 56.686 442.947 56.686C443.739 56.686 444.405 56.452 444.945 56.002C445.485 55.534 445.773 54.94 445.773 54.22V53.752ZM454.166 48.442C455.372 48.442 456.326 48.712 457.046 49.252C457.784 49.828 458.252 50.692 458.432 51.862H456.398C456.272 51.268 456.02 50.836 455.66 50.548C455.282 50.26 454.778 50.116 454.166 50.116C453.41 50.116 452.816 50.386 452.384 50.962C451.952 51.52 451.736 52.312 451.736 53.32C451.736 54.346 451.934 55.156 452.366 55.732C452.762 56.29 453.356 56.578 454.148 56.578C455.516 56.578 456.272 55.894 456.434 54.544H458.468C458.252 55.804 457.766 56.74 457.028 57.352C456.308 57.946 455.336 58.252 454.13 58.252C452.69 58.252 451.574 57.784 450.782 56.848C450.008 55.948 449.63 54.778 449.63 53.338C449.63 51.934 450.008 50.782 450.764 49.9C451.574 48.928 452.708 48.442 454.166 48.442ZM460.08 44.896H462.132V52.384L465.948 48.694H468.594L464.472 52.546L468.954 58H466.326L463.068 53.86L462.132 54.742V58H460.08V44.896Z" fill="#505B67"/>
<rect width="198" height="79" rx="5" fill="#C5CED8"/>
<path d="M55.8193 33.148H58.2133L63.1273 46H60.8773L59.7073 42.778H54.3253L53.1553 46H50.9053L55.8193 33.148ZM54.9553 41.05H59.0773L57.0613 35.416H56.9893L54.9553 41.05ZM68.3781 36.442C69.5841 36.442 70.5381 36.712 71.2581 37.252C71.9961 37.828 72.4641 38.692 72.6441 39.862H70.6101C70.4841 39.268 70.2321 38.836 69.8721 38.548C69.4941 38.26 68.9901 38.116 68.3781 38.116C67.6221 38.116 67.0281 38.386 66.5961 38.962C66.1641 39.52 65.9481 40.312 65.9481 41.32C65.9481 42.346 66.1461 43.156 66.5781 43.732C66.9741 44.29 67.5681 44.578 68.3601 44.578C69.7281 44.578 70.4841 43.894 70.6461 42.544H72.6801C72.4641 43.804 71.9781 44.74 71.2401 45.352C70.5201 45.946 69.5481 46.252 68.3421 46.252C66.9021 46.252 65.7861 45.784 64.9941 44.848C64.2201 43.948 63.8421 42.778 63.8421 41.338C63.8421 39.934 64.2201 38.782 64.9761 37.9C65.7861 36.928 66.9201 36.442 68.3781 36.442ZM77.2079 33.688V36.694H79.2779V38.386H77.2079V43.642C77.2079 43.858 77.2439 44.02 77.3519 44.146C77.4599 44.254 77.6039 44.308 77.8199 44.308H79.0439V46H77.4779C76.6679 46 76.0739 45.784 75.6959 45.352C75.3359 44.956 75.1559 44.398 75.1559 43.642V38.386H73.4819V36.694H75.1559V34.534L77.2079 33.688ZM82.1994 32.896C82.5954 32.896 82.9374 33.022 83.2074 33.274C83.4594 33.526 83.6034 33.85 83.6034 34.246C83.6034 34.642 83.4594 34.984 83.1894 35.236C82.9194 35.488 82.5954 35.614 82.1994 35.614C81.8034 35.614 81.4794 35.488 81.2094 35.236C80.9394 34.966 80.8134 34.642 80.8134 34.246C80.8134 33.85 80.9394 33.526 81.2094 33.274C81.4794 33.022 81.8034 32.896 82.1994 32.896ZM81.1734 36.694H83.2254V46H81.1734V36.694ZM90.0904 36.442C91.4944 36.442 92.6284 36.892 93.4924 37.828C94.3384 38.746 94.7704 39.916 94.7704 41.356C94.7704 42.778 94.3384 43.948 93.5104 44.848C92.6464 45.784 91.4944 46.252 90.0904 46.252C88.6684 46.252 87.5344 45.784 86.6704 44.848C85.8244 43.948 85.4104 42.778 85.4104 41.356C85.4104 39.916 85.8244 38.746 86.6884 37.828C87.5344 36.892 88.6684 36.442 90.0904 36.442ZM90.0904 38.116C89.2264 38.116 88.5784 38.44 88.1104 39.124C87.7144 39.7 87.5164 40.456 87.5164 41.356C87.5164 42.256 87.7144 42.994 88.1104 43.57C88.5784 44.236 89.2264 44.578 90.0904 44.578C90.9364 44.578 91.6024 44.236 92.0704 43.57C92.4664 42.976 92.6824 42.238 92.6824 41.356C92.6824 40.456 92.4664 39.7 92.0704 39.124C91.6024 38.44 90.9364 38.116 90.0904 38.116ZM101.369 36.442C103.691 36.442 104.861 37.702 104.861 40.258V46H102.809V40.438C102.809 38.908 102.107 38.152 100.703 38.152C100.199 38.152 99.7494 38.332 99.3714 38.692C98.9394 39.088 98.6874 39.664 98.6154 40.402V46H96.5634V36.694H98.6154V37.774C98.9754 37.342 99.3894 37 99.8394 36.784C100.307 36.55 100.811 36.442 101.369 36.442ZM117.733 36.442C119.101 36.442 120.181 36.928 120.973 37.9C121.693 38.8 122.053 39.952 122.053 41.392C122.053 42.76 121.693 43.894 120.991 44.794C120.235 45.766 119.173 46.252 117.841 46.252C116.761 46.252 115.825 45.73 115.069 44.722V49.564H113.017V36.694H114.925V37.684C115.573 36.856 116.509 36.442 117.733 36.442ZM117.427 38.098C116.617 38.098 116.005 38.404 115.573 39.052C115.177 39.61 114.997 40.348 114.997 41.284V41.428C114.997 42.4 115.231 43.192 115.717 43.786C116.149 44.326 116.689 44.596 117.355 44.596C118.255 44.596 118.939 44.29 119.371 43.714C119.749 43.174 119.947 42.4 119.947 41.392C119.947 40.384 119.767 39.61 119.425 39.07C118.993 38.422 118.327 38.098 117.427 38.098ZM124.025 32.896H126.077V46H124.025V32.896ZM132.645 36.442C134.013 36.442 135.039 36.784 135.687 37.468C136.263 38.062 136.551 38.926 136.551 40.06V46H134.643V44.776C134.283 45.244 133.833 45.586 133.311 45.838C132.717 46.108 132.015 46.252 131.205 46.252C130.233 46.252 129.477 46 128.919 45.514C128.343 45.01 128.055 44.38 128.055 43.606C128.055 42.562 128.451 41.752 129.279 41.194C130.035 40.654 131.097 40.366 132.465 40.33L134.499 40.276V39.916C134.499 38.692 133.833 38.098 132.501 38.098C131.925 38.098 131.475 38.188 131.133 38.404C130.737 38.638 130.467 38.998 130.359 39.484L128.325 39.322C128.523 38.296 129.027 37.54 129.837 37.072C130.521 36.64 131.457 36.442 132.645 36.442ZM134.499 41.752L132.609 41.806C130.971 41.842 130.161 42.418 130.161 43.534C130.161 43.858 130.287 44.128 130.575 44.344C130.863 44.56 131.223 44.686 131.673 44.686C132.465 44.686 133.131 44.452 133.671 44.002C134.211 43.534 134.499 42.94 134.499 42.22V41.752ZM143.522 36.442C145.844 36.442 147.014 37.702 147.014 40.258V46H144.962V40.438C144.962 38.908 144.26 38.152 142.856 38.152C142.352 38.152 141.902 38.332 141.524 38.692C141.092 39.088 140.84 39.664 140.768 40.402V46H138.716V36.694H140.768V37.774C141.128 37.342 141.542 37 141.992 36.784C142.46 36.55 142.964 36.442 143.522 36.442Z" fill="#505B67"/>
<rect x="961" width="198" height="79" rx="5" fill="#C5CED8"/>
<path d="M1016.77 33.148H1022.49C1023.81 33.148 1024.85 33.436 1025.61 34.03C1026.4 34.678 1026.81 35.614 1026.81 36.838C1026.81 37.504 1026.63 38.098 1026.27 38.62C1025.88 39.196 1025.32 39.574 1024.63 39.754V39.79C1025.75 40.042 1026.38 40.78 1026.52 42.04L1026.74 44.11C1026.81 44.902 1027.08 45.532 1027.51 46H1025.23C1024.92 45.604 1024.74 45.046 1024.67 44.326L1024.51 42.742C1024.44 42.04 1024.22 41.536 1023.86 41.23C1023.48 40.906 1022.92 40.762 1022.2 40.762H1018.87V46H1016.77V33.148ZM1018.87 34.948V38.962H1022.2C1023.03 38.962 1023.66 38.782 1024.09 38.44C1024.49 38.08 1024.69 37.576 1024.69 36.928C1024.69 36.226 1024.49 35.722 1024.09 35.416C1023.7 35.092 1023.07 34.948 1022.2 34.948H1018.87ZM1033.1 36.442C1034.63 36.442 1035.8 36.946 1036.61 37.99C1037.35 38.926 1037.73 40.24 1037.73 41.914H1030.76C1030.83 42.778 1031.07 43.444 1031.46 43.894C1031.86 44.344 1032.43 44.578 1033.17 44.578C1033.8 44.578 1034.31 44.434 1034.7 44.146C1035.01 43.912 1035.28 43.534 1035.53 43.012H1037.58C1037.37 43.876 1036.93 44.614 1036.29 45.19C1035.46 45.892 1034.43 46.252 1033.19 46.252C1031.8 46.252 1030.71 45.82 1029.9 44.974C1029.03 44.092 1028.6 42.886 1028.6 41.338C1028.6 39.952 1029 38.8 1029.82 37.864C1030.62 36.91 1031.71 36.442 1033.1 36.442ZM1033.15 38.116C1032.47 38.116 1031.95 38.296 1031.55 38.692C1031.17 39.07 1030.92 39.628 1030.8 40.366H1035.58C1035.4 38.854 1034.59 38.116 1033.15 38.116ZM1042.86 36.442C1045.31 36.442 1046.66 37.414 1046.88 39.394H1044.88C1044.73 38.926 1044.52 38.584 1044.23 38.404C1043.92 38.206 1043.46 38.116 1042.83 38.116C1042.29 38.116 1041.87 38.188 1041.6 38.35C1041.28 38.512 1041.13 38.764 1041.13 39.124C1041.13 39.412 1041.37 39.682 1041.87 39.898C1042.18 40.024 1042.79 40.204 1043.73 40.438C1044.77 40.69 1045.56 40.978 1046.07 41.32C1046.8 41.788 1047.18 42.454 1047.18 43.282C1047.18 45.262 1045.78 46.252 1042.99 46.252C1040.4 46.252 1039.01 45.154 1038.81 42.976H1040.81C1040.92 43.57 1041.13 43.984 1041.44 44.236C1041.75 44.452 1042.23 44.578 1042.92 44.578C1044.36 44.578 1045.08 44.182 1045.08 43.426C1045.08 42.994 1044.81 42.652 1044.27 42.4C1043.98 42.256 1043.37 42.094 1042.43 41.878C1041.33 41.626 1040.56 41.356 1040.11 41.068C1039.39 40.618 1039.03 39.988 1039.03 39.178C1039.03 38.314 1039.37 37.648 1040.09 37.18C1040.79 36.676 1041.71 36.442 1042.86 36.442ZM1053.13 36.442C1054.53 36.442 1055.67 36.892 1056.53 37.828C1057.38 38.746 1057.81 39.916 1057.81 41.356C1057.81 42.778 1057.38 43.948 1056.55 44.848C1055.69 45.784 1054.53 46.252 1053.13 46.252C1051.71 46.252 1050.57 45.784 1049.71 44.848C1048.86 43.948 1048.45 42.778 1048.45 41.356C1048.45 39.916 1048.86 38.746 1049.73 37.828C1050.57 36.892 1051.71 36.442 1053.13 36.442ZM1053.13 38.116C1052.27 38.116 1051.62 38.44 1051.15 39.124C1050.75 39.7 1050.56 40.456 1050.56 41.356C1050.56 42.256 1050.75 42.994 1051.15 43.57C1051.62 44.236 1052.27 44.578 1053.13 44.578C1053.98 44.578 1054.64 44.236 1055.11 43.57C1055.51 42.976 1055.72 42.238 1055.72 41.356C1055.72 40.456 1055.51 39.7 1055.11 39.124C1054.64 38.44 1053.98 38.116 1053.13 38.116ZM1059.6 36.694H1061.65V42.364C1061.65 43.12 1061.8 43.66 1062.12 44.02C1062.45 44.362 1062.95 44.542 1063.67 44.542C1064.12 44.542 1064.55 44.344 1064.97 43.966C1065.38 43.57 1065.69 43.048 1065.87 42.382V36.694H1067.92V46H1065.87V44.794C1065.07 45.766 1064.1 46.252 1062.95 46.252C1060.72 46.252 1059.6 44.992 1059.6 42.49V36.694ZM1074.47 36.442C1074.92 36.442 1075.32 36.514 1075.64 36.676V38.728C1075.17 38.584 1074.74 38.53 1074.31 38.53C1073.77 38.53 1073.28 38.728 1072.85 39.16C1072.35 39.646 1072.11 40.276 1072.11 41.068V46H1070.08V36.694H1072.11V38.026C1072.37 37.558 1072.65 37.198 1073 36.946C1073.41 36.604 1073.9 36.442 1074.47 36.442ZM1080.99 36.442C1082.19 36.442 1083.15 36.712 1083.87 37.252C1084.61 37.828 1085.07 38.692 1085.25 39.862H1083.22C1083.09 39.268 1082.84 38.836 1082.48 38.548C1082.1 38.26 1081.6 38.116 1080.99 38.116C1080.23 38.116 1079.64 38.386 1079.21 38.962C1078.77 39.52 1078.56 40.312 1078.56 41.32C1078.56 42.346 1078.76 43.156 1079.19 43.732C1079.58 44.29 1080.18 44.578 1080.97 44.578C1082.34 44.578 1083.09 43.894 1083.26 42.544H1085.29C1085.07 43.804 1084.59 44.74 1083.85 45.352C1083.13 45.946 1082.16 46.252 1080.95 46.252C1079.51 46.252 1078.4 45.784 1077.6 44.848C1076.83 43.948 1076.45 42.778 1076.45 41.338C1076.45 39.934 1076.83 38.782 1077.59 37.9C1078.4 36.928 1079.53 36.442 1080.99 36.442ZM1090.86 36.442C1092.39 36.442 1093.56 36.946 1094.37 37.99C1095.11 38.926 1095.49 40.24 1095.49 41.914H1088.52C1088.59 42.778 1088.83 43.444 1089.22 43.894C1089.62 44.344 1090.2 44.578 1090.93 44.578C1091.56 44.578 1092.07 44.434 1092.46 44.146C1092.77 43.912 1093.04 43.534 1093.29 43.012H1095.34C1095.13 43.876 1094.7 44.614 1094.05 45.19C1093.22 45.892 1092.19 46.252 1090.95 46.252C1089.57 46.252 1088.47 45.82 1087.66 44.974C1086.79 44.092 1086.36 42.886 1086.36 41.338C1086.36 39.952 1086.76 38.8 1087.59 37.864C1088.38 36.91 1089.48 36.442 1090.86 36.442ZM1090.92 38.116C1090.23 38.116 1089.71 38.296 1089.31 38.692C1088.94 39.07 1088.68 39.628 1088.56 40.366H1093.35C1093.17 38.854 1092.36 38.116 1090.92 38.116ZM1100.62 36.442C1103.07 36.442 1104.42 37.414 1104.64 39.394H1102.64C1102.5 38.926 1102.28 38.584 1101.99 38.404C1101.69 38.206 1101.22 38.116 1100.59 38.116C1100.05 38.116 1099.63 38.188 1099.36 38.35C1099.04 38.512 1098.9 38.764 1098.9 39.124C1098.9 39.412 1099.13 39.682 1099.63 39.898C1099.94 40.024 1100.55 40.204 1101.49 40.438C1102.53 40.69 1103.32 40.978 1103.83 41.32C1104.57 41.788 1104.94 42.454 1104.94 43.282C1104.94 45.262 1103.54 46.252 1100.75 46.252C1098.16 46.252 1096.77 45.154 1096.57 42.976H1098.57C1098.68 43.57 1098.9 43.984 1099.2 44.236C1099.51 44.452 1099.99 44.578 1100.68 44.578C1102.12 44.578 1102.84 44.182 1102.84 43.426C1102.84 42.994 1102.57 42.652 1102.03 42.4C1101.74 42.256 1101.13 42.094 1100.19 41.878C1099.09 41.626 1098.32 41.356 1097.87 41.068C1097.15 40.618 1096.79 39.988 1096.79 39.178C1096.79 38.314 1097.13 37.648 1097.85 37.18C1098.55 36.676 1099.47 36.442 1100.62 36.442Z" fill="#505B67"/>
<rect x="1297" width="198" height="79" rx="5" fill="#C5CED8"/>
<path d="M1324.28 33.148H1329.61C1332.71 33.148 1334.27 34.462 1334.27 37.09C1334.27 39.736 1332.71 41.068 1329.58 41.068H1326.39V46H1324.28V33.148ZM1326.39 34.948V39.268H1329.45C1330.39 39.268 1331.07 39.088 1331.5 38.764C1331.93 38.422 1332.15 37.864 1332.15 37.09C1332.15 36.316 1331.92 35.776 1331.48 35.452C1331.05 35.11 1330.37 34.948 1329.45 34.948H1326.39ZM1340.29 36.442C1340.74 36.442 1341.14 36.514 1341.46 36.676V38.728C1340.99 38.584 1340.56 38.53 1340.13 38.53C1339.59 38.53 1339.1 38.728 1338.67 39.16C1338.17 39.646 1337.93 40.276 1337.93 41.068V46H1335.9V36.694H1337.93V38.026C1338.18 37.558 1338.47 37.198 1338.81 36.946C1339.23 36.604 1339.71 36.442 1340.29 36.442ZM1346.95 36.442C1348.35 36.442 1349.49 36.892 1350.35 37.828C1351.2 38.746 1351.63 39.916 1351.63 41.356C1351.63 42.778 1351.2 43.948 1350.37 44.848C1349.51 45.784 1348.35 46.252 1346.95 46.252C1345.53 46.252 1344.39 45.784 1343.53 44.848C1342.68 43.948 1342.27 42.778 1342.27 41.356C1342.27 39.916 1342.68 38.746 1343.55 37.828C1344.39 36.892 1345.53 36.442 1346.95 36.442ZM1346.95 38.116C1346.09 38.116 1345.44 38.44 1344.97 39.124C1344.57 39.7 1344.38 40.456 1344.38 41.356C1344.38 42.256 1344.57 42.994 1344.97 43.57C1345.44 44.236 1346.09 44.578 1346.95 44.578C1347.8 44.578 1348.46 44.236 1348.93 43.57C1349.33 42.976 1349.54 42.238 1349.54 41.356C1349.54 40.456 1349.33 39.7 1348.93 39.124C1348.46 38.44 1347.8 38.116 1346.95 38.116ZM1357.08 33.148H1359.06V34.876H1357.37C1357.1 34.876 1356.9 34.948 1356.75 35.092C1356.61 35.236 1356.56 35.452 1356.56 35.758V36.694H1362.26V46H1360.21V38.368H1356.56V46H1354.5V38.368H1352.43V36.694H1354.5V35.704C1354.5 34.912 1354.72 34.282 1355.17 33.832C1355.6 33.364 1356.25 33.148 1357.08 33.148ZM1364.78 32.896H1366.84V46H1364.78V32.896ZM1373.13 36.442C1374.66 36.442 1375.83 36.946 1376.64 37.99C1377.38 38.926 1377.76 40.24 1377.76 41.914H1370.79C1370.87 42.778 1371.1 43.444 1371.5 43.894C1371.89 44.344 1372.47 44.578 1373.21 44.578C1373.84 44.578 1374.34 44.434 1374.74 44.146C1375.04 43.912 1375.31 43.534 1375.56 43.012H1377.62C1377.4 43.876 1376.97 44.614 1376.32 45.19C1375.49 45.892 1374.47 46.252 1373.22 46.252C1371.84 46.252 1370.74 45.82 1369.93 44.974C1369.07 44.092 1368.63 42.886 1368.63 41.338C1368.63 39.952 1369.03 38.8 1369.86 37.864C1370.65 36.91 1371.75 36.442 1373.13 36.442ZM1373.19 38.116C1372.5 38.116 1371.98 38.296 1371.59 38.692C1371.21 39.07 1370.96 39.628 1370.83 40.366H1375.62C1375.44 38.854 1374.63 38.116 1373.19 38.116ZM1391.05 31.24H1392.81L1386.57 47.8H1384.79L1391.05 31.24ZM1405.09 32.896C1406.6 32.896 1407.79 33.202 1408.64 33.832C1409.54 34.498 1410.06 35.542 1410.18 36.946H1408.1C1407.92 36.154 1407.57 35.578 1407.11 35.236C1406.64 34.876 1405.92 34.714 1404.98 34.714C1404.17 34.714 1403.56 34.822 1403.13 35.056C1402.59 35.326 1402.34 35.776 1402.34 36.388C1402.34 36.928 1402.62 37.378 1403.24 37.702C1403.51 37.846 1404.24 38.116 1405.43 38.494C1407.18 39.034 1408.29 39.466 1408.8 39.754C1409.91 40.42 1410.47 41.338 1410.47 42.526C1410.47 43.678 1410.02 44.596 1409.12 45.262C1408.22 45.91 1406.94 46.252 1405.31 46.252C1403.72 46.252 1402.48 45.946 1401.6 45.334C1400.52 44.578 1399.92 43.39 1399.83 41.752H1401.92C1402.07 42.724 1402.41 43.426 1402.97 43.84C1403.47 44.2 1404.24 44.398 1405.31 44.398C1406.24 44.398 1407 44.236 1407.54 43.93C1408.08 43.606 1408.37 43.192 1408.37 42.652C1408.37 41.968 1407.95 41.428 1407.16 41.032C1406.91 40.906 1406.08 40.618 1404.66 40.186C1403.07 39.682 1402.08 39.322 1401.71 39.106C1400.72 38.512 1400.23 37.648 1400.23 36.514C1400.23 35.38 1400.7 34.48 1401.67 33.832C1402.57 33.202 1403.7 32.896 1405.09 32.896ZM1416.06 36.442C1417.59 36.442 1418.76 36.946 1419.57 37.99C1420.31 38.926 1420.69 40.24 1420.69 41.914H1413.72C1413.79 42.778 1414.03 43.444 1414.42 43.894C1414.82 44.344 1415.39 44.578 1416.13 44.578C1416.76 44.578 1417.27 44.434 1417.66 44.146C1417.97 43.912 1418.24 43.534 1418.49 43.012H1420.54C1420.33 43.876 1419.89 44.614 1419.25 45.19C1418.42 45.892 1417.39 46.252 1416.15 46.252C1414.76 46.252 1413.67 45.82 1412.86 44.974C1411.99 44.092 1411.56 42.886 1411.56 41.338C1411.56 39.952 1411.96 38.8 1412.78 37.864C1413.58 36.91 1414.67 36.442 1416.06 36.442ZM1416.11 38.116C1415.43 38.116 1414.91 38.296 1414.51 38.692C1414.13 39.07 1413.88 39.628 1413.76 40.366H1418.54C1418.36 38.854 1417.55 38.116 1416.11 38.116ZM1425.23 33.688V36.694H1427.3V38.386H1425.23V43.642C1425.23 43.858 1425.26 44.02 1425.37 44.146C1425.48 44.254 1425.62 44.308 1425.84 44.308H1427.06V46H1425.5C1424.69 46 1424.09 45.784 1423.72 45.352C1423.36 44.956 1423.18 44.398 1423.18 43.642V38.386H1421.5V36.694H1423.18V34.534L1425.23 33.688ZM1431.75 33.688V36.694H1433.82V38.386H1431.75V43.642C1431.75 43.858 1431.79 44.02 1431.89 44.146C1432 44.254 1432.15 44.308 1432.36 44.308H1433.59V46H1432.02C1431.21 46 1430.62 45.784 1430.24 45.352C1429.88 44.956 1429.7 44.398 1429.7 43.642V38.386H1428.02V36.694H1429.7V34.534L1431.75 33.688ZM1436.74 32.896C1437.14 32.896 1437.48 33.022 1437.75 33.274C1438 33.526 1438.15 33.85 1438.15 34.246C1438.15 34.642 1438 34.984 1437.73 35.236C1437.46 35.488 1437.14 35.614 1436.74 35.614C1436.35 35.614 1436.02 35.488 1435.75 35.236C1435.48 34.966 1435.36 34.642 1435.36 34.246C1435.36 33.85 1435.48 33.526 1435.75 33.274C1436.02 33.022 1436.35 32.896 1436.74 32.896ZM1435.72 36.694H1437.77V46H1435.72V36.694ZM1445.12 36.442C1447.44 36.442 1448.61 37.702 1448.61 40.258V46H1446.56V40.438C1446.56 38.908 1445.86 38.152 1444.45 38.152C1443.95 38.152 1443.5 38.332 1443.12 38.692C1442.69 39.088 1442.44 39.664 1442.36 40.402V46H1440.31V36.694H1442.36V37.774C1442.72 37.342 1443.14 37 1443.59 36.784C1444.06 36.55 1444.56 36.442 1445.12 36.442ZM1454.64 36.442C1455.79 36.442 1456.71 36.892 1457.4 37.828V36.694H1459.45V45.406C1459.45 48.34 1457.99 49.816 1455.07 49.816C1453.76 49.816 1452.77 49.564 1452.09 49.096C1451.4 48.592 1450.97 47.836 1450.79 46.792H1452.84C1452.95 47.314 1453.17 47.674 1453.51 47.89C1453.83 48.088 1454.35 48.196 1455.07 48.196C1456.62 48.196 1457.4 47.368 1457.4 45.712V44.344C1456.71 45.298 1455.79 45.784 1454.64 45.784C1453.38 45.784 1452.36 45.352 1451.58 44.524C1450.79 43.678 1450.41 42.544 1450.41 41.14C1450.41 39.736 1450.79 38.602 1451.58 37.738C1452.36 36.874 1453.38 36.442 1454.64 36.442ZM1454.97 38.098C1454.19 38.098 1453.6 38.368 1453.17 38.908C1452.73 39.43 1452.52 40.168 1452.52 41.14C1452.52 42.022 1452.68 42.706 1453.02 43.21C1453.42 43.804 1454.05 44.11 1454.95 44.11C1455.74 44.11 1456.35 43.84 1456.78 43.336C1457.2 42.796 1457.41 42.076 1457.41 41.14C1457.41 40.186 1457.2 39.448 1456.78 38.908C1456.35 38.368 1455.74 38.098 1454.97 38.098ZM1465.11 36.442C1467.56 36.442 1468.91 37.414 1469.12 39.394H1467.13C1466.98 38.926 1466.77 38.584 1466.48 38.404C1466.17 38.206 1465.7 38.116 1465.07 38.116C1464.53 38.116 1464.12 38.188 1463.85 38.35C1463.53 38.512 1463.38 38.764 1463.38 39.124C1463.38 39.412 1463.62 39.682 1464.12 39.898C1464.43 40.024 1465.04 40.204 1465.97 40.438C1467.02 40.69 1467.81 40.978 1468.31 41.32C1469.05 41.788 1469.43 42.454 1469.43 43.282C1469.43 45.262 1468.03 46.252 1465.24 46.252C1462.64 46.252 1461.26 45.154 1461.06 42.976H1463.06C1463.17 43.57 1463.38 43.984 1463.69 44.236C1463.99 44.452 1464.48 44.578 1465.16 44.578C1466.6 44.578 1467.32 44.182 1467.32 43.426C1467.32 42.994 1467.05 42.652 1466.51 42.4C1466.23 42.256 1465.61 42.094 1464.68 41.878C1463.58 41.626 1462.81 41.356 1462.36 41.068C1461.64 40.618 1461.28 39.988 1461.28 39.178C1461.28 38.314 1461.62 37.648 1462.34 37.18C1463.04 36.676 1463.96 36.442 1465.11 36.442Z" fill="#505B67"/>
<path d="M861 40.5C860.172 40.5 859.5 39.8284 859.5 39C859.5 38.1716 860.172 37.5 861 37.5L861 40.5ZM944 39L929 47.6602L929 30.3397L944 39ZM861 37.5L930.5 37.5L930.5 40.5L861 40.5L861 37.5Z" fill="#505B67"/>
<path d="M626 40.5C626.828 40.5 627.5 39.8284 627.5 39C627.5 38.1716 626.828 37.5 626 37.5L626 40.5ZM543 39L558 47.6602L558 30.3397L543 39ZM626 37.5L556.5 37.5L556.5 40.5L626 40.5L626 37.5Z" fill="#505B67"/>
<path d="M298 40.5C298.828 40.5 299.5 39.8284 299.5 39C299.5 38.1716 298.828 37.5 298 37.5L298 40.5ZM215 39L230 47.6602L230 30.3397L215 39ZM298 37.5L228.5 37.5L228.5 40.5L298 40.5L298 37.5Z" fill="#505B67"/>
<path d="M1197 40.5C1196.17 40.5 1195.5 39.8284 1195.5 39C1195.5 38.1716 1196.17 37.5 1197 37.5L1197 40.5ZM1280 39L1265 47.6602L1265 30.3397L1280 39ZM1197 37.5L1266.5 37.5L1266.5 40.5L1197 40.5L1197 37.5Z" fill="#505B67"/>
</svg>
