<svg width="37" height="37" viewBox="0 0 37 37" fill="none" xmlns="http://www.w3.org/2000/svg">
<path d="M16.0554 14.7288C15.5743 15.048 15.1614 15.458 14.8401 15.9355C14.5187 16.4131 14.2953 16.9487 14.1826 17.5119C13.9549 18.6494 14.1918 19.83 14.8413 20.7941C15.4907 21.7582 16.4995 22.4268 17.6457 22.6527C18.7918 22.8787 19.9815 22.6435 20.9529 21.999C21.9243 21.3545 22.598 20.3533 22.8257 19.2159C23.0534 18.0784 22.8164 16.8978 22.167 15.9337C21.5175 14.9696 20.5087 14.3011 19.3626 14.0751C18.2165 13.8491 17.0268 14.0843 16.0554 14.7288ZM27.8078 9.12253C27.3783 8.69632 26.858 8.36027 26.2882 8.13897C24.7933 7.55703 21.531 7.58162 19.425 7.60621C19.0864 7.60621 18.7725 7.6144 18.5 7.6144C18.2275 7.6144 17.9054 7.6144 17.5585 7.60621C15.4525 7.58162 12.2067 7.54883 10.7118 8.13897C10.142 8.36027 9.62991 8.69632 9.19219 9.12253C8.75446 9.54874 8.42411 10.0651 8.20112 10.6307C7.61473 12.1142 7.64777 15.3599 7.66429 17.45C7.66429 17.7861 7.67254 18.0975 7.67254 18.3598C7.67254 18.6221 7.67254 18.9336 7.66429 19.2696C7.64777 21.3597 7.61473 24.6054 8.20112 26.089C8.42411 26.6545 8.76272 27.1627 9.19219 27.5971C9.62165 28.0315 10.142 28.3593 10.7118 28.5806C12.2067 29.1626 15.469 29.138 17.575 29.1134C17.9136 29.1134 18.2275 29.1052 18.5 29.1052C18.7725 29.1052 19.0946 29.1052 19.4415 29.1134C21.5475 29.138 24.7933 29.1708 26.2882 28.5806C26.858 28.3593 27.3701 28.0233 27.8078 27.5971C28.2455 27.1709 28.5759 26.6545 28.7989 26.089C29.3935 24.6136 29.3605 21.3843 29.3357 19.286C29.3357 18.9417 29.3275 18.6221 29.3275 18.3516C29.3275 18.0811 29.3275 17.7697 29.3357 17.4172C29.3605 15.3272 29.3935 12.0978 28.7989 10.6143C28.5759 10.0487 28.2373 9.54054 27.8078 9.10614V9.12253ZM22.2661 12.7699C23.7599 13.7612 24.7958 15.3007 25.1459 17.05C25.4959 18.7992 25.1314 20.6148 24.1326 22.0973C23.638 22.8314 23.0026 23.4616 22.2626 23.952C21.5226 24.4424 20.6926 24.7833 19.8198 24.9553C18.0572 25.3027 16.2278 24.941 14.7339 23.9497C13.2401 22.9595 12.2037 21.421 11.8529 19.6725C11.5021 17.9241 11.8656 16.1089 12.8633 14.6264C13.861 13.1438 15.4113 12.1154 17.1731 11.7672C18.9349 11.4191 20.764 11.7797 22.2578 12.7699H22.2661ZM24.6777 12.6633C24.4216 12.4912 24.2152 12.2453 24.0913 11.9585C23.9674 11.6716 23.9426 11.3601 24.0004 11.0487C24.0583 10.7372 24.2152 10.4667 24.4299 10.2454C24.6446 10.0241 24.9337 9.87659 25.2393 9.81922C25.5449 9.76184 25.867 9.78643 26.156 9.90938C26.4451 10.0323 26.6929 10.229 26.8663 10.4831C27.0397 10.7372 27.1306 11.0405 27.1306 11.3519C27.1306 11.5568 27.0893 11.7618 27.015 11.9503C26.9406 12.1388 26.8167 12.3109 26.6763 12.4584C26.5359 12.606 26.3542 12.7207 26.1643 12.8027C25.9743 12.8847 25.7679 12.9256 25.5614 12.9256C25.2475 12.9256 24.942 12.8355 24.6859 12.6633H24.6777ZM37 5.24566C37 2.35235 34.6297 0 31.7143 0H5.28571C2.37031 0 0 2.35235 0 5.24566V31.474C0 34.3673 2.37031 36.7196 5.28571 36.7196H31.7143C34.6297 36.7196 37 34.3673 37 31.474V5.24566ZM29.4844 29.2609C27.94 30.7937 26.0652 31.2772 23.9509 31.3838C21.7705 31.5067 15.2295 31.5067 13.0491 31.3838C10.9348 31.2772 9.06004 30.7937 7.51562 29.2609C5.97121 27.7282 5.48393 25.8677 5.38482 23.7694C5.26094 21.6056 5.26094 15.1141 5.38482 12.9502C5.49219 10.852 5.97121 8.99139 7.51562 7.45867C9.06004 5.92596 10.9431 5.44237 13.0491 5.34402C15.2295 5.22107 21.7705 5.22107 23.9509 5.34402C26.0652 5.45057 27.94 5.92596 29.4844 7.45867C31.0288 8.99139 31.5161 10.852 31.6152 12.9502C31.7391 15.1059 31.7391 21.5892 31.6152 23.7612C31.5078 25.8595 31.0288 27.72 29.4844 29.2527V29.2609Z" fill="#F6F5F4"/>
</svg>
