<svg width="386" height="538" viewBox="0 0 386 538" fill="none" xmlns="http://www.w3.org/2000/svg">
<g clip-path="url(#clip0_32_2124)">
<rect width="551" height="659" fill="#EC4D36"/>
<g clip-path="url(#clip1_32_2124)">
<path d="M297.151 0.137687L387 0.137695L387 90.0032L297.151 90.0031L297.151 0.137687Z" fill="#B7B7B8"/>
<path d="M297.151 0.137687L387 0.137695L387 45.0785L297.151 45.0785L297.151 0.137687Z" fill="#DC4F3B"/>
<path d="M319.504 44.9731C319.455 57.5715 329.623 67.8203 342.221 67.8689C354.82 67.9175 365.068 57.7497 365.117 45.1514L319.512 44.9731L319.504 44.9731Z" fill="#1B1C1C"/>
<path d="M319.504 44.9732C319.552 32.3748 329.801 22.2071 342.399 22.2557C354.998 22.3043 365.166 32.5612 365.117 45.1514L319.512 44.9732L319.504 44.9732Z" fill="white"/>
<path d="M297.143 89.752L207.52 89.752L207.52 0.129555L297.143 0.129563L297.143 89.752Z" fill="#DC4F3B"/>
<path d="M207.407 90.0032L297.029 90.0032L297.029 179.626L207.407 179.626L207.407 90.0032Z" fill="#DC4F3B"/>
<path d="M297.118 2.14697C272.562 2.14697 252.647 21.7939 252.647 46.0265C252.647 70.259 272.554 89.906 297.118 89.906" fill="white"/>
<path d="M297.426 22.9039C284.86 22.8552 274.644 32.9987 274.587 45.5566C274.539 58.1225 284.682 68.3389 297.24 68.3956" fill="#1B1C1C"/>
<path d="M207.245 89.906C231.477 89.906 251.124 70.259 251.124 46.0265C251.124 21.7939 231.485 2.14697 207.245 2.14697" fill="#1B1C1C"/>
<path d="M297.086 156.851C284.52 156.803 274.385 146.578 274.433 134.012C274.482 121.446 284.706 111.311 297.272 111.36" fill="white"/>
<path d="M252.307 90.0032C252.307 114.795 232.206 134.895 207.415 134.895L207.415 90.0032L252.307 90.0032Z" fill="white"/>
<path d="M207.407 134.725C232.198 134.725 252.299 154.826 252.299 179.618L207.407 179.618L207.407 134.725Z" fill="white"/>
<path d="M-62.222 89.8735L27.4004 89.8735L27.4004 179.496L-62.222 179.496L-62.222 89.8735Z" fill="white"/>
<path d="M2.07413 114.77C-15.7094 96.9951 -39.2533 88.7555 -61.8412 90.2139L-61.8412 90.2301L26.647 178.662L26.6631 178.662C28.1134 156.074 19.8576 132.546 2.07413 114.77Z" fill="#1B1C1C"/>
<path d="M26.647 178.661L-61.8412 90.23C-63.2914 112.81 -55.0357 136.346 -37.2522 154.121C-19.4687 171.896 4.07527 180.128 26.647 178.661Z" fill="#DC4F3B"/>
<path d="M-62.222 0.259392L27.4004 0.259399L27.4004 89.8818L-62.222 89.8818L-62.222 0.259392Z" fill="#1B1C1C"/>
<path d="M2.07413 64.9848C-15.7094 82.7602 -39.2533 90.9997 -61.8412 89.5414L-61.8412 89.5252L26.647 1.09375L26.6632 1.09375C28.1134 23.6816 19.8576 47.2093 2.07413 64.9848Z" fill="white"/>
<path d="M26.647 1.09374L-61.8412 89.5252C-63.2914 66.9454 -55.0357 43.4096 -37.2522 25.6342C-19.4687 7.85876 4.06718 -0.372692 26.647 1.09374Z" fill="#B7B7B8"/>
<path d="M-151.99 178.661L27.5462 178.661L27.5462 358.19L-151.99 358.19L-151.99 178.661Z" fill="#1B1C1C"/>
<path d="M6.67592 346.507C29.8228 329.015 34.4085 296.073 16.9166 272.918C-0.575214 249.771 -33.5172 245.186 -56.6722 262.677" fill="white"/>
<path d="M6.6759 346.507C-16.471 363.999 -49.4212 359.413 -66.913 336.266C-84.4049 313.119 -79.8192 280.169 -56.6723 262.677" fill="#DC4F3B"/>
<path d="M-62.2221 448.071L27.4003 448.071L27.4003 537.694L-62.2221 537.694L-62.2221 448.071Z" fill="white"/>
<path d="M2.07407 472.968C-15.7094 455.193 -39.2534 446.953 -61.8412 448.412L-61.8412 448.428L26.6469 536.859L26.6631 536.859C28.1133 514.271 19.8576 490.744 2.07407 472.968Z" fill="#1B1C1C"/>
<path d="M26.6469 536.859L-61.8412 448.428C-63.2915 471.008 -55.0357 494.544 -37.2522 512.319C-19.4687 530.094 4.07521 538.326 26.6469 536.859Z" fill="#DC4F3B"/>
<path d="M-62.2221 358.449L27.4003 358.449L27.4003 448.071L-62.2221 448.071L-62.2221 358.449Z" fill="#1B1C1C"/>
<path d="M2.07406 423.174C-15.7094 440.95 -39.2534 449.189 -61.8413 447.731L-61.8413 447.715L26.6469 359.283L26.6631 359.283C28.1133 381.871 19.8576 405.399 2.07406 423.174Z" fill="white"/>
<path d="M26.6469 359.284L-61.8413 447.715C-63.2915 425.135 -55.0357 401.599 -37.2522 383.824C-19.4687 366.049 4.07522 357.817 26.6469 359.284Z" fill="#B7B7B8"/>
<path d="M297.248 448.071L297.248 537.694L207.626 537.694L207.626 448.071L297.248 448.071Z" fill="white"/>
<path d="M272.359 512.368C290.134 494.584 298.374 471.04 296.916 448.452L296.9 448.452L208.468 536.941L208.468 536.957C231.056 538.407 254.584 530.151 272.359 512.368Z" fill="#1B1C1C"/>
<path d="M208.46 536.941L296.891 448.452C274.312 447.002 250.776 455.258 233 473.041C215.225 490.825 206.994 514.369 208.46 536.941Z" fill="#DC4F3B"/>
<path d="M207.625 448.071L207.625 358.449L297.248 358.449L297.248 448.071L207.625 448.071Z" fill="#DC4F3B"/>
<path d="M272.359 383.775C290.135 401.559 298.374 425.103 296.916 447.691L296.9 447.691L208.468 359.202L208.468 359.186C231.056 357.736 254.584 365.992 272.359 383.775Z" fill="white"/>
<path d="M208.46 359.203L296.891 447.691C274.312 449.141 250.776 440.885 233 423.102C215.225 405.318 206.994 381.774 208.46 359.203Z" fill="#B7B7B8"/>
<path d="M297.248 537.362L297.248 447.739L386.87 447.739L386.87 537.362L297.248 537.362Z" fill="#B7B7B8"/>
<path d="M322.145 473.066C304.369 490.849 296.13 514.393 297.588 536.981L297.604 536.981L386.036 448.493L386.036 448.477C363.448 447.026 339.92 455.282 322.145 473.066Z" fill="white"/>
<path d="M386.036 448.493L297.604 536.981C320.184 538.431 343.72 530.176 361.495 512.392C379.271 494.609 387.502 471.065 386.036 448.493Z" fill="#1B1C1C"/>
<path d="M117.476 178.75L207.099 178.75L207.099 268.373L117.476 268.373L117.476 178.75Z" fill="#B7B7B8"/>
<path d="M117.477 223.562L207.099 223.562L207.099 268.535L117.477 268.535L117.477 223.562Z" fill="#DC4F3B"/>
<path d="M184.803 223.651C184.851 211.085 174.708 200.868 162.15 200.812C149.584 200.763 139.368 210.907 139.311 223.464L184.803 223.643L184.803 223.651Z" fill="#1B1C1C"/>
<path d="M184.803 223.651C184.754 236.217 174.53 246.352 161.964 246.303C149.398 246.255 139.262 236.03 139.311 223.464" fill="white"/>
<path d="M27.6272 268.284L117.477 268.284L117.476 358.149L27.6272 358.149L27.6272 268.284Z" fill="#B7B7B8"/>
<path d="M27.6272 313.216L117.477 313.216L117.476 358.157L27.6272 358.157L27.6272 313.216Z" fill="#DC4F3B"/>
<path d="M95.1235 313.306C95.1722 300.707 85.0044 290.458 72.406 290.41C59.8077 290.361 49.5589 300.529 49.5103 313.127L95.1155 313.306L95.1235 313.306Z" fill="#1B1C1C"/>
<path d="M95.1236 313.305C95.075 325.904 84.8262 336.072 72.2278 336.023C59.6295 335.974 49.4617 325.717 49.5103 313.127L95.1155 313.305L95.1236 313.305Z" fill="white"/>
<path d="M117.477 268.535L207.099 268.535L207.099 358.157L117.477 358.157L117.477 268.535Z" fill="#DC4F3B"/>
<path d="M27.6273 178.661L117.25 178.661L117.25 268.284L27.6273 268.284L27.6273 178.661Z" fill="#DC4F3B"/>
<path d="M117.509 356.14C142.066 356.14 161.98 336.493 161.98 312.261C161.98 288.028 142.074 268.381 117.509 268.381" fill="white"/>
<path d="M117.201 335.383C129.767 335.432 139.983 325.288 140.04 312.73C140.089 300.164 129.945 289.948 117.387 289.891" fill="#1B1C1C"/>
<path d="M207.383 268.373C183.15 268.373 163.503 288.02 163.503 312.252C163.503 336.485 183.15 356.132 207.382 356.132" fill="#1B1C1C"/>
<path d="M117.298 245.518C104.732 245.469 94.597 235.244 94.6456 222.679C94.6942 210.113 104.919 199.977 117.485 200.026" fill="white"/>
<path d="M72.5195 178.661C72.5195 203.453 52.4188 223.554 27.6272 223.554L27.6272 178.661L72.5195 178.661Z" fill="white"/>
<path d="M27.6272 223.392C52.4188 223.392 72.5195 243.492 72.5195 268.284L27.6272 268.284L27.6272 223.392Z" fill="white"/>
<path d="M117.355 89.8816L206.977 89.8816L206.977 179.504L117.355 179.504L117.355 89.8816Z" fill="#DC4F3B"/>
<path d="M27.7325 89.8816L117.347 89.8816L117.347 179.504L27.7325 179.504L27.7325 89.8816Z" fill="#DC4F3B"/>
<path d="M27.7326 0.251091L117.347 0.251099L117.347 89.8735L27.7326 89.8735L27.7326 0.251091Z" fill="#DC4F3B"/>
<path d="M117.355 0.251335L206.977 0.251343L206.977 89.8737L117.355 89.8737L117.355 0.251335Z" fill="#DC4F3B"/>
<path d="M206.977 19.08L206.977 0.251343L27.7405 0.251327L27.7405 179.496L34.2706 179.496C64.4337 178.564 92.7253 170.187 117.363 156.122C145.014 140.356 168.064 117.428 183.992 89.8737C196.267 68.647 204.312 44.6656 206.985 19.08L206.977 19.08Z" fill="#1B1C1C"/>
<path d="M117.711 0.251144L27.7407 0.251136L27.7407 89.3469C28.0324 89.3469 28.324 89.3469 28.6157 89.3469C75.1283 89.3469 113.32 53.6989 117.355 8.22334C117.59 5.59025 117.711 2.93285 117.711 0.243042L117.711 0.251144Z" fill="white"/>
<path d="M117.711 448.071L117.711 537.694L28.0891 537.694L28.0891 448.071L117.711 448.071Z" fill="#DC4F3B"/>
<path d="M28.0891 358.457L117.711 358.457L117.711 448.072L28.0891 448.072L28.0891 358.457Z" fill="#DC4F3B"/>
<path d="M117.711 358.457L207.334 358.457L207.334 448.072L117.711 448.072L117.711 358.457Z" fill="#DC4F3B"/>
<path d="M117.711 448.072L207.334 448.072L207.334 537.694L117.711 537.694L117.711 448.072Z" fill="#DC4F3B"/>
<path d="M188.505 537.694L207.334 537.694L207.334 358.457L28.0889 358.457L28.0889 364.987C29.0206 395.15 37.3979 423.442 51.4627 448.08C67.2288 475.731 90.157 498.781 117.711 514.709C138.938 526.983 162.92 535.028 188.505 537.702L188.505 537.694Z" fill="#1B1C1C"/>
<path d="M207.334 448.428L207.334 358.457L118.238 358.457C118.238 358.749 118.238 359.041 118.238 359.332C118.238 405.845 153.886 444.037 199.362 448.072C201.995 448.307 204.652 448.428 207.342 448.428L207.334 448.428Z" fill="white"/>
</g>
</g>
<defs>
<clipPath id="clip0_32_2124">
<rect width="386" height="538" fill="white"/>
</clipPath>
<clipPath id="clip1_32_2124">
<rect width="718" height="537.945" fill="white" transform="matrix(-1 -8.74228e-08 -8.74228e-08 1 387 0)"/>
</clipPath>
</defs>
</svg>
