<svg width="37" height="37" viewBox="0 0 37 37" fill="none" xmlns="http://www.w3.org/2000/svg">
<path d="M34.3571 0H2.6346C1.18103 0 0 1.18847 0 2.64742V34.0722C0 35.5311 1.18103 36.7196 2.6346 36.7196H34.3571C35.8107 36.7196 37 35.5311 37 34.0722V2.64742C37 1.18847 35.8107 0 34.3571 0ZM11.1826 31.474H5.69866V13.9502H11.1908V31.474H11.1826ZM8.44062 11.5568C6.68147 11.5568 5.26094 10.1389 5.26094 8.40125C5.26094 6.66363 6.68147 5.24566 8.44062 5.24566C10.1915 5.24566 11.6203 6.66363 11.6203 8.40125C11.6203 10.1471 10.1998 11.5568 8.44062 11.5568ZM31.7391 31.474H26.2551V22.9498C26.2551 20.9171 26.2138 18.3024 23.4058 18.3024C20.5482 18.3024 20.1105 20.5154 20.1105 22.8022V31.474H14.6266V13.9502H19.8875V16.3435H19.9618C20.6969 14.9665 22.4891 13.5158 25.1567 13.5158C30.7067 13.5158 31.7391 17.1467 31.7391 21.8678V31.474Z" fill="#F6F5F4"/>
</svg>
