<svg width="1496" height="338" viewBox="0 0 1496 338" fill="none" xmlns="http://www.w3.org/2000/svg">
<rect x="647" y="71" width="198" height="79" rx="5" fill="#C5CED8"/>
<path d="M724.337 104.148H726.443L732.797 113.418H732.869V104.148H734.993V117H732.941L726.515 107.604H726.443V117H724.337V104.148ZM741.301 107.442C742.831 107.442 744.001 107.946 744.811 108.99C745.549 109.926 745.927 111.24 745.927 112.914H738.961C739.033 113.778 739.267 114.444 739.663 114.894C740.059 115.344 740.635 115.578 741.373 115.578C742.003 115.578 742.507 115.434 742.903 115.146C743.209 114.912 743.479 114.534 743.731 114.012H745.783C745.567 114.876 745.135 115.614 744.487 116.19C743.659 116.892 742.633 117.252 741.391 117.252C740.005 117.252 738.907 116.82 738.097 115.974C737.233 115.092 736.801 113.886 736.801 112.338C736.801 110.952 737.197 109.8 738.025 108.864C738.817 107.91 739.915 107.442 741.301 107.442ZM741.355 109.116C740.671 109.116 740.149 109.296 739.753 109.692C739.375 110.07 739.123 110.628 738.997 111.366H743.785C743.605 109.854 742.795 109.116 741.355 109.116ZM746.564 107.694H748.832L750.686 114.57L752.522 107.694H754.412L756.248 114.57L758.102 107.694H760.37L757.238 117H755.33L753.476 110.196L751.604 117H749.696L746.564 107.694ZM765.056 107.442C767.504 107.442 768.854 108.414 769.07 110.394H767.072C766.928 109.926 766.712 109.584 766.424 109.404C766.118 109.206 765.65 109.116 765.02 109.116C764.48 109.116 764.066 109.188 763.796 109.35C763.472 109.512 763.328 109.764 763.328 110.124C763.328 110.412 763.562 110.682 764.066 110.898C764.372 111.024 764.984 111.204 765.92 111.438C766.964 111.69 767.756 111.978 768.26 112.32C768.998 112.788 769.376 113.454 769.376 114.282C769.376 116.262 767.972 117.252 765.182 117.252C762.59 117.252 761.204 116.154 761.006 113.976H763.004C763.112 114.57 763.328 114.984 763.634 115.236C763.94 115.452 764.426 115.578 765.11 115.578C766.55 115.578 767.27 115.182 767.27 114.426C767.27 113.994 767 113.652 766.46 113.4C766.172 113.256 765.56 113.094 764.624 112.878C763.526 112.626 762.752 112.356 762.302 112.068C761.582 111.618 761.222 110.988 761.222 110.178C761.222 109.314 761.564 108.648 762.284 108.18C762.986 107.676 763.904 107.442 765.056 107.442Z" fill="#505B67"/>
<rect x="647" y="259" width="198" height="79" rx="5" fill="#C5CED8"/>
<path d="M694.762 292.148H696.85V303.2H703.798V305H694.762V292.148ZM706.62 291.896C707.016 291.896 707.358 292.022 707.628 292.274C707.88 292.526 708.024 292.85 708.024 293.246C708.024 293.642 707.88 293.984 707.61 294.236C707.34 294.488 707.016 294.614 706.62 294.614C706.224 294.614 705.9 294.488 705.63 294.236C705.36 293.966 705.234 293.642 705.234 293.246C705.234 292.85 705.36 292.526 705.63 292.274C705.9 292.022 706.224 291.896 706.62 291.896ZM705.594 295.694H707.646V305H705.594V295.694ZM713.701 295.442C716.149 295.442 717.499 296.414 717.715 298.394H715.717C715.573 297.926 715.357 297.584 715.069 297.404C714.763 297.206 714.295 297.116 713.665 297.116C713.125 297.116 712.711 297.188 712.441 297.35C712.117 297.512 711.973 297.764 711.973 298.124C711.973 298.412 712.207 298.682 712.711 298.898C713.017 299.024 713.629 299.204 714.565 299.438C715.609 299.69 716.401 299.978 716.905 300.32C717.643 300.788 718.021 301.454 718.021 302.282C718.021 304.262 716.617 305.252 713.827 305.252C711.235 305.252 709.849 304.154 709.651 301.976H711.649C711.757 302.57 711.973 302.984 712.279 303.236C712.585 303.452 713.071 303.578 713.755 303.578C715.195 303.578 715.915 303.182 715.915 302.426C715.915 301.994 715.645 301.652 715.105 301.4C714.817 301.256 714.205 301.094 713.269 300.878C712.171 300.626 711.397 300.356 710.947 300.068C710.227 299.618 709.867 298.988 709.867 298.178C709.867 297.314 710.209 296.648 710.929 296.18C711.631 295.676 712.549 295.442 713.701 295.442ZM722.564 292.688V295.694H724.634V297.386H722.564V302.642C722.564 302.858 722.6 303.02 722.708 303.146C722.816 303.254 722.96 303.308 723.176 303.308H724.4V305H722.834C722.024 305 721.43 304.784 721.052 304.352C720.692 303.956 720.512 303.398 720.512 302.642V297.386H718.838V295.694H720.512V293.534L722.564 292.688ZM727.556 291.896C727.952 291.896 728.294 292.022 728.564 292.274C728.816 292.526 728.96 292.85 728.96 293.246C728.96 293.642 728.816 293.984 728.546 294.236C728.276 294.488 727.952 294.614 727.556 294.614C727.16 294.614 726.836 294.488 726.566 294.236C726.296 293.966 726.17 293.642 726.17 293.246C726.17 292.85 726.296 292.526 726.566 292.274C726.836 292.022 727.16 291.896 727.556 291.896ZM726.53 295.694H728.582V305H726.53V295.694ZM735.933 295.442C738.255 295.442 739.425 296.702 739.425 299.258V305H737.373V299.438C737.373 297.908 736.671 297.152 735.267 297.152C734.763 297.152 734.313 297.332 733.935 297.692C733.503 298.088 733.251 298.664 733.179 299.402V305H731.127V295.694H733.179V296.774C733.539 296.342 733.953 296 734.403 295.784C734.871 295.55 735.375 295.442 735.933 295.442ZM745.456 295.442C746.608 295.442 747.526 295.892 748.21 296.828V295.694H750.262V304.406C750.262 307.34 748.804 308.816 745.888 308.816C744.574 308.816 743.584 308.564 742.9 308.096C742.216 307.592 741.784 306.836 741.604 305.792H743.656C743.764 306.314 743.98 306.674 744.322 306.89C744.646 307.088 745.168 307.196 745.888 307.196C747.436 307.196 748.21 306.368 748.21 304.712V303.344C747.526 304.298 746.608 304.784 745.456 304.784C744.196 304.784 743.17 304.352 742.396 303.524C741.604 302.678 741.226 301.544 741.226 300.14C741.226 298.736 741.604 297.602 742.396 296.738C743.17 295.874 744.196 295.442 745.456 295.442ZM745.78 297.098C745.006 297.098 744.412 297.368 743.98 297.908C743.548 298.43 743.332 299.168 743.332 300.14C743.332 301.022 743.494 301.706 743.836 302.21C744.232 302.804 744.862 303.11 745.762 303.11C746.554 303.11 747.166 302.84 747.598 302.336C748.012 301.796 748.228 301.076 748.228 300.14C748.228 299.186 748.012 298.448 747.598 297.908C747.166 297.368 746.554 297.098 745.78 297.098ZM763.124 295.442C764.492 295.442 765.572 295.928 766.364 296.9C767.084 297.8 767.444 298.952 767.444 300.392C767.444 301.76 767.084 302.894 766.382 303.794C765.626 304.766 764.564 305.252 763.232 305.252C762.152 305.252 761.216 304.73 760.46 303.722V308.564H758.408V295.694H760.316V296.684C760.964 295.856 761.9 295.442 763.124 295.442ZM762.818 297.098C762.008 297.098 761.396 297.404 760.964 298.052C760.568 298.61 760.388 299.348 760.388 300.284V300.428C760.388 301.4 760.622 302.192 761.108 302.786C761.54 303.326 762.08 303.596 762.746 303.596C763.646 303.596 764.33 303.29 764.762 302.714C765.14 302.174 765.338 301.4 765.338 300.392C765.338 299.384 765.158 298.61 764.816 298.07C764.384 297.422 763.718 297.098 762.818 297.098ZM773.466 295.442C774.834 295.442 775.86 295.784 776.508 296.468C777.084 297.062 777.372 297.926 777.372 299.06V305H775.464V303.776C775.104 304.244 774.654 304.586 774.132 304.838C773.538 305.108 772.836 305.252 772.026 305.252C771.054 305.252 770.298 305 769.74 304.514C769.164 304.01 768.876 303.38 768.876 302.606C768.876 301.562 769.272 300.752 770.1 300.194C770.856 299.654 771.918 299.366 773.286 299.33L775.32 299.276V298.916C775.32 297.692 774.654 297.098 773.322 297.098C772.746 297.098 772.296 297.188 771.954 297.404C771.558 297.638 771.288 297.998 771.18 298.484L769.146 298.322C769.344 297.296 769.848 296.54 770.658 296.072C771.342 295.64 772.278 295.442 773.466 295.442ZM775.32 300.752L773.43 300.806C771.792 300.842 770.982 301.418 770.982 302.534C770.982 302.858 771.108 303.128 771.396 303.344C771.684 303.56 772.044 303.686 772.494 303.686C773.286 303.686 773.952 303.452 774.492 303.002C775.032 302.534 775.32 301.94 775.32 301.22V300.752ZM783.407 295.442C784.559 295.442 785.477 295.892 786.161 296.828V295.694H788.213V304.406C788.213 307.34 786.755 308.816 783.839 308.816C782.525 308.816 781.535 308.564 780.851 308.096C780.167 307.592 779.735 306.836 779.555 305.792H781.607C781.715 306.314 781.931 306.674 782.273 306.89C782.597 307.088 783.119 307.196 783.839 307.196C785.387 307.196 786.161 306.368 786.161 304.712V303.344C785.477 304.298 784.559 304.784 783.407 304.784C782.147 304.784 781.121 304.352 780.347 303.524C779.555 302.678 779.177 301.544 779.177 300.14C779.177 298.736 779.555 297.602 780.347 296.738C781.121 295.874 782.147 295.442 783.407 295.442ZM783.731 297.098C782.957 297.098 782.363 297.368 781.931 297.908C781.499 298.43 781.283 299.168 781.283 300.14C781.283 301.022 781.445 301.706 781.787 302.21C782.183 302.804 782.813 303.11 783.713 303.11C784.505 303.11 785.117 302.84 785.549 302.336C785.963 301.796 786.179 301.076 786.179 300.14C786.179 299.186 785.963 298.448 785.549 297.908C785.117 297.368 784.505 297.098 783.731 297.098ZM794.325 295.442C795.855 295.442 797.025 295.946 797.835 296.99C798.573 297.926 798.951 299.24 798.951 300.914H791.985C792.057 301.778 792.291 302.444 792.687 302.894C793.083 303.344 793.659 303.578 794.397 303.578C795.027 303.578 795.531 303.434 795.927 303.146C796.233 302.912 796.503 302.534 796.755 302.012H798.807C798.591 302.876 798.159 303.614 797.511 304.19C796.683 304.892 795.657 305.252 794.415 305.252C793.029 305.252 791.931 304.82 791.121 303.974C790.257 303.092 789.825 301.886 789.825 300.338C789.825 298.952 790.221 297.8 791.049 296.864C791.841 295.91 792.939 295.442 794.325 295.442ZM794.379 297.116C793.695 297.116 793.173 297.296 792.777 297.692C792.399 298.07 792.147 298.628 792.021 299.366H796.809C796.629 297.854 795.819 297.116 794.379 297.116Z" fill="#505B67"/>
<rect x="329" y="71" width="198" height="79" rx="5" fill="#C5CED8"/>
<path d="M396.151 91.148H398.617L402.991 101.228H403.063L407.419 91.148H409.885V104H407.779V95.144H407.707L403.927 104H402.109L398.329 95.144H398.257V104H396.151V91.148ZM416.19 94.442C417.72 94.442 418.89 94.946 419.7 95.99C420.438 96.926 420.816 98.24 420.816 99.914H413.85C413.922 100.778 414.156 101.444 414.552 101.894C414.948 102.344 415.524 102.578 416.262 102.578C416.892 102.578 417.396 102.434 417.792 102.146C418.098 101.912 418.368 101.534 418.62 101.012H420.672C420.456 101.876 420.024 102.614 419.376 103.19C418.548 103.892 417.522 104.252 416.28 104.252C414.894 104.252 413.796 103.82 412.986 102.974C412.122 102.092 411.69 100.886 411.69 99.338C411.69 97.952 412.086 96.8 412.914 95.864C413.706 94.91 414.804 94.442 416.19 94.442ZM416.244 96.116C415.56 96.116 415.038 96.296 414.642 96.692C414.264 97.07 414.012 97.628 413.886 98.366H418.674C418.494 96.854 417.684 96.116 416.244 96.116ZM429.067 90.896H431.119V104H429.211V103.01C428.563 103.838 427.627 104.252 426.403 104.252C425.017 104.252 423.937 103.766 423.163 102.794C422.443 101.894 422.083 100.724 422.083 99.302C422.083 97.934 422.425 96.8 423.145 95.9C423.901 94.928 424.963 94.442 426.295 94.442C427.375 94.442 428.293 94.946 429.067 95.972V90.896ZM426.781 96.098C425.845 96.098 425.179 96.404 424.747 97.016C424.369 97.538 424.189 98.294 424.189 99.302C424.189 100.31 424.351 101.084 424.711 101.624C425.125 102.272 425.791 102.596 426.709 102.596C427.501 102.596 428.131 102.272 428.563 101.642C428.941 101.066 429.139 100.31 429.139 99.41V99.266C429.139 98.276 428.887 97.484 428.419 96.908C427.987 96.368 427.429 96.098 426.781 96.098ZM434.657 90.896C435.053 90.896 435.395 91.022 435.665 91.274C435.917 91.526 436.061 91.85 436.061 92.246C436.061 92.642 435.917 92.984 435.647 93.236C435.377 93.488 435.053 93.614 434.657 93.614C434.261 93.614 433.937 93.488 433.667 93.236C433.397 92.966 433.271 92.642 433.271 92.246C433.271 91.85 433.397 91.526 433.667 91.274C433.937 91.022 434.261 90.896 434.657 90.896ZM433.631 94.694H435.683V104H433.631V94.694ZM442.404 94.442C443.61 94.442 444.564 94.712 445.284 95.252C446.022 95.828 446.49 96.692 446.67 97.862H444.636C444.51 97.268 444.258 96.836 443.898 96.548C443.52 96.26 443.016 96.116 442.404 96.116C441.648 96.116 441.054 96.386 440.622 96.962C440.19 97.52 439.974 98.312 439.974 99.32C439.974 100.346 440.172 101.156 440.604 101.732C441 102.29 441.594 102.578 442.386 102.578C443.754 102.578 444.51 101.894 444.672 100.544H446.706C446.49 101.804 446.004 102.74 445.266 103.352C444.546 103.946 443.574 104.252 442.368 104.252C440.928 104.252 439.812 103.784 439.02 102.848C438.246 101.948 437.868 100.778 437.868 99.338C437.868 97.934 438.246 96.782 439.002 95.9C439.812 94.928 440.946 94.442 442.404 94.442ZM452.548 94.442C453.916 94.442 454.942 94.784 455.59 95.468C456.166 96.062 456.454 96.926 456.454 98.06V104H454.546V102.776C454.186 103.244 453.736 103.586 453.214 103.838C452.62 104.108 451.918 104.252 451.108 104.252C450.136 104.252 449.38 104 448.822 103.514C448.246 103.01 447.958 102.38 447.958 101.606C447.958 100.562 448.354 99.752 449.182 99.194C449.938 98.654 451 98.366 452.368 98.33L454.402 98.276V97.916C454.402 96.692 453.736 96.098 452.404 96.098C451.828 96.098 451.378 96.188 451.036 96.404C450.64 96.638 450.37 96.998 450.262 97.484L448.228 97.322C448.426 96.296 448.93 95.54 449.74 95.072C450.424 94.64 451.36 94.442 452.548 94.442ZM454.402 99.752L452.512 99.806C450.874 99.842 450.064 100.418 450.064 101.534C450.064 101.858 450.19 102.128 450.478 102.344C450.766 102.56 451.126 102.686 451.576 102.686C452.368 102.686 453.034 102.452 453.574 102.002C454.114 101.534 454.402 100.94 454.402 100.22V99.752ZM458.799 90.896H460.851V104H458.799V90.896ZM371.866 116.148H377.194C380.29 116.148 381.856 117.462 381.856 120.09C381.856 122.736 380.29 124.068 377.158 124.068H373.972V129H371.866V116.148ZM373.972 117.948V122.268H377.032C377.968 122.268 378.652 122.088 379.084 121.764C379.516 121.422 379.732 120.864 379.732 120.09C379.732 119.316 379.498 118.776 379.066 118.452C378.634 118.11 377.95 117.948 377.032 117.948H373.972ZM387.873 119.442C388.323 119.442 388.719 119.514 389.043 119.676V121.728C388.575 121.584 388.143 121.53 387.711 121.53C387.171 121.53 386.685 121.728 386.253 122.16C385.749 122.646 385.515 123.276 385.515 124.068V129H383.481V119.694H385.515V121.026C385.767 120.558 386.055 120.198 386.397 119.946C386.811 119.604 387.297 119.442 387.873 119.442ZM394.534 119.442C395.938 119.442 397.072 119.892 397.936 120.828C398.782 121.746 399.214 122.916 399.214 124.356C399.214 125.778 398.782 126.948 397.954 127.848C397.09 128.784 395.938 129.252 394.534 129.252C393.112 129.252 391.978 128.784 391.114 127.848C390.268 126.948 389.854 125.778 389.854 124.356C389.854 122.916 390.268 121.746 391.132 120.828C391.978 119.892 393.112 119.442 394.534 119.442ZM394.534 121.116C393.67 121.116 393.022 121.44 392.554 122.124C392.158 122.7 391.96 123.456 391.96 124.356C391.96 125.256 392.158 125.994 392.554 126.57C393.022 127.236 393.67 127.578 394.534 127.578C395.38 127.578 396.046 127.236 396.514 126.57C396.91 125.976 397.126 125.238 397.126 124.356C397.126 123.456 396.91 122.7 396.514 122.124C396.046 121.44 395.38 121.116 394.534 121.116ZM404.661 116.148H406.641V117.876H404.949C404.679 117.876 404.481 117.948 404.337 118.092C404.193 118.236 404.139 118.452 404.139 118.758V119.694H406.515V121.368H404.139V129H402.087V121.368H400.017V119.694H402.087V118.704C402.087 117.912 402.303 117.282 402.753 116.832C403.185 116.364 403.833 116.148 404.661 116.148ZM411.769 119.442C413.299 119.442 414.469 119.946 415.279 120.99C416.017 121.926 416.395 123.24 416.395 124.914H409.429C409.501 125.778 409.735 126.444 410.131 126.894C410.527 127.344 411.103 127.578 411.841 127.578C412.471 127.578 412.975 127.434 413.371 127.146C413.677 126.912 413.947 126.534 414.199 126.012H416.251C416.035 126.876 415.603 127.614 414.955 128.19C414.127 128.892 413.101 129.252 411.859 129.252C410.473 129.252 409.375 128.82 408.565 127.974C407.701 127.092 407.269 125.886 407.269 124.338C407.269 122.952 407.665 121.8 408.493 120.864C409.285 119.91 410.383 119.442 411.769 119.442ZM411.823 121.116C411.139 121.116 410.617 121.296 410.221 121.692C409.843 122.07 409.591 122.628 409.465 123.366H414.253C414.073 121.854 413.263 121.116 411.823 121.116ZM421.532 119.442C423.98 119.442 425.33 120.414 425.546 122.394H423.548C423.404 121.926 423.188 121.584 422.9 121.404C422.594 121.206 422.126 121.116 421.496 121.116C420.956 121.116 420.542 121.188 420.272 121.35C419.948 121.512 419.804 121.764 419.804 122.124C419.804 122.412 420.038 122.682 420.542 122.898C420.848 123.024 421.46 123.204 422.396 123.438C423.44 123.69 424.232 123.978 424.736 124.32C425.474 124.788 425.852 125.454 425.852 126.282C425.852 128.262 424.448 129.252 421.658 129.252C419.066 129.252 417.68 128.154 417.482 125.976H419.48C419.588 126.57 419.804 126.984 420.11 127.236C420.416 127.452 420.902 127.578 421.586 127.578C423.026 127.578 423.746 127.182 423.746 126.426C423.746 125.994 423.476 125.652 422.936 125.4C422.648 125.256 422.036 125.094 421.1 124.878C420.002 124.626 419.228 124.356 418.778 124.068C418.058 123.618 417.698 122.988 417.698 122.178C417.698 121.314 418.04 120.648 418.76 120.18C419.462 119.676 420.38 119.442 421.532 119.442ZM430.989 119.442C433.437 119.442 434.787 120.414 435.003 122.394H433.005C432.861 121.926 432.645 121.584 432.357 121.404C432.051 121.206 431.583 121.116 430.953 121.116C430.413 121.116 429.999 121.188 429.729 121.35C429.405 121.512 429.261 121.764 429.261 122.124C429.261 122.412 429.495 122.682 429.999 122.898C430.305 123.024 430.917 123.204 431.853 123.438C432.897 123.69 433.689 123.978 434.193 124.32C434.931 124.788 435.309 125.454 435.309 126.282C435.309 128.262 433.905 129.252 431.115 129.252C428.523 129.252 427.137 128.154 426.939 125.976H428.937C429.045 126.57 429.261 126.984 429.567 127.236C429.873 127.452 430.359 127.578 431.043 127.578C432.483 127.578 433.203 127.182 433.203 126.426C433.203 125.994 432.933 125.652 432.393 125.4C432.105 125.256 431.493 125.094 430.557 124.878C429.459 124.626 428.685 124.356 428.235 124.068C427.515 123.618 427.155 122.988 427.155 122.178C427.155 121.314 427.497 120.648 428.217 120.18C428.919 119.676 429.837 119.442 430.989 119.442ZM438.322 115.896C438.718 115.896 439.06 116.022 439.33 116.274C439.582 116.526 439.726 116.85 439.726 117.246C439.726 117.642 439.582 117.984 439.312 118.236C439.042 118.488 438.718 118.614 438.322 118.614C437.926 118.614 437.602 118.488 437.332 118.236C437.062 117.966 436.936 117.642 436.936 117.246C436.936 116.85 437.062 116.526 437.332 116.274C437.602 116.022 437.926 115.896 438.322 115.896ZM437.296 119.694H439.348V129H437.296V119.694ZM446.213 119.442C447.617 119.442 448.751 119.892 449.615 120.828C450.461 121.746 450.893 122.916 450.893 124.356C450.893 125.778 450.461 126.948 449.633 127.848C448.769 128.784 447.617 129.252 446.213 129.252C444.791 129.252 443.657 128.784 442.793 127.848C441.947 126.948 441.533 125.778 441.533 124.356C441.533 122.916 441.947 121.746 442.811 120.828C443.657 119.892 444.791 119.442 446.213 119.442ZM446.213 121.116C445.349 121.116 444.701 121.44 444.233 122.124C443.837 122.7 443.639 123.456 443.639 124.356C443.639 125.256 443.837 125.994 444.233 126.57C444.701 127.236 445.349 127.578 446.213 127.578C447.059 127.578 447.725 127.236 448.193 126.57C448.589 125.976 448.805 125.238 448.805 124.356C448.805 123.456 448.589 122.7 448.193 122.124C447.725 121.44 447.059 121.116 446.213 121.116ZM457.492 119.442C459.814 119.442 460.984 120.702 460.984 123.258V129H458.932V123.438C458.932 121.908 458.23 121.152 456.826 121.152C456.322 121.152 455.872 121.332 455.494 121.692C455.062 122.088 454.81 122.664 454.738 123.402V129H452.686V119.694H454.738V120.774C455.098 120.342 455.512 120 455.962 119.784C456.43 119.55 456.934 119.442 457.492 119.442ZM467.375 119.442C468.743 119.442 469.769 119.784 470.417 120.468C470.993 121.062 471.281 121.926 471.281 123.06V129H469.373V127.776C469.013 128.244 468.563 128.586 468.041 128.838C467.447 129.108 466.745 129.252 465.935 129.252C464.963 129.252 464.207 129 463.649 128.514C463.073 128.01 462.785 127.38 462.785 126.606C462.785 125.562 463.181 124.752 464.009 124.194C464.765 123.654 465.827 123.366 467.195 123.33L469.229 123.276V122.916C469.229 121.692 468.563 121.098 467.231 121.098C466.655 121.098 466.205 121.188 465.863 121.404C465.467 121.638 465.197 121.998 465.089 122.484L463.055 122.322C463.253 121.296 463.757 120.54 464.567 120.072C465.251 119.64 466.187 119.442 467.375 119.442ZM469.229 124.752L467.339 124.806C465.701 124.842 464.891 125.418 464.891 126.534C464.891 126.858 465.017 127.128 465.305 127.344C465.593 127.56 465.953 127.686 466.403 127.686C467.195 127.686 467.861 127.452 468.401 127.002C468.941 126.534 469.229 125.94 469.229 125.22V124.752ZM473.626 115.896H475.678V129H473.626V115.896ZM481.527 119.442C483.975 119.442 485.325 120.414 485.541 122.394H483.543C483.399 121.926 483.183 121.584 482.895 121.404C482.589 121.206 482.121 121.116 481.491 121.116C480.951 121.116 480.537 121.188 480.267 121.35C479.943 121.512 479.799 121.764 479.799 122.124C479.799 122.412 480.033 122.682 480.537 122.898C480.843 123.024 481.455 123.204 482.391 123.438C483.435 123.69 484.227 123.978 484.731 124.32C485.469 124.788 485.847 125.454 485.847 126.282C485.847 128.262 484.443 129.252 481.653 129.252C479.061 129.252 477.675 128.154 477.477 125.976H479.475C479.583 126.57 479.799 126.984 480.105 127.236C480.411 127.452 480.897 127.578 481.581 127.578C483.021 127.578 483.741 127.182 483.741 126.426C483.741 125.994 483.471 125.652 482.931 125.4C482.643 125.256 482.031 125.094 481.095 124.878C479.997 124.626 479.223 124.356 478.773 124.068C478.053 123.618 477.693 122.988 477.693 122.178C477.693 121.314 478.035 120.648 478.755 120.18C479.457 119.676 480.375 119.442 481.527 119.442Z" fill="#505B67"/>
<rect x="962" y="71" width="198" height="79" rx="5" fill="#C5CED8"/>
<path d="M1034.11 104.148H1043.38V105.948H1036.21V109.512H1042.95V111.312H1036.21V115.2H1043.68V117H1034.11V104.148ZM1044.49 107.694H1046.72L1048.95 114.444L1051.18 107.694H1053.41L1049.98 117H1047.92L1044.49 107.694ZM1058.54 107.442C1060.07 107.442 1061.24 107.946 1062.05 108.99C1062.79 109.926 1063.17 111.24 1063.17 112.914H1056.2C1056.27 113.778 1056.51 114.444 1056.9 114.894C1057.3 115.344 1057.88 115.578 1058.61 115.578C1059.24 115.578 1059.75 115.434 1060.14 115.146C1060.45 114.912 1060.72 114.534 1060.97 114.012H1063.02C1062.81 114.876 1062.38 115.614 1061.73 116.19C1060.9 116.892 1059.87 117.252 1058.63 117.252C1057.25 117.252 1056.15 116.82 1055.34 115.974C1054.47 115.092 1054.04 113.886 1054.04 112.338C1054.04 110.952 1054.44 109.8 1055.27 108.864C1056.06 107.91 1057.16 107.442 1058.54 107.442ZM1058.6 109.116C1057.91 109.116 1057.39 109.296 1056.99 109.692C1056.62 110.07 1056.36 110.628 1056.24 111.366H1061.03C1060.85 109.854 1060.04 109.116 1058.6 109.116ZM1069.6 107.442C1071.92 107.442 1073.09 108.702 1073.09 111.258V117H1071.04V111.438C1071.04 109.908 1070.34 109.152 1068.93 109.152C1068.43 109.152 1067.98 109.332 1067.6 109.692C1067.17 110.088 1066.92 110.664 1066.85 111.402V117H1064.79V107.694H1066.85V108.774C1067.21 108.342 1067.62 108 1068.07 107.784C1068.54 107.55 1069.04 107.442 1069.6 107.442ZM1078.17 104.688V107.694H1080.24V109.386H1078.17V114.642C1078.17 114.858 1078.21 115.02 1078.31 115.146C1078.42 115.254 1078.57 115.308 1078.78 115.308H1080.01V117H1078.44C1077.63 117 1077.04 116.784 1076.66 116.352C1076.3 115.956 1076.12 115.398 1076.12 114.642V109.386H1074.44V107.694H1076.12V105.534L1078.17 104.688ZM1085.29 107.442C1087.73 107.442 1089.08 108.414 1089.3 110.394H1087.3C1087.16 109.926 1086.94 109.584 1086.65 109.404C1086.35 109.206 1085.88 109.116 1085.25 109.116C1084.71 109.116 1084.3 109.188 1084.03 109.35C1083.7 109.512 1083.56 109.764 1083.56 110.124C1083.56 110.412 1083.79 110.682 1084.3 110.898C1084.6 111.024 1085.21 111.204 1086.15 111.438C1087.19 111.69 1087.99 111.978 1088.49 112.32C1089.23 112.788 1089.61 113.454 1089.61 114.282C1089.61 116.262 1088.2 117.252 1085.41 117.252C1082.82 117.252 1081.43 116.154 1081.24 113.976H1083.23C1083.34 114.57 1083.56 114.984 1083.86 115.236C1084.17 115.452 1084.66 115.578 1085.34 115.578C1086.78 115.578 1087.5 115.182 1087.5 114.426C1087.5 113.994 1087.23 113.652 1086.69 113.4C1086.4 113.256 1085.79 113.094 1084.85 112.878C1083.76 112.626 1082.98 112.356 1082.53 112.068C1081.81 111.618 1081.45 110.988 1081.45 110.178C1081.45 109.314 1081.79 108.648 1082.51 108.18C1083.22 107.676 1084.13 107.442 1085.29 107.442Z" fill="#505B67"/>
<rect x="1298" y="71" width="198" height="79" rx="5" fill="#C5CED8"/>
<path d="M1353.77 104.148H1359.49C1360.81 104.148 1361.85 104.436 1362.61 105.03C1363.4 105.678 1363.81 106.614 1363.81 107.838C1363.81 108.504 1363.63 109.098 1363.27 109.62C1362.88 110.196 1362.32 110.574 1361.63 110.754V110.79C1362.75 111.042 1363.38 111.78 1363.52 113.04L1363.74 115.11C1363.81 115.902 1364.08 116.532 1364.51 117H1362.23C1361.92 116.604 1361.74 116.046 1361.67 115.326L1361.51 113.742C1361.44 113.04 1361.22 112.536 1360.86 112.23C1360.48 111.906 1359.92 111.762 1359.2 111.762H1355.87V117H1353.77V104.148ZM1355.87 105.948V109.962H1359.2C1360.03 109.962 1360.66 109.782 1361.09 109.44C1361.49 109.08 1361.69 108.576 1361.69 107.928C1361.69 107.226 1361.49 106.722 1361.09 106.416C1360.7 106.092 1360.07 105.948 1359.2 105.948H1355.87ZM1370.1 107.442C1371.63 107.442 1372.8 107.946 1373.61 108.99C1374.35 109.926 1374.73 111.24 1374.73 112.914H1367.76C1367.83 113.778 1368.07 114.444 1368.46 114.894C1368.86 115.344 1369.43 115.578 1370.17 115.578C1370.8 115.578 1371.31 115.434 1371.7 115.146C1372.01 114.912 1372.28 114.534 1372.53 114.012H1374.58C1374.37 114.876 1373.93 115.614 1373.29 116.19C1372.46 116.892 1371.43 117.252 1370.19 117.252C1368.8 117.252 1367.71 116.82 1366.9 115.974C1366.03 115.092 1365.6 113.886 1365.6 112.338C1365.6 110.952 1366 109.8 1366.82 108.864C1367.62 107.91 1368.71 107.442 1370.1 107.442ZM1370.15 109.116C1369.47 109.116 1368.95 109.296 1368.55 109.692C1368.17 110.07 1367.92 110.628 1367.8 111.366H1372.58C1372.4 109.854 1371.59 109.116 1370.15 109.116ZM1379.86 107.442C1382.31 107.442 1383.66 108.414 1383.88 110.394H1381.88C1381.73 109.926 1381.52 109.584 1381.23 109.404C1380.92 109.206 1380.46 109.116 1379.83 109.116C1379.29 109.116 1378.87 109.188 1378.6 109.35C1378.28 109.512 1378.13 109.764 1378.13 110.124C1378.13 110.412 1378.37 110.682 1378.87 110.898C1379.18 111.024 1379.79 111.204 1380.73 111.438C1381.77 111.69 1382.56 111.978 1383.07 112.32C1383.8 112.788 1384.18 113.454 1384.18 114.282C1384.18 116.262 1382.78 117.252 1379.99 117.252C1377.4 117.252 1376.01 116.154 1375.81 113.976H1377.81C1377.92 114.57 1378.13 114.984 1378.44 115.236C1378.75 115.452 1379.23 115.578 1379.92 115.578C1381.36 115.578 1382.08 115.182 1382.08 114.426C1382.08 113.994 1381.81 113.652 1381.27 113.4C1380.98 113.256 1380.37 113.094 1379.43 112.878C1378.33 112.626 1377.56 112.356 1377.11 112.068C1376.39 111.618 1376.03 110.988 1376.03 110.178C1376.03 109.314 1376.37 108.648 1377.09 108.18C1377.79 107.676 1378.71 107.442 1379.86 107.442ZM1390.13 107.442C1391.53 107.442 1392.67 107.892 1393.53 108.828C1394.38 109.746 1394.81 110.916 1394.81 112.356C1394.81 113.778 1394.38 114.948 1393.55 115.848C1392.69 116.784 1391.53 117.252 1390.13 117.252C1388.71 117.252 1387.57 116.784 1386.71 115.848C1385.86 114.948 1385.45 113.778 1385.45 112.356C1385.45 110.916 1385.86 109.746 1386.73 108.828C1387.57 107.892 1388.71 107.442 1390.13 107.442ZM1390.13 109.116C1389.27 109.116 1388.62 109.44 1388.15 110.124C1387.75 110.7 1387.56 111.456 1387.56 112.356C1387.56 113.256 1387.75 113.994 1388.15 114.57C1388.62 115.236 1389.27 115.578 1390.13 115.578C1390.98 115.578 1391.64 115.236 1392.11 114.57C1392.51 113.976 1392.72 113.238 1392.72 112.356C1392.72 111.456 1392.51 110.7 1392.11 110.124C1391.64 109.44 1390.98 109.116 1390.13 109.116ZM1396.6 107.694H1398.65V113.364C1398.65 114.12 1398.8 114.66 1399.12 115.02C1399.45 115.362 1399.95 115.542 1400.67 115.542C1401.12 115.542 1401.55 115.344 1401.97 114.966C1402.38 114.57 1402.69 114.048 1402.87 113.382V107.694H1404.92V117H1402.87V115.794C1402.07 116.766 1401.1 117.252 1399.95 117.252C1397.72 117.252 1396.6 115.992 1396.6 113.49V107.694ZM1411.47 107.442C1411.92 107.442 1412.32 107.514 1412.64 107.676V109.728C1412.17 109.584 1411.74 109.53 1411.31 109.53C1410.77 109.53 1410.28 109.728 1409.85 110.16C1409.35 110.646 1409.11 111.276 1409.11 112.068V117H1407.08V107.694H1409.11V109.026C1409.37 108.558 1409.65 108.198 1410 107.946C1410.41 107.604 1410.9 107.442 1411.47 107.442ZM1417.99 107.442C1419.19 107.442 1420.15 107.712 1420.87 108.252C1421.61 108.828 1422.07 109.692 1422.25 110.862H1420.22C1420.09 110.268 1419.84 109.836 1419.48 109.548C1419.1 109.26 1418.6 109.116 1417.99 109.116C1417.23 109.116 1416.64 109.386 1416.21 109.962C1415.77 110.52 1415.56 111.312 1415.56 112.32C1415.56 113.346 1415.76 114.156 1416.19 114.732C1416.58 115.29 1417.18 115.578 1417.97 115.578C1419.34 115.578 1420.09 114.894 1420.26 113.544H1422.29C1422.07 114.804 1421.59 115.74 1420.85 116.352C1420.13 116.946 1419.16 117.252 1417.95 117.252C1416.51 117.252 1415.4 116.784 1414.6 115.848C1413.83 114.948 1413.45 113.778 1413.45 112.338C1413.45 110.934 1413.83 109.782 1414.59 108.9C1415.4 107.928 1416.53 107.442 1417.99 107.442ZM1427.86 107.442C1429.39 107.442 1430.56 107.946 1431.37 108.99C1432.11 109.926 1432.49 111.24 1432.49 112.914H1425.52C1425.59 113.778 1425.83 114.444 1426.22 114.894C1426.62 115.344 1427.2 115.578 1427.93 115.578C1428.56 115.578 1429.07 115.434 1429.46 115.146C1429.77 114.912 1430.04 114.534 1430.29 114.012H1432.34C1432.13 114.876 1431.7 115.614 1431.05 116.19C1430.22 116.892 1429.19 117.252 1427.95 117.252C1426.57 117.252 1425.47 116.82 1424.66 115.974C1423.79 115.092 1423.36 113.886 1423.36 112.338C1423.36 110.952 1423.76 109.8 1424.59 108.864C1425.38 107.91 1426.48 107.442 1427.86 107.442ZM1427.92 109.116C1427.23 109.116 1426.71 109.296 1426.31 109.692C1425.94 110.07 1425.68 110.628 1425.56 111.366H1430.35C1430.17 109.854 1429.36 109.116 1427.92 109.116ZM1437.62 107.442C1440.07 107.442 1441.42 108.414 1441.64 110.394H1439.64C1439.5 109.926 1439.28 109.584 1438.99 109.404C1438.69 109.206 1438.22 109.116 1437.59 109.116C1437.05 109.116 1436.63 109.188 1436.36 109.35C1436.04 109.512 1435.9 109.764 1435.9 110.124C1435.9 110.412 1436.13 110.682 1436.63 110.898C1436.94 111.024 1437.55 111.204 1438.49 111.438C1439.53 111.69 1440.32 111.978 1440.83 112.32C1441.57 112.788 1441.94 113.454 1441.94 114.282C1441.94 116.262 1440.54 117.252 1437.75 117.252C1435.16 117.252 1433.77 116.154 1433.57 113.976H1435.57C1435.68 114.57 1435.9 114.984 1436.2 115.236C1436.51 115.452 1436.99 115.578 1437.68 115.578C1439.12 115.578 1439.84 115.182 1439.84 114.426C1439.84 113.994 1439.57 113.652 1439.03 113.4C1438.74 113.256 1438.13 113.094 1437.19 112.878C1436.09 112.626 1435.32 112.356 1434.87 112.068C1434.15 111.618 1433.79 110.988 1433.79 110.178C1433.79 109.314 1434.13 108.648 1434.85 108.18C1435.55 107.676 1436.47 107.442 1437.62 107.442Z" fill="#505B67"/>
<rect x="1" y="71" width="198" height="79" rx="5" fill="#C5CED8"/>
<path d="M65.6611 104.148H68.0551L72.9691 117H70.7191L69.5491 113.778H64.1671L62.9971 117H60.7471L65.6611 104.148ZM64.7971 112.05H68.9191L66.9031 106.416H66.8311L64.7971 112.05ZM74.0439 103.896H76.0959V108.972C76.8519 107.946 77.7879 107.442 78.8679 107.442C80.1999 107.442 81.2439 107.928 82.0179 108.9C82.7199 109.8 83.0799 110.934 83.0799 112.302C83.0799 113.724 82.7199 114.894 81.9999 115.794C81.2079 116.766 80.1279 117.252 78.7599 117.252C77.5359 117.252 76.5999 116.838 75.9519 116.01V117H74.0439V103.896ZM78.3819 109.098C77.7159 109.098 77.1759 109.368 76.7439 109.908C76.2579 110.484 76.0239 111.276 76.0239 112.266V112.41C76.0239 113.31 76.2039 114.066 76.5999 114.642C77.0319 115.272 77.6439 115.596 78.4539 115.596C79.3539 115.596 80.0199 115.272 80.4519 114.624C80.7939 114.084 80.9739 113.31 80.9739 112.302C80.9739 111.294 80.7759 110.538 80.4159 110.016C79.9839 109.404 79.2999 109.098 78.3819 109.098ZM89.192 107.442C90.596 107.442 91.73 107.892 92.594 108.828C93.44 109.746 93.872 110.916 93.872 112.356C93.872 113.778 93.44 114.948 92.612 115.848C91.748 116.784 90.596 117.252 89.192 117.252C87.77 117.252 86.636 116.784 85.772 115.848C84.926 114.948 84.512 113.778 84.512 112.356C84.512 110.916 84.926 109.746 85.79 108.828C86.636 107.892 87.77 107.442 89.192 107.442ZM89.192 109.116C88.328 109.116 87.68 109.44 87.212 110.124C86.816 110.7 86.618 111.456 86.618 112.356C86.618 113.256 86.816 113.994 87.212 114.57C87.68 115.236 88.328 115.578 89.192 115.578C90.038 115.578 90.704 115.236 91.172 114.57C91.568 113.976 91.784 113.238 91.784 112.356C91.784 111.456 91.568 110.7 91.172 110.124C90.704 109.44 90.038 109.116 89.192 109.116ZM95.665 107.694H97.717V113.364C97.717 114.12 97.861 114.66 98.185 115.02C98.509 115.362 99.013 115.542 99.733 115.542C100.183 115.542 100.615 115.344 101.029 114.966C101.443 114.57 101.749 114.048 101.929 113.382V107.694H103.981V117H101.929V115.794C101.137 116.766 100.165 117.252 99.013 117.252C96.781 117.252 95.665 115.992 95.665 113.49V107.694ZM109.058 104.688V107.694H111.128V109.386H109.058V114.642C109.058 114.858 109.094 115.02 109.202 115.146C109.31 115.254 109.454 115.308 109.67 115.308H110.894V117H109.328C108.518 117 107.924 116.784 107.546 116.352C107.186 115.956 107.006 115.398 107.006 114.642V109.386H105.332V107.694H107.006V105.534L109.058 104.688ZM118.837 104.148H120.943V112.158C120.943 113.274 121.195 114.084 121.717 114.624C122.221 115.146 123.049 115.416 124.183 115.416C125.299 115.416 126.127 115.146 126.649 114.624C127.153 114.084 127.423 113.274 127.423 112.158V104.148H129.529V112.122C129.529 113.796 129.061 115.074 128.125 115.956C127.189 116.82 125.875 117.252 124.183 117.252C122.473 117.252 121.159 116.82 120.259 115.974C119.305 115.074 118.837 113.796 118.837 112.122V104.148ZM135.386 107.442C137.834 107.442 139.184 108.414 139.4 110.394H137.402C137.258 109.926 137.042 109.584 136.754 109.404C136.448 109.206 135.98 109.116 135.35 109.116C134.81 109.116 134.396 109.188 134.126 109.35C133.802 109.512 133.658 109.764 133.658 110.124C133.658 110.412 133.892 110.682 134.396 110.898C134.702 111.024 135.314 111.204 136.25 111.438C137.294 111.69 138.086 111.978 138.59 112.32C139.328 112.788 139.706 113.454 139.706 114.282C139.706 116.262 138.302 117.252 135.512 117.252C132.92 117.252 131.534 116.154 131.336 113.976H133.334C133.442 114.57 133.658 114.984 133.964 115.236C134.27 115.452 134.756 115.578 135.44 115.578C136.88 115.578 137.6 115.182 137.6 114.426C137.6 113.994 137.33 113.652 136.79 113.4C136.502 113.256 135.89 113.094 134.954 112.878C133.856 112.626 133.082 112.356 132.632 112.068C131.912 111.618 131.552 110.988 131.552 110.178C131.552 109.314 131.894 108.648 132.614 108.18C133.316 107.676 134.234 107.442 135.386 107.442Z" fill="#505B67"/>
<path d="M862 111.5C861.172 111.5 860.5 110.828 860.5 110C860.5 109.172 861.172 108.5 862 108.5L862 111.5ZM945 110L930 118.66L930 101.34L945 110ZM862 108.5L931.5 108.5L931.5 111.5L862 111.5L862 108.5Z" fill="#505B67"/>
<rect x="962" y="259" width="198" height="79" rx="5" fill="#C5CED8"/>
<path d="M1009.76 292.148H1011.85V303.2H1018.8V305H1009.76V292.148ZM1021.62 291.896C1022.02 291.896 1022.36 292.022 1022.63 292.274C1022.88 292.526 1023.02 292.85 1023.02 293.246C1023.02 293.642 1022.88 293.984 1022.61 294.236C1022.34 294.488 1022.02 294.614 1021.62 294.614C1021.22 294.614 1020.9 294.488 1020.63 294.236C1020.36 293.966 1020.23 293.642 1020.23 293.246C1020.23 292.85 1020.36 292.526 1020.63 292.274C1020.9 292.022 1021.22 291.896 1021.62 291.896ZM1020.59 295.694H1022.65V305H1020.59V295.694ZM1028.7 295.442C1031.15 295.442 1032.5 296.414 1032.72 298.394H1030.72C1030.57 297.926 1030.36 297.584 1030.07 297.404C1029.76 297.206 1029.3 297.116 1028.67 297.116C1028.13 297.116 1027.71 297.188 1027.44 297.35C1027.12 297.512 1026.97 297.764 1026.97 298.124C1026.97 298.412 1027.21 298.682 1027.71 298.898C1028.02 299.024 1028.63 299.204 1029.57 299.438C1030.61 299.69 1031.4 299.978 1031.91 300.32C1032.64 300.788 1033.02 301.454 1033.02 302.282C1033.02 304.262 1031.62 305.252 1028.83 305.252C1026.24 305.252 1024.85 304.154 1024.65 301.976H1026.65C1026.76 302.57 1026.97 302.984 1027.28 303.236C1027.59 303.452 1028.07 303.578 1028.76 303.578C1030.2 303.578 1030.92 303.182 1030.92 302.426C1030.92 301.994 1030.65 301.652 1030.11 301.4C1029.82 301.256 1029.21 301.094 1028.27 300.878C1027.17 300.626 1026.4 300.356 1025.95 300.068C1025.23 299.618 1024.87 298.988 1024.87 298.178C1024.87 297.314 1025.21 296.648 1025.93 296.18C1026.63 295.676 1027.55 295.442 1028.7 295.442ZM1037.56 292.688V295.694H1039.63V297.386H1037.56V302.642C1037.56 302.858 1037.6 303.02 1037.71 303.146C1037.82 303.254 1037.96 303.308 1038.18 303.308H1039.4V305H1037.83C1037.02 305 1036.43 304.784 1036.05 304.352C1035.69 303.956 1035.51 303.398 1035.51 302.642V297.386H1033.84V295.694H1035.51V293.534L1037.56 292.688ZM1042.56 291.896C1042.95 291.896 1043.29 292.022 1043.56 292.274C1043.82 292.526 1043.96 292.85 1043.96 293.246C1043.96 293.642 1043.82 293.984 1043.55 294.236C1043.28 294.488 1042.95 294.614 1042.56 294.614C1042.16 294.614 1041.84 294.488 1041.57 294.236C1041.3 293.966 1041.17 293.642 1041.17 293.246C1041.17 292.85 1041.3 292.526 1041.57 292.274C1041.84 292.022 1042.16 291.896 1042.56 291.896ZM1041.53 295.694H1043.58V305H1041.53V295.694ZM1050.93 295.442C1053.25 295.442 1054.42 296.702 1054.42 299.258V305H1052.37V299.438C1052.37 297.908 1051.67 297.152 1050.27 297.152C1049.76 297.152 1049.31 297.332 1048.93 297.692C1048.5 298.088 1048.25 298.664 1048.18 299.402V305H1046.13V295.694H1048.18V296.774C1048.54 296.342 1048.95 296 1049.4 295.784C1049.87 295.55 1050.37 295.442 1050.93 295.442ZM1060.46 295.442C1061.61 295.442 1062.53 295.892 1063.21 296.828V295.694H1065.26V304.406C1065.26 307.34 1063.8 308.816 1060.89 308.816C1059.57 308.816 1058.58 308.564 1057.9 308.096C1057.22 307.592 1056.78 306.836 1056.6 305.792H1058.66C1058.76 306.314 1058.98 306.674 1059.32 306.89C1059.65 307.088 1060.17 307.196 1060.89 307.196C1062.44 307.196 1063.21 306.368 1063.21 304.712V303.344C1062.53 304.298 1061.61 304.784 1060.46 304.784C1059.2 304.784 1058.17 304.352 1057.4 303.524C1056.6 302.678 1056.23 301.544 1056.23 300.14C1056.23 298.736 1056.6 297.602 1057.4 296.738C1058.17 295.874 1059.2 295.442 1060.46 295.442ZM1060.78 297.098C1060.01 297.098 1059.41 297.368 1058.98 297.908C1058.55 298.43 1058.33 299.168 1058.33 300.14C1058.33 301.022 1058.49 301.706 1058.84 302.21C1059.23 302.804 1059.86 303.11 1060.76 303.11C1061.55 303.11 1062.17 302.84 1062.6 302.336C1063.01 301.796 1063.23 301.076 1063.23 300.14C1063.23 299.186 1063.01 298.448 1062.6 297.908C1062.17 297.368 1061.55 297.098 1060.78 297.098ZM1078.12 295.442C1079.49 295.442 1080.57 295.928 1081.36 296.9C1082.08 297.8 1082.44 298.952 1082.44 300.392C1082.44 301.76 1082.08 302.894 1081.38 303.794C1080.63 304.766 1079.56 305.252 1078.23 305.252C1077.15 305.252 1076.22 304.73 1075.46 303.722V308.564H1073.41V295.694H1075.32V296.684C1075.96 295.856 1076.9 295.442 1078.12 295.442ZM1077.82 297.098C1077.01 297.098 1076.4 297.404 1075.96 298.052C1075.57 298.61 1075.39 299.348 1075.39 300.284V300.428C1075.39 301.4 1075.62 302.192 1076.11 302.786C1076.54 303.326 1077.08 303.596 1077.75 303.596C1078.65 303.596 1079.33 303.29 1079.76 302.714C1080.14 302.174 1080.34 301.4 1080.34 300.392C1080.34 299.384 1080.16 298.61 1079.82 298.07C1079.38 297.422 1078.72 297.098 1077.82 297.098ZM1088.47 295.442C1089.83 295.442 1090.86 295.784 1091.51 296.468C1092.08 297.062 1092.37 297.926 1092.37 299.06V305H1090.46V303.776C1090.1 304.244 1089.65 304.586 1089.13 304.838C1088.54 305.108 1087.84 305.252 1087.03 305.252C1086.05 305.252 1085.3 305 1084.74 304.514C1084.16 304.01 1083.88 303.38 1083.88 302.606C1083.88 301.562 1084.27 300.752 1085.1 300.194C1085.86 299.654 1086.92 299.366 1088.29 299.33L1090.32 299.276V298.916C1090.32 297.692 1089.65 297.098 1088.32 297.098C1087.75 297.098 1087.3 297.188 1086.95 297.404C1086.56 297.638 1086.29 297.998 1086.18 298.484L1084.15 298.322C1084.34 297.296 1084.85 296.54 1085.66 296.072C1086.34 295.64 1087.28 295.442 1088.47 295.442ZM1090.32 300.752L1088.43 300.806C1086.79 300.842 1085.98 301.418 1085.98 302.534C1085.98 302.858 1086.11 303.128 1086.4 303.344C1086.68 303.56 1087.04 303.686 1087.49 303.686C1088.29 303.686 1088.95 303.452 1089.49 303.002C1090.03 302.534 1090.32 301.94 1090.32 301.22V300.752ZM1098.41 295.442C1099.56 295.442 1100.48 295.892 1101.16 296.828V295.694H1103.21V304.406C1103.21 307.34 1101.76 308.816 1098.84 308.816C1097.53 308.816 1096.54 308.564 1095.85 308.096C1095.17 307.592 1094.74 306.836 1094.56 305.792H1096.61C1096.72 306.314 1096.93 306.674 1097.27 306.89C1097.6 307.088 1098.12 307.196 1098.84 307.196C1100.39 307.196 1101.16 306.368 1101.16 304.712V303.344C1100.48 304.298 1099.56 304.784 1098.41 304.784C1097.15 304.784 1096.12 304.352 1095.35 303.524C1094.56 302.678 1094.18 301.544 1094.18 300.14C1094.18 298.736 1094.56 297.602 1095.35 296.738C1096.12 295.874 1097.15 295.442 1098.41 295.442ZM1098.73 297.098C1097.96 297.098 1097.36 297.368 1096.93 297.908C1096.5 298.43 1096.28 299.168 1096.28 300.14C1096.28 301.022 1096.45 301.706 1096.79 302.21C1097.18 302.804 1097.81 303.11 1098.71 303.11C1099.51 303.11 1100.12 302.84 1100.55 302.336C1100.96 301.796 1101.18 301.076 1101.18 300.14C1101.18 299.186 1100.96 298.448 1100.55 297.908C1100.12 297.368 1099.51 297.098 1098.73 297.098ZM1109.33 295.442C1110.86 295.442 1112.03 295.946 1112.84 296.99C1113.57 297.926 1113.95 299.24 1113.95 300.914H1106.99C1107.06 301.778 1107.29 302.444 1107.69 302.894C1108.08 303.344 1108.66 303.578 1109.4 303.578C1110.03 303.578 1110.53 303.434 1110.93 303.146C1111.23 302.912 1111.5 302.534 1111.76 302.012H1113.81C1113.59 302.876 1113.16 303.614 1112.51 304.19C1111.68 304.892 1110.66 305.252 1109.42 305.252C1108.03 305.252 1106.93 304.82 1106.12 303.974C1105.26 303.092 1104.83 301.886 1104.83 300.338C1104.83 298.952 1105.22 297.8 1106.05 296.864C1106.84 295.91 1107.94 295.442 1109.33 295.442ZM1109.38 297.116C1108.7 297.116 1108.17 297.296 1107.78 297.692C1107.4 298.07 1107.15 298.628 1107.02 299.366H1111.81C1111.63 297.854 1110.82 297.116 1109.38 297.116Z" fill="#505B67"/>
<path d="M1198 111.5C1197.17 111.5 1196.5 110.828 1196.5 110C1196.5 109.172 1197.17 108.5 1198 108.5L1198 111.5ZM1281 110L1266 118.66L1266 101.34L1281 110ZM1198 108.5L1267.5 108.5L1267.5 111.5L1198 111.5L1198 108.5Z" fill="#505B67"/>
<path d="M745 163C745 162.172 745.672 161.5 746.5 161.5C747.328 161.5 748 162.172 748 163L745 163ZM746.5 246L737.84 231L755.16 231L746.5 246ZM748 163L748 232.5L745 232.5L745 163L748 163Z" fill="#505B67"/>
<path d="M1059.5 163C1059.5 162.172 1060.17 161.5 1061 161.5C1061.83 161.5 1062.5 162.172 1062.5 163L1059.5 163ZM1061 246L1052.34 231L1069.66 231L1061 246ZM1062.5 163L1062.5 232.5L1059.5 232.5L1059.5 163L1062.5 163Z" fill="#505B67"/>
<path d="M544 111.5C543.172 111.5 542.5 110.828 542.5 110C542.5 109.172 543.172 108.5 544 108.5L544 111.5ZM627 110L612 118.66L612 101.34L627 110ZM544 108.5L613.5 108.5L613.5 111.5L544 111.5L544 108.5Z" fill="#505B67"/>
<path d="M216 111.5C215.172 111.5 214.5 110.828 214.5 110C214.5 109.172 215.172 108.5 216 108.5L216 111.5ZM299 110L284 118.66L284 101.34L299 110ZM216 108.5L285.5 108.5L285.5 111.5L216 111.5L216 108.5Z" fill="#505B67"/>
<path d="M1.2893 6.148H6.6173C9.7133 6.148 11.2793 7.462 11.2793 10.09C11.2793 12.736 9.7133 14.068 6.5813 14.068H3.3953V19H1.2893V6.148ZM3.3953 7.948V12.268H6.4553C7.3913 12.268 8.0753 12.088 8.5073 11.764C8.9393 11.422 9.1553 10.864 9.1553 10.09C9.1553 9.316 8.9213 8.776 8.4893 8.452C8.0573 8.11 7.3733 7.948 6.4553 7.948H3.3953ZM12.9042 5.896H14.9562V10.936C15.2982 10.414 15.7302 10.036 16.2342 9.784C16.6842 9.55 17.2062 9.442 17.8002 9.442C18.9342 9.442 19.7802 9.766 20.3382 10.432C20.8602 11.062 21.1302 11.998 21.1302 13.24V19H19.0782V13.6C19.0782 12.808 18.9162 12.196 18.6102 11.782C18.2502 11.332 17.7282 11.116 17.0262 11.116C16.3782 11.116 15.8742 11.368 15.5142 11.872C15.1362 12.376 14.9562 13.006 14.9562 13.798V19H12.9042V5.896ZM27.5229 9.442C28.8909 9.442 29.9169 9.784 30.5649 10.468C31.1409 11.062 31.4289 11.926 31.4289 13.06V19H29.5209V17.776C29.1609 18.244 28.7109 18.586 28.1889 18.838C27.5949 19.108 26.8929 19.252 26.0829 19.252C25.1109 19.252 24.3549 19 23.7969 18.514C23.2209 18.01 22.9329 17.38 22.9329 16.606C22.9329 15.562 23.3289 14.752 24.1569 14.194C24.9129 13.654 25.9749 13.366 27.3429 13.33L29.3769 13.276V12.916C29.3769 11.692 28.7109 11.098 27.3789 11.098C26.8029 11.098 26.3529 11.188 26.0109 11.404C25.6149 11.638 25.3449 11.998 25.2369 12.484L23.2029 12.322C23.4009 11.296 23.9049 10.54 24.7149 10.072C25.3989 9.64 26.3349 9.442 27.5229 9.442ZM29.3769 14.752L27.4869 14.806C25.8489 14.842 25.0389 15.418 25.0389 16.534C25.0389 16.858 25.1649 17.128 25.4529 17.344C25.7409 17.56 26.1009 17.686 26.5509 17.686C27.3429 17.686 28.0089 17.452 28.5489 17.002C29.0889 16.534 29.3769 15.94 29.3769 15.22V14.752ZM37.1037 9.442C39.5517 9.442 40.9017 10.414 41.1177 12.394H39.1197C38.9757 11.926 38.7597 11.584 38.4717 11.404C38.1657 11.206 37.6977 11.116 37.0677 11.116C36.5277 11.116 36.1137 11.188 35.8437 11.35C35.5197 11.512 35.3757 11.764 35.3757 12.124C35.3757 12.412 35.6097 12.682 36.1137 12.898C36.4197 13.024 37.0317 13.204 37.9677 13.438C39.0117 13.69 39.8037 13.978 40.3077 14.32C41.0457 14.788 41.4237 15.454 41.4237 16.282C41.4237 18.262 40.0197 19.252 37.2297 19.252C34.6377 19.252 33.2517 18.154 33.0537 15.976H35.0517C35.1597 16.57 35.3757 16.984 35.6817 17.236C35.9877 17.452 36.4737 17.578 37.1577 17.578C38.5977 17.578 39.3177 17.182 39.3177 16.426C39.3177 15.994 39.0477 15.652 38.5077 15.4C38.2197 15.256 37.6077 15.094 36.6717 14.878C35.5737 14.626 34.7997 14.356 34.3497 14.068C33.6297 13.618 33.2697 12.988 33.2697 12.178C33.2697 11.314 33.6117 10.648 34.3317 10.18C35.0337 9.676 35.9517 9.442 37.1037 9.442ZM47.0107 9.442C48.5407 9.442 49.7107 9.946 50.5207 10.99C51.2587 11.926 51.6367 13.24 51.6367 14.914H44.6707C44.7427 15.778 44.9767 16.444 45.3727 16.894C45.7687 17.344 46.3447 17.578 47.0827 17.578C47.7127 17.578 48.2167 17.434 48.6127 17.146C48.9187 16.912 49.1887 16.534 49.4407 16.012H51.4927C51.2767 16.876 50.8447 17.614 50.1967 18.19C49.3687 18.892 48.3427 19.252 47.1007 19.252C45.7147 19.252 44.6167 18.82 43.8067 17.974C42.9427 17.092 42.5107 15.886 42.5107 14.338C42.5107 12.952 42.9067 11.8 43.7347 10.864C44.5267 9.91 45.6247 9.442 47.0107 9.442ZM47.0647 11.116C46.3807 11.116 45.8587 11.296 45.4627 11.692C45.0847 12.07 44.8327 12.628 44.7067 13.366H49.4947C49.3147 11.854 48.5047 11.116 47.0647 11.116ZM63.7757 5.896C65.0177 5.896 66.0437 6.256 66.8537 6.976C67.6457 7.696 68.0417 8.614 68.0417 9.766C68.0417 10.882 67.6097 11.89 66.7817 12.808C66.2777 13.348 65.3777 14.032 64.1177 14.878C62.8037 15.742 62.0117 16.498 61.7237 17.146H68.0597V19H59.0957C59.0957 17.686 59.5097 16.552 60.3737 15.58C60.8417 15.04 61.8317 14.248 63.3257 13.222C64.1537 12.646 64.7297 12.16 65.0897 11.782C65.6477 11.152 65.9357 10.468 65.9357 9.748C65.9357 9.046 65.7377 8.524 65.3777 8.182C64.9997 7.84 64.4417 7.678 63.7037 7.678C62.9117 7.678 62.3177 7.948 61.9217 8.488C61.5257 8.992 61.3097 9.766 61.2737 10.774H59.1677C59.1857 9.334 59.5997 8.182 60.4277 7.3C61.2737 6.364 62.3897 5.896 63.7757 5.896Z" fill="black"/>
</svg>
