<svg width="1495" height="150" viewBox="0 0 1495 150" fill="none" xmlns="http://www.w3.org/2000/svg">
<rect x="646" y="71" width="198" height="79" rx="5" fill="#C5CED8"/>
<path d="M674.302 104.148H676.678L679.09 113.922H679.162L681.7 104.148H683.878L686.416 113.922H686.488L688.9 104.148H691.276L687.568 117H685.336L682.834 107.334H682.762L680.242 117H677.992L674.302 104.148ZM692.448 103.896H694.5V108.936C694.842 108.414 695.274 108.036 695.778 107.784C696.228 107.55 696.75 107.442 697.344 107.442C698.478 107.442 699.324 107.766 699.882 108.432C700.404 109.062 700.674 109.998 700.674 111.24V117H698.622V111.6C698.622 110.808 698.46 110.196 698.154 109.782C697.794 109.332 697.272 109.116 696.57 109.116C695.922 109.116 695.418 109.368 695.058 109.872C694.68 110.376 694.5 111.006 694.5 111.798V117H692.448V103.896ZM707.067 107.442C708.435 107.442 709.461 107.784 710.109 108.468C710.685 109.062 710.973 109.926 710.973 111.06V117H709.065V115.776C708.705 116.244 708.255 116.586 707.733 116.838C707.139 117.108 706.437 117.252 705.627 117.252C704.655 117.252 703.899 117 703.341 116.514C702.765 116.01 702.477 115.38 702.477 114.606C702.477 113.562 702.873 112.752 703.701 112.194C704.457 111.654 705.519 111.366 706.887 111.33L708.921 111.276V110.916C708.921 109.692 708.255 109.098 706.923 109.098C706.347 109.098 705.897 109.188 705.555 109.404C705.159 109.638 704.889 109.998 704.781 110.484L702.747 110.322C702.945 109.296 703.449 108.54 704.259 108.072C704.943 107.64 705.879 107.442 707.067 107.442ZM708.921 112.752L707.031 112.806C705.393 112.842 704.583 113.418 704.583 114.534C704.583 114.858 704.709 115.128 704.997 115.344C705.285 115.56 705.645 115.686 706.095 115.686C706.887 115.686 707.553 115.452 708.093 115.002C708.633 114.534 708.921 113.94 708.921 113.22V112.752ZM716.054 104.688V107.694H718.124V109.386H716.054V114.642C716.054 114.858 716.09 115.02 716.198 115.146C716.306 115.254 716.45 115.308 716.666 115.308H717.89V117H716.324C715.514 117 714.92 116.784 714.542 116.352C714.182 115.956 714.002 115.398 714.002 114.642V109.386H712.328V107.694H714.002V105.534L716.054 104.688ZM728.569 104.688V107.694H730.639V109.386H728.569V114.642C728.569 114.858 728.605 115.02 728.713 115.146C728.821 115.254 728.965 115.308 729.181 115.308H730.405V117H728.839C728.029 117 727.435 116.784 727.057 116.352C726.697 115.956 726.517 115.398 726.517 114.642V109.386H724.843V107.694H726.517V105.534L728.569 104.688ZM736.495 107.442C737.899 107.442 739.033 107.892 739.897 108.828C740.743 109.746 741.175 110.916 741.175 112.356C741.175 113.778 740.743 114.948 739.915 115.848C739.051 116.784 737.899 117.252 736.495 117.252C735.073 117.252 733.939 116.784 733.075 115.848C732.229 114.948 731.815 113.778 731.815 112.356C731.815 110.916 732.229 109.746 733.093 108.828C733.939 107.892 735.073 107.442 736.495 107.442ZM736.495 109.116C735.631 109.116 734.983 109.44 734.515 110.124C734.119 110.7 733.921 111.456 733.921 112.356C733.921 113.256 734.119 113.994 734.515 114.57C734.983 115.236 735.631 115.578 736.495 115.578C737.341 115.578 738.007 115.236 738.475 114.57C738.871 113.976 739.087 113.238 739.087 112.356C739.087 111.456 738.871 110.7 738.475 110.124C738.007 109.44 737.341 109.116 736.495 109.116ZM749.142 104.148H758.412V105.948H751.248V109.512H757.98V111.312H751.248V115.2H758.718V117H749.142V104.148ZM759.935 107.694H762.329L764.273 110.538L766.199 107.694H768.593L765.389 112.05L769.007 117H766.595L764.273 113.562L761.933 117H759.521L763.139 112.05L759.935 107.694ZM774.895 107.442C776.263 107.442 777.343 107.928 778.135 108.9C778.855 109.8 779.215 110.952 779.215 112.392C779.215 113.76 778.855 114.894 778.153 115.794C777.397 116.766 776.335 117.252 775.003 117.252C773.923 117.252 772.987 116.73 772.231 115.722V120.564H770.179V107.694H772.087V108.684C772.735 107.856 773.671 107.442 774.895 107.442ZM774.589 109.098C773.779 109.098 773.167 109.404 772.735 110.052C772.339 110.61 772.159 111.348 772.159 112.284V112.428C772.159 113.4 772.393 114.192 772.879 114.786C773.311 115.326 773.851 115.596 774.517 115.596C775.417 115.596 776.101 115.29 776.533 114.714C776.911 114.174 777.109 113.4 777.109 112.392C777.109 111.384 776.929 110.61 776.587 110.07C776.155 109.422 775.489 109.098 774.589 109.098ZM784.967 107.442C786.497 107.442 787.667 107.946 788.477 108.99C789.215 109.926 789.593 111.24 789.593 112.914H782.627C782.699 113.778 782.933 114.444 783.329 114.894C783.725 115.344 784.301 115.578 785.039 115.578C785.669 115.578 786.173 115.434 786.569 115.146C786.875 114.912 787.145 114.534 787.397 114.012H789.449C789.233 114.876 788.801 115.614 788.153 116.19C787.325 116.892 786.299 117.252 785.057 117.252C783.671 117.252 782.573 116.82 781.763 115.974C780.899 115.092 780.467 113.886 780.467 112.338C780.467 110.952 780.863 109.8 781.691 108.864C782.483 107.91 783.581 107.442 784.967 107.442ZM785.021 109.116C784.337 109.116 783.815 109.296 783.419 109.692C783.041 110.07 782.789 110.628 782.663 111.366H787.451C787.271 109.854 786.461 109.116 785.021 109.116ZM795.396 107.442C796.602 107.442 797.556 107.712 798.276 108.252C799.014 108.828 799.482 109.692 799.662 110.862H797.628C797.502 110.268 797.25 109.836 796.89 109.548C796.512 109.26 796.008 109.116 795.396 109.116C794.64 109.116 794.046 109.386 793.614 109.962C793.182 110.52 792.966 111.312 792.966 112.32C792.966 113.346 793.164 114.156 793.596 114.732C793.992 115.29 794.586 115.578 795.378 115.578C796.746 115.578 797.502 114.894 797.664 113.544H799.698C799.482 114.804 798.996 115.74 798.258 116.352C797.538 116.946 796.566 117.252 795.36 117.252C793.92 117.252 792.804 116.784 792.012 115.848C791.238 114.948 790.86 113.778 790.86 112.338C790.86 110.934 791.238 109.782 791.994 108.9C792.804 107.928 793.938 107.442 795.396 107.442ZM804.225 104.688V107.694H806.295V109.386H804.225V114.642C804.225 114.858 804.261 115.02 804.369 115.146C804.477 115.254 804.621 115.308 804.837 115.308H806.061V117H804.495C803.685 117 803.091 116.784 802.713 116.352C802.353 115.956 802.173 115.398 802.173 114.642V109.386H800.499V107.694H802.173V105.534L804.225 104.688ZM811.971 103.896C813.141 103.896 814.095 104.202 814.815 104.85C815.535 105.48 815.895 106.344 815.895 107.442C815.895 108.342 815.661 109.08 815.229 109.656C815.067 109.836 814.545 110.322 813.681 111.078C813.357 111.33 813.123 111.636 812.961 111.96C812.781 112.32 812.691 112.716 812.691 113.148V113.4H810.621V113.148C810.621 112.464 810.729 111.87 810.981 111.384C811.215 110.898 811.917 110.142 813.087 109.098L813.303 108.846C813.627 108.45 813.789 108.018 813.789 107.568C813.789 106.974 813.609 106.506 813.285 106.164C812.943 105.822 812.457 105.66 811.845 105.66C811.071 105.66 810.513 105.894 810.153 106.38C809.847 106.794 809.703 107.388 809.703 108.162H807.651C807.651 106.83 808.029 105.786 808.821 105.03C809.595 104.274 810.639 103.896 811.971 103.896ZM811.647 114.282C812.043 114.282 812.385 114.408 812.655 114.66C812.907 114.912 813.051 115.236 813.051 115.632C813.051 116.028 812.907 116.37 812.655 116.622C812.367 116.874 812.043 117 811.647 117C811.251 117 810.927 116.856 810.675 116.604C810.387 116.352 810.261 116.028 810.261 115.632C810.261 115.236 810.387 114.912 810.675 114.66C810.927 114.408 811.251 114.282 811.647 114.282Z" fill="#505B67"/>
<rect x="328" y="71" width="198" height="79" rx="5" fill="#C5CED8"/>
<path d="M369.468 104.148H371.844L374.256 113.922H374.328L376.866 104.148H379.044L381.582 113.922H381.654L384.066 104.148H386.442L382.734 117H380.502L378 107.334H377.928L375.408 117H373.158L369.468 104.148ZM387.614 103.896H389.666V108.936C390.008 108.414 390.44 108.036 390.944 107.784C391.394 107.55 391.916 107.442 392.51 107.442C393.644 107.442 394.49 107.766 395.048 108.432C395.57 109.062 395.84 109.998 395.84 111.24V117H393.788V111.6C393.788 110.808 393.626 110.196 393.32 109.782C392.96 109.332 392.438 109.116 391.736 109.116C391.088 109.116 390.584 109.368 390.224 109.872C389.846 110.376 389.666 111.006 389.666 111.798V117H387.614V103.896ZM402.323 107.442C403.727 107.442 404.861 107.892 405.725 108.828C406.571 109.746 407.003 110.916 407.003 112.356C407.003 113.778 406.571 114.948 405.743 115.848C404.879 116.784 403.727 117.252 402.323 117.252C400.901 117.252 399.767 116.784 398.903 115.848C398.057 114.948 397.643 113.778 397.643 112.356C397.643 110.916 398.057 109.746 398.921 108.828C399.767 107.892 400.901 107.442 402.323 107.442ZM402.323 109.116C401.459 109.116 400.811 109.44 400.343 110.124C399.947 110.7 399.749 111.456 399.749 112.356C399.749 113.256 399.947 113.994 400.343 114.57C400.811 115.236 401.459 115.578 402.323 115.578C403.169 115.578 403.835 115.236 404.303 114.57C404.699 113.976 404.915 113.238 404.915 112.356C404.915 111.456 404.699 110.7 404.303 110.124C403.835 109.44 403.169 109.116 402.323 109.116ZM414.97 104.148H417.076V117H414.97V104.148ZM422.923 107.442C425.371 107.442 426.721 108.414 426.937 110.394H424.939C424.795 109.926 424.579 109.584 424.291 109.404C423.985 109.206 423.517 109.116 422.887 109.116C422.347 109.116 421.933 109.188 421.663 109.35C421.339 109.512 421.195 109.764 421.195 110.124C421.195 110.412 421.429 110.682 421.933 110.898C422.239 111.024 422.851 111.204 423.787 111.438C424.831 111.69 425.623 111.978 426.127 112.32C426.865 112.788 427.243 113.454 427.243 114.282C427.243 116.262 425.839 117.252 423.049 117.252C420.457 117.252 419.071 116.154 418.873 113.976H420.871C420.979 114.57 421.195 114.984 421.501 115.236C421.807 115.452 422.293 115.578 422.977 115.578C424.417 115.578 425.137 115.182 425.137 114.426C425.137 113.994 424.867 113.652 424.327 113.4C424.039 113.256 423.427 113.094 422.491 112.878C421.393 112.626 420.619 112.356 420.169 112.068C419.449 111.618 419.089 110.988 419.089 110.178C419.089 109.314 419.431 108.648 420.151 108.18C420.853 107.676 421.771 107.442 422.923 107.442ZM436.25 103.896C436.646 103.896 436.988 104.022 437.258 104.274C437.51 104.526 437.654 104.85 437.654 105.246C437.654 105.642 437.51 105.984 437.24 106.236C436.97 106.488 436.646 106.614 436.25 106.614C435.854 106.614 435.53 106.488 435.26 106.236C434.99 105.966 434.864 105.642 434.864 105.246C434.864 104.85 434.99 104.526 435.26 104.274C435.53 104.022 435.854 103.896 436.25 103.896ZM435.224 107.694H437.276V117H435.224V107.694ZM442.737 104.688V107.694H444.807V109.386H442.737V114.642C442.737 114.858 442.773 115.02 442.881 115.146C442.989 115.254 443.133 115.308 443.349 115.308H444.573V117H443.007C442.197 117 441.603 116.784 441.225 116.352C440.865 115.956 440.685 115.398 440.685 114.642V109.386H439.011V107.694H440.685V105.534L442.737 104.688ZM455.991 104.148H457.971V105.876H456.279C456.009 105.876 455.811 105.948 455.667 106.092C455.523 106.236 455.469 106.452 455.469 106.758V107.694H457.845V109.368H455.469V117H453.417V109.368H451.347V107.694H453.417V106.704C453.417 105.912 453.633 105.282 454.083 104.832C454.515 104.364 455.163 104.148 455.991 104.148ZM463.46 107.442C464.864 107.442 465.998 107.892 466.862 108.828C467.708 109.746 468.14 110.916 468.14 112.356C468.14 113.778 467.708 114.948 466.88 115.848C466.016 116.784 464.864 117.252 463.46 117.252C462.038 117.252 460.904 116.784 460.04 115.848C459.194 114.948 458.78 113.778 458.78 112.356C458.78 110.916 459.194 109.746 460.058 108.828C460.904 107.892 462.038 107.442 463.46 107.442ZM463.46 109.116C462.596 109.116 461.948 109.44 461.48 110.124C461.084 110.7 460.886 111.456 460.886 112.356C460.886 113.256 461.084 113.994 461.48 114.57C461.948 115.236 462.596 115.578 463.46 115.578C464.306 115.578 464.972 115.236 465.44 114.57C465.836 113.976 466.052 113.238 466.052 112.356C466.052 111.456 465.836 110.7 465.44 110.124C464.972 109.44 464.306 109.116 463.46 109.116ZM474.325 107.442C474.775 107.442 475.171 107.514 475.495 107.676V109.728C475.027 109.584 474.595 109.53 474.163 109.53C473.623 109.53 473.137 109.728 472.705 110.16C472.201 110.646 471.967 111.276 471.967 112.068V117H469.933V107.694H471.967V109.026C472.219 108.558 472.507 108.198 472.849 107.946C473.263 107.604 473.749 107.442 474.325 107.442ZM480.805 103.896C481.975 103.896 482.929 104.202 483.649 104.85C484.369 105.48 484.729 106.344 484.729 107.442C484.729 108.342 484.495 109.08 484.063 109.656C483.901 109.836 483.379 110.322 482.515 111.078C482.191 111.33 481.957 111.636 481.795 111.96C481.615 112.32 481.525 112.716 481.525 113.148V113.4H479.455V113.148C479.455 112.464 479.563 111.87 479.815 111.384C480.049 110.898 480.751 110.142 481.921 109.098L482.137 108.846C482.461 108.45 482.623 108.018 482.623 107.568C482.623 106.974 482.443 106.506 482.119 106.164C481.777 105.822 481.291 105.66 480.679 105.66C479.905 105.66 479.347 105.894 478.987 106.38C478.681 106.794 478.537 107.388 478.537 108.162H476.485C476.485 106.83 476.863 105.786 477.655 105.03C478.429 104.274 479.473 103.896 480.805 103.896ZM480.481 114.282C480.877 114.282 481.219 114.408 481.489 114.66C481.741 114.912 481.885 115.236 481.885 115.632C481.885 116.028 481.741 116.37 481.489 116.622C481.201 116.874 480.877 117 480.481 117C480.085 117 479.761 116.856 479.509 116.604C479.221 116.352 479.095 116.028 479.095 115.632C479.095 115.236 479.221 114.912 479.509 114.66C479.761 114.408 480.085 114.282 480.481 114.282Z" fill="#505B67"/>
<rect y="71" width="198" height="79" rx="5" fill="#C5CED8"/>
<path d="M75.676 104.148H77.782V109.512H84.298V104.148H86.404V117H84.298V111.312H77.782V117H75.676V104.148ZM93.0699 107.442C94.4739 107.442 95.6079 107.892 96.4719 108.828C97.3179 109.746 97.7499 110.916 97.7499 112.356C97.7499 113.778 97.3179 114.948 96.4899 115.848C95.6259 116.784 94.4739 117.252 93.0699 117.252C91.6479 117.252 90.5139 116.784 89.6499 115.848C88.8039 114.948 88.3899 113.778 88.3899 112.356C88.3899 110.916 88.8039 109.746 89.6679 108.828C90.5139 107.892 91.6479 107.442 93.0699 107.442ZM93.0699 109.116C92.2059 109.116 91.5579 109.44 91.0899 110.124C90.6939 110.7 90.4959 111.456 90.4959 112.356C90.4959 113.256 90.6939 113.994 91.0899 114.57C91.5579 115.236 92.2059 115.578 93.0699 115.578C93.9159 115.578 94.5819 115.236 95.0499 114.57C95.4459 113.976 95.6619 113.238 95.6619 112.356C95.6619 111.456 95.4459 110.7 95.0499 110.124C94.5819 109.44 93.9159 109.116 93.0699 109.116ZM104.115 107.442C105.483 107.442 106.455 107.946 107.049 108.954C107.481 108.378 107.931 107.982 108.399 107.766C108.813 107.55 109.335 107.442 109.965 107.442C110.919 107.442 111.711 107.748 112.359 108.396C112.971 109.044 113.295 109.872 113.295 110.898V117H111.243V111.258C111.243 110.52 111.081 109.98 110.775 109.656C110.451 109.314 109.947 109.152 109.227 109.152C108.723 109.152 108.309 109.332 107.967 109.728C107.607 110.106 107.445 110.628 107.445 111.312V117H105.393V111.276C105.393 109.854 104.781 109.152 103.557 109.152C102.963 109.152 102.495 109.368 102.135 109.836C101.775 110.268 101.595 110.808 101.595 111.42V117H99.5429V107.694H101.595V108.648C102.369 107.838 103.215 107.442 104.115 107.442ZM119.411 107.442C120.941 107.442 122.111 107.946 122.921 108.99C123.659 109.926 124.037 111.24 124.037 112.914H117.071C117.143 113.778 117.377 114.444 117.773 114.894C118.169 115.344 118.745 115.578 119.483 115.578C120.113 115.578 120.617 115.434 121.013 115.146C121.319 114.912 121.589 114.534 121.841 114.012H123.893C123.677 114.876 123.245 115.614 122.597 116.19C121.769 116.892 120.743 117.252 119.501 117.252C118.115 117.252 117.017 116.82 116.207 115.974C115.343 115.092 114.911 113.886 114.911 112.338C114.911 110.952 115.307 109.8 116.135 108.864C116.927 107.91 118.025 107.442 119.411 107.442ZM119.465 109.116C118.781 109.116 118.259 109.296 117.863 109.692C117.485 110.07 117.233 110.628 117.107 111.366H121.895C121.715 109.854 120.905 109.116 119.465 109.116Z" fill="#505B67"/>
<rect x="961" y="71" width="198" height="79" rx="5" fill="#C5CED8"/>
<path d="M1035.36 104.148H1044.12V105.948H1037.46V109.512H1043.75V111.312H1037.46V117H1035.36V104.148ZM1049.49 104.148H1051.88L1056.8 117H1054.55L1053.38 113.778H1047.99L1046.82 117H1044.57L1049.49 104.148ZM1048.62 112.05H1052.75L1050.73 106.416H1050.66L1048.62 112.05ZM1063.76 103.896C1065.72 103.896 1067.27 104.526 1068.4 105.804C1069.48 107.01 1070.02 108.612 1070.02 110.592C1070.02 112.518 1069.5 114.084 1068.49 115.272C1068.96 115.884 1069.45 116.532 1069.91 117.216L1068.55 118.404C1068.06 117.702 1067.59 117.036 1067.12 116.424C1066.19 116.964 1065.05 117.252 1063.76 117.252C1061.78 117.252 1060.23 116.604 1059.11 115.344C1058.03 114.12 1057.51 112.536 1057.51 110.592C1057.51 108.63 1058.03 107.046 1059.11 105.822C1060.23 104.526 1061.78 103.896 1063.76 103.896ZM1063.76 105.75C1062.43 105.75 1061.4 106.2 1060.66 107.1C1059.96 107.964 1059.62 109.116 1059.62 110.592C1059.62 112.05 1059.96 113.202 1060.66 114.066C1061.38 114.948 1062.43 115.398 1063.76 115.398C1064.6 115.398 1065.32 115.218 1065.94 114.876C1065.29 114.084 1064.68 113.382 1064.08 112.752L1065.31 111.564C1065.94 112.23 1066.57 112.932 1067.18 113.652C1067.65 112.86 1067.9 111.834 1067.9 110.592C1067.9 109.08 1067.54 107.892 1066.84 107.028C1066.12 106.164 1065.09 105.75 1063.76 105.75ZM1073.61 101.934C1074.1 101.934 1074.49 102.132 1074.82 102.528C1075.14 102.924 1075.3 103.446 1075.3 104.076C1075.3 105.03 1075.01 105.858 1074.47 106.578C1073.92 107.28 1073.16 107.766 1072.22 108.036V106.848C1072.71 106.668 1073.12 106.38 1073.45 105.984C1073.77 105.552 1073.93 105.138 1073.93 104.706C1073.83 104.742 1073.68 104.778 1073.48 104.778C1073.09 104.778 1072.76 104.634 1072.51 104.364C1072.22 104.094 1072.1 103.752 1072.1 103.356C1072.1 102.924 1072.22 102.582 1072.51 102.33C1072.8 102.06 1073.16 101.934 1073.61 101.934ZM1082.04 107.442C1084.48 107.442 1085.83 108.414 1086.05 110.394H1084.05C1083.91 109.926 1083.69 109.584 1083.4 109.404C1083.1 109.206 1082.63 109.116 1082 109.116C1081.46 109.116 1081.05 109.188 1080.78 109.35C1080.45 109.512 1080.31 109.764 1080.31 110.124C1080.31 110.412 1080.54 110.682 1081.05 110.898C1081.35 111.024 1081.96 111.204 1082.9 111.438C1083.94 111.69 1084.74 111.978 1085.24 112.32C1085.98 112.788 1086.36 113.454 1086.36 114.282C1086.36 116.262 1084.95 117.252 1082.16 117.252C1079.57 117.252 1078.18 116.154 1077.99 113.976H1079.98C1080.09 114.57 1080.31 114.984 1080.61 115.236C1080.92 115.452 1081.41 115.578 1082.09 115.578C1083.53 115.578 1084.25 115.182 1084.25 114.426C1084.25 113.994 1083.98 113.652 1083.44 113.4C1083.15 113.256 1082.54 113.094 1081.6 112.878C1080.51 112.626 1079.73 112.356 1079.28 112.068C1078.56 111.618 1078.2 110.988 1078.2 110.178C1078.2 109.314 1078.54 108.648 1079.26 108.18C1079.97 107.676 1080.88 107.442 1082.04 107.442Z" fill="#505B67"/>
<rect x="1297" y="71" width="198" height="79" rx="5" fill="#C5CED8"/>
<path d="M1369.41 103.896C1370.92 103.896 1372.18 104.292 1373.15 105.084C1374.09 105.84 1374.64 106.884 1374.84 108.18H1372.79C1372.57 107.334 1372.18 106.722 1371.58 106.326C1371.01 105.93 1370.27 105.75 1369.37 105.75C1368.02 105.75 1367.01 106.2 1366.33 107.136C1365.7 107.964 1365.39 109.116 1365.39 110.592C1365.39 112.104 1365.7 113.274 1366.31 114.084C1366.98 114.948 1368.02 115.398 1369.42 115.398C1370.34 115.398 1371.1 115.164 1371.67 114.732C1372.29 114.246 1372.72 113.508 1372.97 112.536H1375.02C1374.73 114.048 1374.07 115.218 1373.01 116.064C1372.02 116.856 1370.83 117.252 1369.44 117.252C1367.3 117.252 1365.7 116.568 1364.65 115.236C1363.74 114.084 1363.29 112.536 1363.29 110.592C1363.29 108.684 1363.75 107.118 1364.71 105.93C1365.79 104.562 1367.35 103.896 1369.41 103.896ZM1381.15 107.442C1382.55 107.442 1383.69 107.892 1384.55 108.828C1385.4 109.746 1385.83 110.916 1385.83 112.356C1385.83 113.778 1385.4 114.948 1384.57 115.848C1383.71 116.784 1382.55 117.252 1381.15 117.252C1379.73 117.252 1378.59 116.784 1377.73 115.848C1376.88 114.948 1376.47 113.778 1376.47 112.356C1376.47 110.916 1376.88 109.746 1377.75 108.828C1378.59 107.892 1379.73 107.442 1381.15 107.442ZM1381.15 109.116C1380.29 109.116 1379.64 109.44 1379.17 110.124C1378.77 110.7 1378.58 111.456 1378.58 112.356C1378.58 113.256 1378.77 113.994 1379.17 114.57C1379.64 115.236 1380.29 115.578 1381.15 115.578C1382 115.578 1382.66 115.236 1383.13 114.57C1383.53 113.976 1383.74 113.238 1383.74 112.356C1383.74 111.456 1383.53 110.7 1383.13 110.124C1382.66 109.44 1382 109.116 1381.15 109.116ZM1392.43 107.442C1394.75 107.442 1395.92 108.702 1395.92 111.258V117H1393.87V111.438C1393.87 109.908 1393.17 109.152 1391.76 109.152C1391.26 109.152 1390.81 109.332 1390.43 109.692C1390 110.088 1389.75 110.664 1389.67 111.402V117H1387.62V107.694H1389.67V108.774C1390.03 108.342 1390.45 108 1390.9 107.784C1391.37 107.55 1391.87 107.442 1392.43 107.442ZM1401 104.688V107.694H1403.07V109.386H1401V114.642C1401 114.858 1401.03 115.02 1401.14 115.146C1401.25 115.254 1401.39 115.308 1401.61 115.308H1402.83V117H1401.27C1400.46 117 1399.86 116.784 1399.48 116.352C1399.12 115.956 1398.94 115.398 1398.94 114.642V109.386H1397.27V107.694H1398.94V105.534L1401 104.688ZM1408.83 107.442C1410.2 107.442 1411.23 107.784 1411.87 108.468C1412.45 109.062 1412.74 109.926 1412.74 111.06V117H1410.83V115.776C1410.47 116.244 1410.02 116.586 1409.5 116.838C1408.9 117.108 1408.2 117.252 1407.39 117.252C1406.42 117.252 1405.66 117 1405.11 116.514C1404.53 116.01 1404.24 115.38 1404.24 114.606C1404.24 113.562 1404.64 112.752 1405.47 112.194C1406.22 111.654 1407.28 111.366 1408.65 111.33L1410.69 111.276V110.916C1410.69 109.692 1410.02 109.098 1408.69 109.098C1408.11 109.098 1407.66 109.188 1407.32 109.404C1406.92 109.638 1406.65 109.998 1406.55 110.484L1404.51 110.322C1404.71 109.296 1405.21 108.54 1406.02 108.072C1406.71 107.64 1407.64 107.442 1408.83 107.442ZM1410.69 112.752L1408.8 112.806C1407.16 112.842 1406.35 113.418 1406.35 114.534C1406.35 114.858 1406.47 115.128 1406.76 115.344C1407.05 115.56 1407.41 115.686 1407.86 115.686C1408.65 115.686 1409.32 115.452 1409.86 115.002C1410.4 114.534 1410.69 113.94 1410.69 113.22V112.752ZM1419.08 107.442C1420.29 107.442 1421.24 107.712 1421.96 108.252C1422.7 108.828 1423.17 109.692 1423.35 110.862H1421.31C1421.19 110.268 1420.93 109.836 1420.57 109.548C1420.2 109.26 1419.69 109.116 1419.08 109.116C1418.32 109.116 1417.73 109.386 1417.3 109.962C1416.87 110.52 1416.65 111.312 1416.65 112.32C1416.65 113.346 1416.85 114.156 1417.28 114.732C1417.68 115.29 1418.27 115.578 1419.06 115.578C1420.43 115.578 1421.19 114.894 1421.35 113.544H1423.38C1423.17 114.804 1422.68 115.74 1421.94 116.352C1421.22 116.946 1420.25 117.252 1419.04 117.252C1417.6 117.252 1416.49 116.784 1415.7 115.848C1414.92 114.948 1414.54 113.778 1414.54 112.338C1414.54 110.934 1414.92 109.782 1415.68 108.9C1416.49 107.928 1417.62 107.442 1419.08 107.442ZM1427.91 104.688V107.694H1429.98V109.386H1427.91V114.642C1427.91 114.858 1427.95 115.02 1428.05 115.146C1428.16 115.254 1428.31 115.308 1428.52 115.308H1429.75V117H1428.18C1427.37 117 1426.78 116.784 1426.4 116.352C1426.04 115.956 1425.86 115.398 1425.86 114.642V109.386H1424.18V107.694H1425.86V105.534L1427.91 104.688Z" fill="#505B67"/>
<path d="M861 111.5C860.172 111.5 859.5 110.828 859.5 110C859.5 109.172 860.172 108.5 861 108.5L861 111.5ZM944 110L929 118.66L929 101.34L944 110ZM861 108.5L930.5 108.5L930.5 111.5L861 111.5L861 108.5Z" fill="#505B67"/>
<path d="M543 111.5C542.172 111.5 541.5 110.828 541.5 110C541.5 109.172 542.172 108.5 543 108.5L543 111.5ZM626 110L611 118.66L611 101.34L626 110ZM543 108.5L612.5 108.5L612.5 111.5L543 111.5L543 108.5Z" fill="#505B67"/>
<path d="M215 111.5C214.172 111.5 213.5 110.828 213.5 110C213.5 109.172 214.172 108.5 215 108.5L215 111.5ZM298 110L283 118.66L283 101.34L298 110ZM215 108.5L284.5 108.5L284.5 111.5L215 111.5L215 108.5Z" fill="#505B67"/>
<path d="M1197 111.5C1196.17 111.5 1195.5 110.828 1195.5 110C1195.5 109.172 1196.17 108.5 1197 108.5L1197 111.5ZM1280 110L1265 118.66L1265 101.34L1280 110ZM1197 108.5L1266.5 108.5L1266.5 111.5L1197 111.5L1197 108.5Z" fill="#505B67"/>
<path d="M1.49438 6.148H6.82238C9.91838 6.148 11.4844 7.462 11.4844 10.09C11.4844 12.736 9.91838 14.068 6.78638 14.068H3.60038V19H1.49438V6.148ZM3.60038 7.948V12.268H6.66038C7.59638 12.268 8.28038 12.088 8.71238 11.764C9.14438 11.422 9.36038 10.864 9.36038 10.09C9.36038 9.316 9.12638 8.776 8.69438 8.452C8.26238 8.11 7.57838 7.948 6.66038 7.948H3.60038ZM13.1093 5.896H15.1613V10.936C15.5033 10.414 15.9353 10.036 16.4393 9.784C16.8893 9.55 17.4113 9.442 18.0053 9.442C19.1393 9.442 19.9853 9.766 20.5433 10.432C21.0653 11.062 21.3353 11.998 21.3353 13.24V19H19.2833V13.6C19.2833 12.808 19.1213 12.196 18.8153 11.782C18.4553 11.332 17.9333 11.116 17.2313 11.116C16.5833 11.116 16.0793 11.368 15.7193 11.872C15.3413 12.376 15.1613 13.006 15.1613 13.798V19H13.1093V5.896ZM27.728 9.442C29.096 9.442 30.122 9.784 30.77 10.468C31.346 11.062 31.634 11.926 31.634 13.06V19H29.726V17.776C29.366 18.244 28.916 18.586 28.394 18.838C27.8 19.108 27.098 19.252 26.288 19.252C25.316 19.252 24.56 19 24.002 18.514C23.426 18.01 23.138 17.38 23.138 16.606C23.138 15.562 23.534 14.752 24.362 14.194C25.118 13.654 26.18 13.366 27.548 13.33L29.582 13.276V12.916C29.582 11.692 28.916 11.098 27.584 11.098C27.008 11.098 26.558 11.188 26.216 11.404C25.82 11.638 25.55 11.998 25.442 12.484L23.408 12.322C23.606 11.296 24.11 10.54 24.92 10.072C25.604 9.64 26.54 9.442 27.728 9.442ZM29.582 14.752L27.692 14.806C26.054 14.842 25.244 15.418 25.244 16.534C25.244 16.858 25.37 17.128 25.658 17.344C25.946 17.56 26.306 17.686 26.756 17.686C27.548 17.686 28.214 17.452 28.754 17.002C29.294 16.534 29.582 15.94 29.582 15.22V14.752ZM37.3088 9.442C39.7568 9.442 41.1068 10.414 41.3228 12.394H39.3248C39.1808 11.926 38.9648 11.584 38.6768 11.404C38.3708 11.206 37.9028 11.116 37.2728 11.116C36.7328 11.116 36.3188 11.188 36.0488 11.35C35.7248 11.512 35.5808 11.764 35.5808 12.124C35.5808 12.412 35.8148 12.682 36.3188 12.898C36.6248 13.024 37.2368 13.204 38.1728 13.438C39.2168 13.69 40.0088 13.978 40.5128 14.32C41.2508 14.788 41.6288 15.454 41.6288 16.282C41.6288 18.262 40.2248 19.252 37.4348 19.252C34.8428 19.252 33.4568 18.154 33.2588 15.976H35.2568C35.3647 16.57 35.5808 16.984 35.8868 17.236C36.1928 17.452 36.6788 17.578 37.3628 17.578C38.8028 17.578 39.5228 17.182 39.5228 16.426C39.5228 15.994 39.2528 15.652 38.7128 15.4C38.4248 15.256 37.8128 15.094 36.8768 14.878C35.7788 14.626 35.0048 14.356 34.5548 14.068C33.8348 13.618 33.4748 12.988 33.4748 12.178C33.4748 11.314 33.8168 10.648 34.5368 10.18C35.2388 9.676 36.1568 9.442 37.3088 9.442ZM47.2158 9.442C48.7458 9.442 49.9158 9.946 50.7258 10.99C51.4638 11.926 51.8418 13.24 51.8418 14.914H44.8758C44.9478 15.778 45.1818 16.444 45.5778 16.894C45.9738 17.344 46.5498 17.578 47.2878 17.578C47.9178 17.578 48.4218 17.434 48.8178 17.146C49.1238 16.912 49.3938 16.534 49.6458 16.012H51.6978C51.4818 16.876 51.0498 17.614 50.4018 18.19C49.5738 18.892 48.5478 19.252 47.3058 19.252C45.9198 19.252 44.8218 18.82 44.0118 17.974C43.1478 17.092 42.7158 15.886 42.7158 14.338C42.7158 12.952 43.1118 11.8 43.9398 10.864C44.7318 9.91 45.8298 9.442 47.2158 9.442ZM47.2698 11.116C46.5858 11.116 46.0638 11.296 45.6678 11.692C45.2898 12.07 45.0378 12.628 44.9118 13.366H49.6998C49.5198 11.854 48.7098 11.116 47.2698 11.116ZM62.5588 6.148H64.1428V19H62.0368V8.686C61.2628 9.388 60.2908 9.91 59.1028 10.252V8.164C59.6788 8.02 60.2908 7.768 60.9388 7.408C61.5868 7.012 62.1268 6.598 62.5588 6.148Z" fill="black"/>
</svg>
