<svg width="386" height="538" viewBox="0 0 386 538" fill="none" xmlns="http://www.w3.org/2000/svg">
<g clip-path="url(#clip0_32_2396)">
<rect x="386" y="538" width="551" height="659" transform="rotate(-180 386 538)" fill="#EC4D36"/>
<g clip-path="url(#clip1_32_2396)">
<path d="M88.8493 537.862L-1 537.862L-0.999984 447.997L88.8493 447.997L88.8493 537.862Z" fill="#B7B7B8"/>
<path d="M88.8493 537.862L-1 537.862L-0.999992 492.921L88.8493 492.921L88.8493 537.862Z" fill="#DC4F3B"/>
<path d="M66.4963 493.027C66.545 480.429 56.3772 470.18 43.7788 470.131C31.1805 470.082 20.9317 480.25 20.8831 492.849L66.4882 493.027L66.4963 493.027Z" fill="#1B1C1C"/>
<path d="M66.4963 493.027C66.4477 505.625 56.1989 515.793 43.6006 515.744C31.0022 515.696 20.8344 505.439 20.8831 492.848L66.4882 493.027L66.4963 493.027Z" fill="white"/>
<path d="M88.8574 448.248L178.48 448.248L178.48 537.87L88.8574 537.87L88.8574 448.248Z" fill="#DC4F3B"/>
<path d="M178.593 447.997L88.9708 447.997L88.9708 358.374L178.593 358.374L178.593 447.997Z" fill="#DC4F3B"/>
<path d="M88.8817 535.853C113.438 535.853 133.353 516.206 133.353 491.974C133.353 467.741 113.446 448.094 88.8817 448.094" fill="white"/>
<path d="M88.5738 515.096C101.14 515.145 111.356 505.001 111.413 492.444C111.461 479.878 101.318 469.661 88.7601 469.605" fill="#1B1C1C"/>
<path d="M178.755 448.094C154.523 448.094 134.876 467.741 134.876 491.974C134.876 516.206 154.515 535.853 178.755 535.853" fill="#1B1C1C"/>
<path d="M88.9141 381.149C101.48 381.197 111.615 391.422 111.567 403.988C111.518 416.554 101.294 426.689 88.7277 426.64" fill="white"/>
<path d="M133.693 447.997C133.693 423.205 153.794 403.105 178.585 403.105L178.585 447.997L133.693 447.997Z" fill="white"/>
<path d="M178.593 403.275C153.802 403.275 133.701 383.174 133.701 358.382L178.593 358.382L178.593 403.275Z" fill="white"/>
<path d="M448.222 448.127L358.6 448.127L358.6 358.504L448.222 358.504L448.222 448.127Z" fill="white"/>
<path d="M383.926 423.23C401.709 441.005 425.253 449.245 447.841 447.786L447.841 447.77L359.353 359.339L359.337 359.339C357.887 381.927 366.142 405.454 383.926 423.23Z" fill="#1B1C1C"/>
<path d="M359.353 359.339L447.841 447.77C449.291 425.19 441.036 401.654 423.252 383.879C405.469 366.104 381.925 357.872 359.353 359.339Z" fill="#DC4F3B"/>
<path d="M448.222 537.741L358.6 537.741L358.6 448.118L448.222 448.118L448.222 537.741Z" fill="#1B1C1C"/>
<path d="M383.926 473.015C401.709 455.24 425.253 447.001 447.841 448.459L447.841 448.475L359.353 536.906L359.337 536.906C357.887 514.319 366.142 490.791 383.926 473.015Z" fill="white"/>
<path d="M359.353 536.906L447.841 448.475C449.291 471.055 441.036 494.591 423.252 512.366C405.469 530.141 381.933 538.373 359.353 536.906Z" fill="#B7B7B8"/>
<path d="M537.99 359.339L358.454 359.339L358.454 179.81L537.99 179.81L537.99 359.339Z" fill="#1B1C1C"/>
<path d="M379.324 191.493C356.177 208.985 351.592 241.927 369.083 265.082C386.575 288.229 419.517 292.814 442.672 275.323" fill="white"/>
<path d="M379.324 191.493C402.471 174.001 435.421 178.587 452.913 201.734C470.405 224.881 465.819 257.831 442.672 275.323" fill="#DC4F3B"/>
<path d="M448.222 89.9287L358.6 89.9287L358.6 0.306313L448.222 0.306328L448.222 89.9287Z" fill="white"/>
<path d="M383.926 65.0317C401.709 82.8071 425.253 91.0467 447.841 89.5884L447.841 89.5722L359.353 1.14071L359.337 1.14071C357.887 23.7286 366.142 47.2563 383.926 65.0317Z" fill="#1B1C1C"/>
<path d="M359.353 1.14056L447.841 89.572C449.292 66.9922 441.036 43.4565 423.252 25.681C405.469 7.90562 381.925 -0.325863 359.353 1.14056Z" fill="#DC4F3B"/>
<path d="M448.222 179.551L358.6 179.551L358.6 89.9286L448.222 89.9286L448.222 179.551Z" fill="#1B1C1C"/>
<path d="M383.926 114.826C401.709 97.0501 425.253 88.8106 447.841 90.2689L447.841 90.2851L359.353 178.717L359.337 178.717C357.887 156.129 366.142 132.601 383.926 114.826Z" fill="white"/>
<path d="M359.353 178.716L447.841 90.285C449.291 112.865 441.036 136.401 423.252 154.176C405.469 171.951 381.925 180.183 359.353 178.716Z" fill="#B7B7B8"/>
<path d="M88.7521 89.9286L88.7521 0.306152L178.375 0.306168L178.375 89.9286L88.7521 89.9286Z" fill="white"/>
<path d="M113.641 25.6323C95.8655 43.4158 87.626 66.9597 89.0843 89.5476L89.1005 89.5476L177.532 1.05949L177.532 1.04327C154.944 -0.406956 131.416 7.84883 113.641 25.6323Z" fill="#1B1C1C"/>
<path d="M177.54 1.0595L89.1086 89.5476C111.688 90.9978 135.224 82.7421 153 64.9586C170.775 47.1751 179.006 23.6312 177.54 1.0595Z" fill="#DC4F3B"/>
<path d="M178.375 89.9286L178.375 179.551L88.7521 179.551L88.7521 89.9286L178.375 89.9286Z" fill="#DC4F3B"/>
<path d="M113.641 154.225C95.8655 136.441 87.626 112.897 89.0843 90.3093L89.1005 90.3093L177.532 178.798L177.532 178.814C154.944 180.264 131.416 172.008 113.641 154.225Z" fill="white"/>
<path d="M177.54 178.797L89.1086 90.3092C111.688 88.859 135.224 97.1148 153 114.898C170.775 132.682 179.006 156.226 177.54 178.797Z" fill="#B7B7B8"/>
<path d="M88.7521 0.638344L88.7521 90.2607L-0.870331 90.2607L-0.870315 0.638328L88.7521 0.638344Z" fill="#B7B7B8"/>
<path d="M63.8552 64.9344C81.6306 47.1509 89.8702 23.607 88.4119 1.01911L88.3956 1.01911L-0.0357971 89.5072L-0.0357971 89.5234C22.5521 90.9737 46.0798 82.7179 63.8552 64.9344Z" fill="white"/>
<path d="M-0.0358066 89.5071L88.3956 1.01897C65.8158 -0.431263 42.28 7.82447 24.5046 25.608C6.72923 43.3915 -1.50223 66.9354 -0.0358066 89.5071Z" fill="#1B1C1C"/>
<path d="M268.524 359.25L178.901 359.25L178.901 269.627L268.524 269.627L268.524 359.25Z" fill="#B7B7B8"/>
<path d="M268.524 314.438L178.901 314.438L178.901 269.465L268.524 269.465L268.524 314.438Z" fill="#DC4F3B"/>
<path d="M201.197 314.349C201.149 326.915 211.292 337.132 223.85 337.188C236.416 337.237 246.632 327.093 246.689 314.536L201.197 314.357L201.197 314.349Z" fill="#1B1C1C"/>
<path d="M201.197 314.349C201.246 301.783 211.471 291.648 224.036 291.697C236.602 291.745 246.738 301.97 246.689 314.536" fill="white"/>
<path d="M358.373 269.716L268.524 269.716L268.524 179.851L358.373 179.851L358.373 269.716Z" fill="#B7B7B8"/>
<path d="M358.373 224.784L268.524 224.784L268.524 179.843L358.373 179.843L358.373 224.784Z" fill="#DC4F3B"/>
<path d="M290.877 224.694C290.828 237.293 300.996 247.542 313.594 247.59C326.192 247.639 336.441 237.471 336.49 224.873L290.885 224.694L290.877 224.694Z" fill="#1B1C1C"/>
<path d="M290.877 224.695C290.925 212.096 301.174 201.928 313.772 201.977C326.371 202.026 336.538 212.283 336.49 224.873L290.885 224.695L290.877 224.695Z" fill="white"/>
<path d="M268.524 269.465L178.901 269.465L178.901 179.843L268.524 179.843L268.524 269.465Z" fill="#DC4F3B"/>
<path d="M358.373 359.339L268.75 359.339L268.75 269.716L358.373 269.716L358.373 359.339Z" fill="#DC4F3B"/>
<path d="M268.491 181.86C243.935 181.86 224.02 201.507 224.02 225.74C224.02 249.972 243.926 269.619 268.491 269.619" fill="white"/>
<path d="M268.799 202.617C256.233 202.568 246.017 212.712 245.96 225.27C245.911 237.836 256.055 248.052 268.613 248.109" fill="#1B1C1C"/>
<path d="M178.618 269.627C202.85 269.627 222.497 249.98 222.497 225.748C222.497 201.515 202.85 181.868 178.618 181.868" fill="#1B1C1C"/>
<path d="M268.702 292.482C281.268 292.531 291.403 302.756 291.354 315.321C291.306 327.887 281.081 338.023 268.515 337.974" fill="white"/>
<path d="M313.481 359.339C313.481 334.547 333.581 314.446 358.373 314.446L358.373 359.339L313.481 359.339Z" fill="white"/>
<path d="M358.373 314.608C333.581 314.608 313.481 294.508 313.481 269.716L358.373 269.716L358.373 314.608Z" fill="white"/>
<path d="M268.645 448.118L179.023 448.118L179.023 358.496L268.645 358.496L268.645 448.118Z" fill="#DC4F3B"/>
<path d="M358.267 448.118L268.653 448.118L268.653 358.496L358.267 358.496L358.267 448.118Z" fill="#DC4F3B"/>
<path d="M358.267 537.749L268.653 537.749L268.653 448.127L358.267 448.127L358.267 537.749Z" fill="#DC4F3B"/>
<path d="M268.645 537.749L179.023 537.749L179.023 448.126L268.645 448.126L268.645 537.749Z" fill="#DC4F3B"/>
<path d="M179.023 518.92L179.023 537.749L358.259 537.749L358.259 358.504L351.729 358.504C321.566 359.436 293.275 367.813 268.637 381.878C240.986 397.644 217.936 420.572 202.008 448.126C189.733 469.353 181.688 493.335 179.015 518.92L179.023 518.92Z" fill="#1B1C1C"/>
<path d="M268.289 537.749L358.259 537.749L358.259 448.653C357.968 448.653 357.676 448.653 357.384 448.653C310.872 448.653 272.68 484.301 268.645 529.777C268.41 532.41 268.289 535.067 268.289 537.757L268.289 537.749Z" fill="white"/>
<path d="M268.289 89.9287L268.289 0.306274L357.911 0.30629L357.911 89.9287L268.289 89.9287Z" fill="#DC4F3B"/>
<path d="M357.911 179.543L268.289 179.543L268.289 89.9287L357.911 89.9287L357.911 179.543Z" fill="#DC4F3B"/>
<path d="M268.289 179.543L178.666 179.543L178.666 89.9287L268.289 89.9287L268.289 179.543Z" fill="#DC4F3B"/>
<path d="M268.289 89.9287L178.666 89.9287L178.666 0.306313L268.289 0.306328L268.289 89.9287Z" fill="#DC4F3B"/>
<path d="M197.495 0.306278L178.666 0.306274L178.666 179.543L357.911 179.543L357.911 173.013C356.979 142.85 348.602 114.558 334.537 89.9206C318.771 62.2691 295.843 39.2194 268.289 23.2912C247.062 11.0169 223.081 2.97178 197.495 0.298175L197.495 0.306278Z" fill="#1B1C1C"/>
<path d="M178.666 89.5722L178.666 179.543L267.762 179.543C267.762 179.251 267.762 178.96 267.762 178.668C267.762 132.155 232.114 93.9634 186.638 89.9287C184.005 89.6937 181.348 89.5722 178.658 89.5722L178.666 89.5722Z" fill="white"/>
</g>
</g>
<defs>
<clipPath id="clip0_32_2396">
<rect width="386" height="538" fill="white" transform="translate(386 538) rotate(-180)"/>
</clipPath>
<clipPath id="clip1_32_2396">
<rect width="718" height="537.945" fill="white" transform="matrix(1 1.74846e-07 1.74846e-07 -1 -1 538)"/>
</clipPath>
</defs>
</svg>
