<svg width="316" height="54" viewBox="0 0 316 54" fill="none" xmlns="http://www.w3.org/2000/svg">
<path d="M74.6185 34.87C77.4019 36.8809 81.1131 37.7426 83.7419 37.7426C87.2984 37.7426 89.9272 36.1627 89.9272 33.1465C89.9272 29.5557 86.3706 28.9812 82.3502 27.8321C78.0204 26.6831 74 25.1031 74 19.9324C74 14.9054 77.8658 12.0327 83.7419 12.0327C86.5252 12.0327 90.0818 12.7509 92.4013 14.1872V18.0652C89.6179 16.3417 86.216 15.4799 83.5872 15.4799C80.1853 15.4799 77.8658 16.7726 77.8658 19.6452C77.8658 23.0923 81.4224 23.6668 84.9789 24.6722C89.3086 25.8213 93.6383 27.4012 93.6383 32.8592C93.6383 38.0299 89.6179 41.0461 83.5872 41.0461C80.6492 41.0461 77.0927 40.328 74.4639 38.8917V34.87H74.6185ZM126.73 29.4121C126.73 27.5449 126.42 26.3958 125.647 25.6777C124.874 24.8159 123.637 24.5286 122.555 24.5286C120.235 24.5286 117.761 25.9649 116.215 27.5449V40.7589H112.504V29.4121C112.504 27.4012 112.194 26.3958 111.576 25.6777C110.803 24.8159 109.565 24.5286 108.483 24.5286C106.009 24.5286 103.689 25.9649 102.143 27.5449V40.7589H98.432V21.656H102.143V23.9541H102.298C103.999 22.3742 106.473 21.2251 109.256 21.2251C111.73 21.2251 114.359 22.2305 115.596 24.5286C118.07 22.3742 120.544 21.2251 123.482 21.2251C125.647 21.2251 127.658 21.9433 128.895 23.2359C130.132 24.5286 130.596 26.2522 130.596 28.8375V40.7589H126.884V29.4121H126.73ZM136.626 39.7535C135.235 38.8917 134.461 37.4554 134.461 35.5882C134.461 33.4337 135.544 31.8538 137.245 30.992C138.791 30.1302 140.956 29.6993 142.966 29.6993C144.512 29.6993 146.059 29.843 147.296 30.2738V28.6939C147.296 27.2576 146.987 26.2522 146.059 25.534C145.286 24.8159 144.049 24.5286 142.193 24.5286C139.564 24.5286 137.399 25.3904 135.853 26.3958V22.9487C137.399 22.0869 139.719 21.3687 142.657 21.3687C145.131 21.3687 147.296 21.9433 148.842 23.0923C150.079 24.0977 150.852 25.6777 150.852 28.1194V36.1627C150.852 37.3117 151.316 38.1735 152.399 38.1735C152.863 38.1735 153.327 38.0299 153.636 37.8863V40.7589C153.481 40.9025 152.708 41.0461 151.935 41.0461C150.234 41.0461 148.688 40.328 147.914 39.0353H147.76C146.523 40.0407 144.203 41.1898 141.42 41.1898C139.873 41.1898 138.018 40.7589 136.626 39.7535ZM147.45 36.45V32.8592C146.368 32.5719 144.667 32.2847 143.43 32.2847C140.956 32.2847 138.327 33.0028 138.327 35.3009C138.327 37.1681 140.028 38.0299 142.193 38.0299C144.203 38.0299 146.059 37.3118 147.45 36.45ZM157.347 21.656H161.058V24.385H161.213C162.604 22.5178 164.924 21.3687 167.243 21.3687C167.707 21.3687 168.171 21.3687 168.635 21.5124V24.9595C168.171 24.8159 167.707 24.8159 167.243 24.8159C164.46 24.8159 162.45 26.1086 161.213 28.263V40.6153H157.502V21.656H157.347ZM175.594 34.1519V24.8159H171.728V21.656H175.594V16.4853L179.305 15.9108V21.656H185.49V24.8159H179.305V33.4337C179.305 35.7318 179.614 38.0299 182.397 38.0299C183.48 38.0299 184.717 37.7426 185.49 37.1681V40.4716C184.717 40.9025 183.171 41.1898 181.779 41.1898C180.233 41.1898 178.377 40.9025 177.14 39.4662C176.212 38.3172 175.594 36.7372 175.594 34.1519ZM191.675 34.87C194.459 36.8809 198.17 37.7426 200.799 37.7426C204.355 37.7426 206.984 36.1627 206.984 33.1465C206.984 29.5557 203.427 28.9812 199.407 27.8321C195.077 26.6831 191.057 25.1031 191.057 19.9324C191.057 14.9054 194.923 12.0327 200.799 12.0327C203.582 12.0327 207.139 12.7509 209.458 14.1872V18.0652C206.675 16.3417 203.273 15.4799 200.644 15.4799C197.242 15.4799 194.923 16.7726 194.923 19.6452C194.923 23.0923 198.479 23.6668 202.036 24.6722C206.365 25.8213 210.695 27.4012 210.695 32.8592C210.695 38.0299 206.675 41.0461 200.644 41.0461C197.706 41.0461 194.15 40.328 191.521 38.8917V34.87H191.675ZM214.252 33.2901V21.656H217.963V32.7156C217.963 34.87 218.272 35.8754 218.891 36.7372C219.664 37.7426 220.901 38.0299 222.138 38.0299C224.612 38.0299 227.086 36.45 228.633 34.7264V21.656H232.344V40.7589H228.633V38.3172H228.478C226.622 40.0407 224.148 41.1898 221.365 41.1898C219.2 41.1898 217.19 40.4716 215.798 39.0353C214.87 37.7426 214.252 36.0191 214.252 33.2901ZM237.447 21.656H241.158V24.385H241.312C242.704 22.5178 245.024 21.3687 247.343 21.3687C247.807 21.3687 248.271 21.3687 248.735 21.5124V24.9595C248.271 24.8159 247.807 24.8159 247.343 24.8159C244.56 24.8159 242.55 26.1086 241.312 28.263V40.6153H237.601V21.656H237.447ZM251.209 21.656H255.229L259.095 30.2738C260.023 32.4283 260.796 34.2955 261.724 36.45H261.879C262.806 34.2955 263.734 32.2847 264.662 30.1302L268.373 21.7996H272.239L263.58 40.9025H259.868L251.209 21.656ZM277.496 32.141C278.115 35.8754 281.053 38.0299 285.073 38.0299C287.857 38.0299 290.331 37.0245 292.187 35.7318V39.4662C290.331 40.6153 287.548 41.1898 284.764 41.1898C278.424 41.1898 273.631 37.1681 273.631 31.2793C273.631 25.3904 278.424 21.3687 283.836 21.3687C288.785 21.3687 293.269 24.6722 293.269 30.5611C293.269 31.1356 293.269 31.8538 293.114 32.2847H277.496V32.141ZM277.651 29.4121H289.712C289.403 25.6777 286.311 24.385 283.836 24.385C281.208 24.385 278.27 25.9649 277.651 29.4121ZM297.908 49.2331L303.475 38.6044L294.97 21.5124H299.145L302.702 28.6939C303.629 30.7047 304.712 32.7156 305.485 34.4391H305.64C306.567 32.5719 307.495 30.7047 308.423 28.6939L311.98 21.5124H316L302.083 49.0895H297.908V49.2331Z" fill="white"/>
<path fill-rule="evenodd" clip-rule="evenodd" d="M50.9289 14.3149L58 4.29541L51.8512 20.5589L54.6182 41.7595C55.0793 45.6802 52.1587 49.3105 48.0083 49.8913L13.114 53.9572C8.96358 54.3928 5.1206 51.6338 4.50573 47.7131L0.0478692 14.7505C-0.413288 10.8299 2.50738 7.19961 6.65779 6.61877L41.7058 2.5529C45.2413 2.11727 48.6231 4.1502 49.8529 7.19961L50.9289 14.3149Z" fill="white"/>
<path fill-rule="evenodd" clip-rule="evenodd" d="M15.2971 21.6717L26.2275 32.6133L54.8027 1.85843C57.3011 -0.950916 60.1118 1.41485 58.5503 3.92847L31.3804 42.2243C29.1943 45.0336 24.0414 45.3293 22.1677 42.3721L10.925 25.5161C8.11429 21.6717 12.3303 18.4188 15.2971 21.6717V21.6717Z" fill="#F06824"/>
</svg>
