<svg width="48" height="48" viewBox="0 0 48 48" fill="none" xmlns="http://www.w3.org/2000/svg">
<path d="M42 24C42 21.6362 41.5344 19.2956 40.6298 17.1117C39.7252 14.9278 38.3994 12.9435 36.7279 11.2721C35.0565 9.60062 33.0722 8.27475 30.8883 7.37017C28.7044 6.46558 26.3638 6 24 6C21.6362 6 19.2956 6.46558 17.1117 7.37017C14.9278 8.27475 12.9435 9.60062 11.2721 11.2721C9.60062 12.9435 8.27475 14.9278 7.37017 17.1117C6.46558 19.2956 6 21.6362 6 24C6 26.3638 6.46558 28.7044 7.37017 30.8883C8.27475 33.0722 9.60062 35.0565 11.2721 36.7279C12.9435 38.3994 14.9278 39.7253 17.1117 40.6298C19.2956 41.5344 21.6362 42 24 42C26.3638 42 28.7044 41.5344 30.8883 40.6298C33.0722 39.7253 35.0565 38.3994 36.7279 36.7279C38.3994 35.0565 39.7252 33.0722 40.6298 30.8883C41.5344 28.7044 42 26.3638 42 24ZM0 24C0 17.6348 2.52856 11.5303 7.02944 7.02944C11.5303 2.52856 17.6348 0 24 0C30.3652 0 36.4697 2.52856 40.9706 7.02944C45.4714 11.5303 48 17.6348 48 24C48 30.3652 45.4714 36.4697 40.9706 40.9706C36.4697 45.4714 30.3652 48 24 48C17.6348 48 11.5303 45.4714 7.02944 40.9706C2.52856 36.4697 0 30.3652 0 24ZM24 31.5C25.9891 31.5 27.8968 30.7098 29.3033 29.3033C30.7098 27.8968 31.5 25.9891 31.5 24C31.5 22.0109 30.7098 20.1032 29.3033 18.6967C27.8968 17.2902 25.9891 16.5 24 16.5C22.0109 16.5 20.1032 17.2902 18.6967 18.6967C17.2902 20.1032 16.5 22.0109 16.5 24C16.5 25.9891 17.2902 27.8968 18.6967 29.3033C20.1032 30.7098 22.0109 31.5 24 31.5ZM24 10.5C27.5804 10.5 31.0142 11.9223 33.5459 14.4541C36.0777 16.9858 37.5 20.4196 37.5 24C37.5 27.5804 36.0777 31.0142 33.5459 33.5459C31.0142 36.0777 27.5804 37.5 24 37.5C20.4196 37.5 16.9858 36.0777 14.4541 33.5459C11.9223 31.0142 10.5 27.5804 10.5 24C10.5 20.4196 11.9223 16.9858 14.4541 14.4541C16.9858 11.9223 20.4196 10.5 24 10.5ZM21 24C21 23.2044 21.3161 22.4413 21.8787 21.8787C22.4413 21.3161 23.2044 21 24 21C24.7956 21 25.5587 21.3161 26.1213 21.8787C26.6839 22.4413 27 23.2044 27 24C27 24.7956 26.6839 25.5587 26.1213 26.1213C25.5587 26.6839 24.7956 27 24 27C23.2044 27 22.4413 26.6839 21.8787 26.1213C21.3161 25.5587 21 24.7956 21 24Z" fill="#FB5425"/>
</svg>
