<svg width="640" height="1274" viewBox="0 0 640 1274" fill="none" xmlns="http://www.w3.org/2000/svg">
<g clip-path="url(#clip0_130_3159)">
<g clip-path="url(#clip1_130_3159)">
<path d="M427.632 0.326397L640.419 0.326416L640.419 213.152L427.631 213.152L427.632 0.326397Z" fill="#B7B7B8"/>
<path d="M427.632 0.326397L640.419 0.326416L640.419 106.759L427.632 106.758L427.632 0.326397Z" fill="#DC4F3B"/>
<path d="M480.569 106.509C480.454 136.345 504.534 160.617 534.37 160.732C564.207 160.848 588.479 136.767 588.594 106.931L480.588 106.509L480.569 106.509Z" fill="#1B1C1C"/>
<path d="M480.569 106.509C480.684 76.6726 504.956 52.5926 534.793 52.7077C564.629 52.8228 588.709 77.114 588.594 106.931L480.588 106.509L480.569 106.509Z" fill="white"/>
<path d="M427.612 212.557L215.362 212.557L215.362 0.307205L427.613 0.307224L427.612 212.557Z" fill="#DC4F3B"/>
<path d="M215.094 213.152L427.344 213.152L427.344 425.402L215.094 425.402L215.094 213.152Z" fill="#DC4F3B"/>
<path d="M427.555 5.08496C369.398 5.08496 322.235 51.6142 322.235 109.003C322.235 166.393 369.379 212.922 427.555 212.922" fill="white"/>
<path d="M428.284 54.2428C398.524 54.1277 374.329 78.1502 374.195 107.891C374.079 137.65 398.102 161.845 427.842 161.98" fill="#1B1C1C"/>
<path d="M214.71 212.922C272.099 212.922 318.628 166.393 318.628 109.004C318.628 51.6142 272.118 5.08496 214.71 5.08495" fill="#1B1C1C"/>
<path d="M427.478 371.467C397.719 371.352 373.715 347.137 373.83 317.378C373.945 287.618 398.16 263.615 427.919 263.73" fill="white"/>
<path d="M321.43 213.152C321.43 271.865 273.826 319.469 215.113 319.469L215.113 213.152L321.43 213.152Z" fill="white"/>
<path d="M215.094 319.066C273.807 319.066 321.411 366.67 321.411 425.383L215.094 425.383L215.094 319.066Z" fill="white"/>
<path d="M427.862 1061.16L427.862 1273.41L215.612 1273.41L215.612 1061.16L427.862 1061.16Z" fill="white"/>
<path d="M368.918 1213.43C411.015 1171.31 430.529 1115.55 427.075 1062.06L427.037 1062.06L217.607 1271.62L217.607 1271.66C271.101 1275.09 326.821 1255.54 368.918 1213.43Z" fill="#1B1C1C"/>
<path d="M217.588 1271.62L427.018 1062.06C373.543 1058.62 317.803 1078.17 275.706 1120.29C233.609 1162.41 214.115 1218.17 217.588 1271.62Z" fill="#DC4F3B"/>
<path d="M215.611 1061.16L215.611 848.905L427.861 848.905L427.861 1061.16L215.611 1061.16Z" fill="#DC4F3B"/>
<path d="M368.918 908.885C411.015 951.001 430.529 1006.76 427.075 1060.25L427.037 1060.25L217.607 850.689L217.607 850.651C271.101 847.217 326.821 866.768 368.918 908.885Z" fill="white"/>
<path d="M217.588 850.689L427.018 1060.25C373.542 1063.69 317.803 1044.14 275.706 1002.02C233.609 959.904 214.115 904.145 217.588 850.689Z" fill="#B7B7B8"/>
<path d="M427.862 1272.62L427.862 1060.37L640.112 1060.37L640.112 1272.62L427.862 1272.62Z" fill="#B7B7B8"/>
<path d="M486.825 1120.35C444.728 1162.46 425.214 1218.22 428.668 1271.72L428.706 1271.72L638.136 1062.15L638.136 1062.11C584.641 1058.68 528.921 1078.23 486.825 1120.35Z" fill="white"/>
<path d="M638.136 1062.15L428.706 1271.72C482.181 1275.15 537.92 1255.6 580.017 1213.48C622.114 1171.37 641.609 1115.61 638.136 1062.15Z" fill="#1B1C1C"/>
<path d="M2.11406 423.33L214.364 423.33L214.364 635.58L2.11404 635.58L2.11406 423.33Z" fill="#B7B7B8"/>
<path d="M2.11406 529.455L214.364 529.455L214.364 635.964L2.11405 635.964L2.11406 529.455Z" fill="#DC4F3B"/>
<path d="M161.561 529.666C161.676 499.907 137.654 475.712 107.913 475.577C78.1538 475.462 53.9586 499.485 53.8243 529.225L161.561 529.647L161.561 529.666Z" fill="#1B1C1C"/>
<path d="M161.561 529.666C161.446 559.426 137.231 583.429 107.472 583.314C77.7124 583.199 53.7091 558.985 53.8242 529.225" fill="white"/>
<path d="M-210.673 635.369L2.11426 635.369L2.11424 848.195L-210.673 848.195L-210.673 635.369Z" fill="#B7B7B8"/>
<path d="M-210.673 741.782L2.11426 741.782L2.11425 848.214L-210.673 848.214L-210.673 741.782Z" fill="#DC4F3B"/>
<path d="M2.11455 635.964L214.365 635.964L214.365 848.214L2.11453 848.214L2.11455 635.964Z" fill="#DC4F3B"/>
<path d="M-210.673 423.119L1.57715 423.119L1.57713 635.369L-210.673 635.369L-210.673 423.119Z" fill="#DC4F3B"/>
<path d="M2.19099 843.437C60.3478 843.437 107.51 796.907 107.51 739.518C107.51 682.129 60.367 635.6 2.191 635.6" fill="white"/>
<path d="M1.46178 794.279C31.2213 794.394 55.4165 770.371 55.5509 740.631C55.666 710.871 31.6435 686.676 1.90311 686.542" fill="#1B1C1C"/>
<path d="M215.036 635.58C157.647 635.58 111.118 682.11 111.118 739.499C111.118 796.888 157.647 843.417 215.036 843.417" fill="#1B1C1C"/>
<path d="M1.69245 581.453C-28.0671 581.338 -52.0704 557.123 -51.9553 527.364C-51.8402 497.604 -27.6258 473.601 2.13379 473.716" fill="white"/>
<path d="M1.82646 212.864L214.077 212.865L214.077 425.115L1.82644 425.115L1.82646 212.864Z" fill="#DC4F3B"/>
<path d="M-210.423 212.864L1.80762 212.865L1.8076 425.115L-210.423 425.115L-210.423 212.864Z" fill="#DC4F3B"/>
<path d="M-210.423 0.595196L1.80762 0.595215L1.8076 212.845L-210.423 212.845L-210.423 0.595196Z" fill="#DC4F3B"/>
<path d="M1.82597 0.595196L214.076 0.595215L214.076 212.845L1.82595 212.845L1.82597 0.595196Z" fill="#DC4F3B"/>
<path d="M214.077 45.1866L214.077 0.595215L-210.405 0.595178L-210.405 425.096L-194.94 425.096C-123.505 422.889 -56.5032 403.049 1.8455 369.74C67.3318 332.402 121.92 278.101 159.642 212.845C188.711 162.575 207.764 105.78 214.096 45.1866L214.077 45.1866Z" fill="#1B1C1C"/>
<path d="M2.6709 0.595115L-210.404 0.595096L-210.404 211.598C-209.714 211.598 -209.023 211.598 -208.332 211.598C-98.1777 211.598 -7.72865 127.174 1.82665 19.4754C2.38308 13.2396 2.6709 6.94612 2.6709 0.575928L2.6709 0.595115Z" fill="white"/>
<path d="M2.67043 1061.16L2.67041 1273.41L-209.58 1273.41L-209.58 1061.16L2.67043 1061.16Z" fill="#DC4F3B"/>
<path d="M-209.58 848.924L2.67041 848.924L2.67039 1061.16L-209.58 1061.16L-209.58 848.924Z" fill="#DC4F3B"/>
<path d="M2.67021 848.924L214.92 848.924L214.92 1061.16L2.67019 1061.16L2.67021 848.924Z" fill="#DC4F3B"/>
<path d="M2.6707 1061.16L214.921 1061.16L214.921 1273.41L2.67068 1273.41L2.6707 1061.16Z" fill="#DC4F3B"/>
<path d="M170.329 1273.41L214.92 1273.41L214.92 848.924L-209.58 848.924L-209.58 864.389C-207.373 935.824 -187.534 1002.83 -154.225 1061.17C-116.886 1126.66 -62.5859 1181.25 2.67018 1218.97C52.941 1248.04 109.735 1267.09 170.329 1273.42L170.329 1273.41Z" fill="#1B1C1C"/>
<path d="M214.921 1062L214.921 848.924L3.91773 848.924C3.91773 849.615 3.91773 850.306 3.91773 850.997C3.91772 961.151 88.3419 1051.6 196.04 1061.16C202.276 1061.71 208.57 1062 214.94 1062L214.921 1062Z" fill="white"/>
</g>
</g>
<defs>
<clipPath id="clip0_130_3159">
<rect width="640" height="1274" fill="white"/>
</clipPath>
<clipPath id="clip1_130_3159">
<rect width="1700.42" height="1274" fill="white" transform="matrix(-1 -8.74228e-08 -8.74228e-08 1 640.419 0.000244141)"/>
</clipPath>
</defs>
</svg>
