<svg width="640" height="1274" viewBox="0 0 640 1274" fill="none" xmlns="http://www.w3.org/2000/svg">
<g clip-path="url(#clip0_130_3295)">
<g clip-path="url(#clip1_130_3295)">
<path d="M212.368 1273.67L-0.418945 1273.67L-0.418908 1060.85L212.369 1060.85L212.368 1273.67Z" fill="#B7B7B8"/>
<path d="M212.368 1273.67L-0.418945 1273.67L-0.418927 1167.24L212.369 1167.24L212.368 1273.67Z" fill="#DC4F3B"/>
<path d="M159.431 1167.49C159.546 1137.65 135.466 1113.38 105.63 1113.27C75.7933 1113.15 51.5214 1137.23 51.4063 1167.07L159.412 1167.49L159.431 1167.49Z" fill="#1B1C1C"/>
<path d="M159.431 1167.49C159.316 1197.33 135.044 1221.41 105.207 1221.29C75.3711 1221.18 51.2911 1196.89 51.4062 1167.07L159.412 1167.49L159.431 1167.49Z" fill="white"/>
<path d="M212.388 1061.44L424.638 1061.44L424.638 1273.69L212.387 1273.69L212.388 1061.44Z" fill="#DC4F3B"/>
<path d="M424.906 1060.85L212.656 1060.85L212.656 848.598L424.906 848.598L424.906 1060.85Z" fill="#DC4F3B"/>
<path d="M212.445 1268.92C270.602 1268.92 317.765 1222.39 317.765 1165C317.765 1107.61 270.621 1061.08 212.445 1061.08" fill="white"/>
<path d="M211.716 1219.76C241.476 1219.87 265.671 1195.85 265.805 1166.11C265.921 1136.35 241.898 1112.15 212.158 1112.02" fill="#1B1C1C"/>
<path d="M425.29 1061.08C367.901 1061.08 321.372 1107.61 321.372 1165C321.372 1222.39 367.882 1268.92 425.29 1268.92" fill="#1B1C1C"/>
<path d="M212.522 902.533C242.281 902.648 266.285 926.863 266.17 956.622C266.055 986.382 241.84 1010.39 212.081 1010.27" fill="white"/>
<path d="M318.57 1060.85C318.57 1002.13 366.174 954.531 424.887 954.531L424.887 1060.85L318.57 1060.85Z" fill="white"/>
<path d="M424.906 954.934C366.193 954.934 318.589 907.33 318.589 848.617L424.906 848.617L424.906 954.934Z" fill="white"/>
<path d="M212.139 212.845L212.139 0.594727L424.389 0.594764L424.389 212.845L212.139 212.845Z" fill="white"/>
<path d="M271.082 60.5744C228.985 102.691 209.472 158.449 212.925 211.943L212.964 211.943L422.393 2.37925L422.393 2.34084C368.899 -1.0937 313.179 18.4582 271.082 60.5744Z" fill="#1B1C1C"/>
<path d="M422.412 2.37922L212.982 211.943C266.457 215.378 322.197 195.826 364.294 153.71C406.391 111.593 425.885 55.8351 422.412 2.37922Z" fill="#DC4F3B"/>
<path d="M424.389 212.845L424.389 425.095L212.139 425.095L212.139 212.845L424.389 212.845Z" fill="#DC4F3B"/>
<path d="M271.082 365.115C228.985 322.999 209.471 267.241 212.925 213.747L212.963 213.747L422.393 423.311L422.393 423.349C368.899 426.784 313.179 407.232 271.082 365.115Z" fill="white"/>
<path d="M422.412 423.311L212.982 213.747C266.458 210.312 322.197 229.864 364.294 271.98C406.391 314.096 425.885 369.855 422.412 423.311Z" fill="#B7B7B8"/>
<path d="M212.138 1.38142L212.138 213.632L-0.111984 213.632L-0.111947 1.38139L212.138 1.38142Z" fill="#B7B7B8"/>
<path d="M153.176 153.652C195.273 111.536 214.786 55.7774 211.333 2.28318L211.294 2.28318L1.86475 211.847L1.86475 211.885C55.359 215.32 111.079 195.768 153.176 153.652Z" fill="white"/>
<path d="M1.86472 211.847L211.294 2.28332C157.819 -1.15122 102.08 18.4006 59.9831 60.5168C17.8862 102.633 -1.60818 158.391 1.86472 211.847Z" fill="#1B1C1C"/>
<path d="M850.673 638.631L637.886 638.631L637.886 425.805L850.673 425.805L850.673 638.631Z" fill="#B7B7B8"/>
<path d="M850.673 532.218L637.886 532.218L637.886 425.786L850.673 425.786L850.673 532.218Z" fill="#DC4F3B"/>
<path d="M637.885 638.036L425.635 638.036L425.635 425.786L637.885 425.786L637.885 638.036Z" fill="#DC4F3B"/>
<path d="M850.673 850.881L638.423 850.881L638.423 638.631L850.673 638.631L850.673 850.881Z" fill="#DC4F3B"/>
<path d="M637.809 430.564C579.652 430.564 532.49 477.093 532.49 534.482C532.49 591.871 579.633 638.401 637.809 638.401" fill="white"/>
<path d="M638.538 479.721C608.779 479.606 584.583 503.629 584.449 533.369C584.334 563.129 608.357 587.324 638.097 587.458" fill="#1B1C1C"/>
<path d="M424.964 638.42C482.353 638.42 528.882 591.891 528.882 534.501C528.882 477.112 482.353 430.583 424.964 430.583" fill="#1B1C1C"/>
<path d="M638.308 692.547C668.067 692.662 692.07 716.877 691.955 746.636C691.84 776.396 667.626 800.399 637.866 800.284" fill="white"/>
<path d="M638.174 1061.14L425.923 1061.14L425.923 848.885L638.174 848.885L638.174 1061.14Z" fill="#DC4F3B"/>
<path d="M850.423 1061.14L638.192 1061.14L638.192 848.886L850.423 848.886L850.423 1061.14Z" fill="#DC4F3B"/>
<path d="M850.423 1273.41L638.192 1273.41L638.192 1061.15L850.423 1061.15L850.423 1273.41Z" fill="#DC4F3B"/>
<path d="M638.174 1273.4L425.924 1273.4L425.924 1061.15L638.174 1061.15L638.174 1273.4Z" fill="#DC4F3B"/>
<path d="M425.923 1228.81L425.923 1273.4L850.405 1273.4L850.405 848.905L834.94 848.905C763.505 851.111 696.503 870.951 638.155 904.26C572.668 941.599 518.08 995.899 480.358 1061.15C451.289 1111.43 432.236 1168.22 425.904 1228.81L425.923 1228.81Z" fill="#1B1C1C"/>
<path d="M637.329 1273.41L850.404 1273.41L850.404 1062.4C849.714 1062.4 849.023 1062.4 848.332 1062.4C738.178 1062.4 647.729 1146.83 638.173 1254.52C637.617 1260.76 637.329 1267.05 637.329 1273.42L637.329 1273.41Z" fill="white"/>
<path d="M637.33 212.845L637.33 0.594727L849.58 0.594764L849.58 212.845L637.33 212.845Z" fill="#DC4F3B"/>
<path d="M849.58 425.076L637.33 425.076L637.33 212.845L849.58 212.845L849.58 425.076Z" fill="#DC4F3B"/>
<path d="M637.33 425.076L425.08 425.076L425.08 212.845L637.33 212.845L637.33 425.076Z" fill="#DC4F3B"/>
<path d="M637.329 212.845L425.079 212.845L425.079 0.594803L637.329 0.59484L637.329 212.845Z" fill="#DC4F3B"/>
<path d="M469.671 0.594681L425.08 0.594673L425.08 425.076L849.58 425.076L849.58 409.611C847.373 338.176 827.534 271.174 794.225 212.826C756.886 147.339 702.586 92.7514 637.33 55.0291C587.059 25.9603 530.265 6.9073 469.671 0.575475L469.671 0.594681Z" fill="#1B1C1C"/>
<path d="M425.079 212.001L425.079 425.076L636.082 425.076C636.082 424.385 636.082 423.694 636.082 423.004C636.082 312.849 551.658 222.4 443.96 212.845C437.724 212.288 431.43 212.001 425.06 212.001L425.079 212.001Z" fill="white"/>
</g>
<path d="M640 850.67L425.636 850.67L425.636 638.42L640 638.42L640 850.67Z" fill="#B7B7B8"/>
<path d="M640 744.545L425.636 744.545L425.636 638.036L640 638.036L640 744.545Z" fill="#DC4F3B"/>
<path d="M478.965 744.334C478.849 774.093 503.111 798.288 533.147 798.423C563.203 798.538 587.639 774.515 587.775 744.775L478.965 744.353L478.965 744.334Z" fill="#1B1C1C"/>
<path d="M478.965 744.334C479.082 714.574 503.537 690.571 533.593 690.686C563.649 690.801 587.891 715.016 587.775 744.775" fill="white"/>
</g>
<defs>
<clipPath id="clip0_130_3295">
<rect width="640" height="1274" fill="white" transform="translate(640 1274) rotate(-180)"/>
</clipPath>
<clipPath id="clip1_130_3295">
<rect width="1700.42" height="1274" fill="white" transform="matrix(1 1.74846e-07 1.74846e-07 -1 -0.418945 1274)"/>
</clipPath>
</defs>
</svg>
